<svg xmlns="http://www.w3.org/2000/svg" width="69.573" height="51.793"><g transform="translate(0 -16.353)"><rect width="6.05" height="4.189" rx="1.963" transform="translate(62.98 27.293)" fill="#707583"/><path d="M67.965 32.025h-3.913a1.613 1.613 0 01-1.611-1.611v-2.053a1.613 1.613 0 011.611-1.611h3.913a1.613 1.613 0 011.611 1.611v2.054a1.613 1.613 0 01-1.611 1.61zm-3.913-4.189a.524.524 0 00-.523.523v2.054a.524.524 0 00.523.523h3.913a.524.524 0 00.523-.523v-2.052a.524.524 0 00-.523-.523z" fill="#2f3a5a"/><path d="M58.503 35.081a.544.544 0 01-.313-.988l4.787-3.365a.544.544 0 11.625.889l-4.787 3.365a.54.54 0 01-.312.099z" fill="#2f3a5a"/><rect width="6.05" height="4.189" rx="1.963" transform="rotate(180 3.296 15.74)" fill="#707583"/><path d="M5.526 32.025H1.613A1.613 1.613 0 010 30.414V28.36a1.613 1.613 0 011.611-1.611h3.913a1.613 1.613 0 011.611 1.611v2.054a1.613 1.613 0 01-1.608 1.611zm-3.913-4.189a.524.524 0 00-.526.524v2.054a.524.524 0 00.523.523h3.914a.524.524 0 00.523-.523V28.36a.524.524 0 00-.523-.523z" fill="#2f3a5a"/><path d="M11.07 35.081a.54.54 0 01-.312-.1l-4.787-3.365a.544.544 0 11.625-.889l4.783 3.366a.544.544 0 01-.313.988z" fill="#2f3a5a"/><rect width="9.866" height="15.619" rx="3.707" transform="rotate(-.115 25918.741 -26914.482)" fill="#3a556a"/><path d="M56.093 68.143a2.558 2.558 0 01-2.558-2.555l-.018-11.585a2.558 2.558 0 012.555-2.563l5.836-.01a2.558 2.558 0 012.558 2.555l.019 11.589a2.558 2.558 0 01-2.555 2.562l-5.836.01zm5.816-15.628l-5.836.01a1.471 1.471 0 00-1.468 1.474l.019 11.589a1.472 1.472 0 001.471 1.468l5.836-.01a1.471 1.471 0 001.468-1.474l-.019-11.589a1.471 1.471 0 00-1.471-1.468z" fill="#2f3a5a"/><rect width="9.866" height="15.619" rx="3.707" transform="rotate(-.115 25902.496 -2783.493)" fill="#3a556a"/><path d="M7.661 68.143a2.558 2.558 0 01-2.558-2.555l-.019-11.585a2.558 2.558 0 012.555-2.56l5.836-.01h.005a2.561 2.561 0 012.558 2.555l.019 11.589a2.558 2.558 0 01-2.555 2.562l-5.836.01zm5.816-15.628l-5.836.01a1.471 1.471 0 00-1.468 1.474l.019 11.589a1.472 1.472 0 001.471 1.468l5.836-.01a1.471 1.471 0 001.468-1.474l-.02-11.588a1.471 1.471 0 00-1.471-1.468z" fill="#2f3a5a"/><path d="M66.91 48.58a41.682 41.682 0 01-1.327 8.739 4.489 4.489 0 01-4.342 3.331l-26.4.035h-.059l-26.411.047a4.466 4.466 0 01-4.343-3.309 41.728 41.728 0 01-1.37-9.029c-.054-1.438-.018-2.7.046-3.75a13.56 13.56 0 011.61-5.552l3.316-6.2s5.851-13.477 8.331-14.561c1.2-.528 5.621-.88 9.892-1.1 4.255-.217 8.346-.32 8.85-.333h.059c1.023.019 16.347.322 18.744 1.356 2.485 1.094 8.385 14.548 8.385 14.548l3.338 6.18a13.572 13.572 0 011.621 5.565 34.465 34.465 0 01.058 4.032z" fill="#f14253"/><path d="M8.355 61.275A5 5 0 013.5 57.559a42.243 42.243 0 01-1.386-9.149 38.616 38.616 0 01.046-3.8 14.2 14.2 0 011.674-5.777l3.316-6.2c.589-1.359 5.994-13.666 8.594-14.8 1.073-.471 4.465-.856 10.081-1.141 3.779-.194 7.437-.3 8.834-.333h.073c2.782.054 16.584.364 18.989 1.4 2.609 1.146 8.056 13.43 8.668 14.827l3.316 6.142a14.052 14.052 0 011.685 5.789 34.87 34.87 0 01.057 4.083 42.229 42.229 0 01-1.344 8.853 5.031 5.031 0 01-4.867 3.738l-26.392.037h-.063l-26.408.047zM34.704 16.9l-.016.544c-1.393.035-5.04.138-8.805.331-7.192.369-9.164.818-9.7 1.053-1.664.729-5.823 9.147-8.053 14.283l-3.338 6.236a13.1 13.1 0 00-1.545 5.331 37.48 37.48 0 00-.045 3.7 41.14 41.14 0 001.345 8.91 3.913 3.913 0 003.8 2.9h.014l26.416-.049h.07l26.4-.032a3.943 3.943 0 003.817-2.924 41.146 41.146 0 001.305-8.627 33.867 33.867 0 00-.054-3.968 12.981 12.981 0 00-1.558-5.349l-3.341-6.179c-2.268-5.166-6.457-13.573-8.126-14.307-1.836-.791-12.515-1.2-18.535-1.309z" fill="#2f3a5a"/><path d="M57.197 31.859l-22.319.038h-.054l-6.175.008-2.9.008h-1.824l-1.515.008h-.013l-9.9.015 4.7-10.458a1.555 1.555 0 011.373-.908l11.958-.338h.008l1.531-.045 1.868-.054.892-.022h.022l1.965.045 14.273.355a1.549 1.549 0 011.373.915z" fill="#3dbce9"/><path d="M12.502 32.477a.544.544 0 01-.5-.766l4.7-10.456a2.1 2.1 0 011.856-1.233l16.258-.458h.054l16.236.4a2.106 2.106 0 011.852 1.228l4.735 10.44a.544.544 0 01-.494.768zm22.333-11.826l-16.246.452a1.011 1.011 0 00-.889.592l-4.356 9.69 43.014-.068-4.388-9.675a1.012 1.012 0 00-.89-.59l-16.234-.4zm10.299 26.154h-20.7a.544.544 0 110-1.087h20.7a.544.544 0 010 1.087zm0 2.397h-20.7a.544.544 0 110-1.087h20.7a.544.544 0 010 1.087z" fill="#2f3a5a"/><path d="M25.458 52.671h18.656v4.778H25.458z" fill="#f0f5f9"/><path d="M44.115 57.992H25.459a.544.544 0 01-.544-.544v-4.777a.544.544 0 01.544-.544h18.656a.544.544 0 01.544.544v4.778a.544.544 0 01-.544.543zm-18.113-1.087h17.569v-3.691H26.002z" fill="#2f3a5a"/><path d="M62.194 42.421s-13.323.94-13.793 7.68h13.793a7.276 7.276 0 000-7.68z" fill="#f0f5f9"/><path d="M62.194 50.645H48.4a.544.544 0 01-.544-.582c.5-7.129 13.734-8.144 14.3-8.185a.553.553 0 01.51.272 7.818 7.818 0 010 8.219.544.544 0 01-.472.276zm-13.172-1.087h12.85a6.625 6.625 0 00.016-6.563c-1.978.2-11.819 1.438-12.867 6.563z" fill="#2f3a5a"/><path d="M7.38 42.421s13.323.94 13.793 7.68H7.38a7.276 7.276 0 010-7.68z" fill="#f0f5f9"/><path d="M21.174 50.644H7.38a.544.544 0 01-.472-.272 7.818 7.818 0 010-8.219.55.55 0 01.51-.272c.563.04 13.8 1.056 14.3 8.185a.544.544 0 01-.544.582zM7.702 49.561h12.85c-1.047-5.126-10.889-6.365-12.866-6.563a6.625 6.625 0 00.015 6.563z" fill="#2f3a5a"/><g transform="translate(8.669 44.776)" fill="#c1cdd3"><circle cx="1.783" cy="1.783" r="1.783" transform="translate(48.856)"/><circle cx="1.216" cy="1.216" r="1.216" transform="translate(44.753 .99)"/><circle cx="1.783" cy="1.783" r="1.783"/><circle cx="1.216" cy="1.216" r="1.216" transform="translate(5.235 .99)"/></g></g></svg>