<svg xmlns="http://www.w3.org/2000/svg" width="63.844" height="74.392"><g transform="translate(-10.271 .571)" stroke="#2f3a5a"><path d="M44.773 4.379v29.922H13.402l-.884-3.466s7.99-4.855 8.175-12.486c0 0 8.534-2.4 10.553-8.243 0 .029 10.263-.835 13.525-5.728z" fill="#ebf0f3"/><path d="M41.975 31.224L20.693 18.379s8.534-2.4 10.553-8.243z" fill="#d5d6db"/><path d="M12.518 31.224v9.893a8.738 8.738 0 008.738 8.738h32.916a8.738 8.738 0 008.738-8.738v-9.893z" fill="#e56353"/><path d="M60.613 6.642a3.584 3.584 0 01-.9-.214l-.767.4a1.091 1.091 0 00-.408.349L15.557 67.729a1.149 1.149 0 001.87 1.335v-.005l42.825-60.33 1.048-.544a3.964 3.964 0 01-.689-1.544z" fill="#3a556a"/><path d="M73.432.661a1.224 1.224 0 00-1.651-.515L59.033 6.709l-.048.194 1.243 1.806h.165l12.524-6.447a1.224 1.224 0 00.515-1.601z" fill="#e56353"/><path d="M60.615 69.564a1.154 1.154 0 01-.971-.457L36.79 39.224a1.15 1.15 0 011.825-1.4l22.883 29.9a1.145 1.145 0 01-.207 1.607h-.006a1.086 1.086 0 01-.67.223z" fill="#3a556a"/><circle cx="6.301" cy="6.301" r="6.301" transform="translate(10.771 60.719)" fill="#3a556a"/><path d="M17.072 63.098a3.883 3.883 0 103.883 3.883 3.883 3.883 0 00-3.883-3.883z" fill="#e1e6e9"/><circle cx="6.301" cy="6.301" r="6.301" transform="translate(53.664 60.719)" fill="#3a556a"/><path d="M59.965 63.098a3.883 3.883 0 103.883 3.883 3.883 3.883 0 00-3.883-3.883zM37.703 35a5.126 5.126 0 105.126 5.126A5.127 5.127 0 0037.703 35z" fill="#e1e6e9"/><circle cx="2.893" cy="2.893" r="2.893" transform="translate(34.81 37.233)" fill="#3a556a"/></g></svg>