<svg xmlns="http://www.w3.org/2000/svg" width="66.179" height="60.945"><g transform="translate(-2.324 -4.695)"><rect width="17.886" height="53.387" rx="2.314" transform="rotate(180 24.013 31.147)" fill="#fe7058"/><path d="M48.03 11.119v2.621a2.213 2.213 0 00-2.219-2.21H32.35a2.211 2.211 0 00-2.21 2.21v-2.621a2.211 2.211 0 012.21-2.21h13.46a2.213 2.213 0 012.219 2.21z" fill="#ea6453"/><path d="M30.14 23.474a35.948 35.948 0 0117.9 0V18.52a39.606 39.606 0 00-17.9 0z" fill="#ebf0f3"/><path d="M30.14 23.953a.478.478 0 01-.478-.478v-4.958a.478.478 0 01.383-.469 39.971 39.971 0 0118.081 0 .478.478 0 01.383.469v4.957a.478.478 0 01-.579.468 35.485 35.485 0 00-17.7 0 .493.493 0 01-.091.011zm.478-5.043v3.974a35.547 35.547 0 0116.939 0V18.91a38.661 38.661 0 00-16.939 0z" fill="#323c6b"/><rect width="19.987" height="53.387" rx="2.314" transform="rotate(180 34.012 31.147)" fill="#fcd462"/><path d="M65.81 8.909H50.251a2.211 2.211 0 00-2.209 2.174h15.555a2.214 2.214 0 012.214 2.214v49a2.214 2.214 0 002.213-2.214V11.121a2.214 2.214 0 00-2.214-2.212z" fill="#f7be56"/><path d="M53.996 15.809h8.069v24.115h-8.069z" fill="#ebf0f3"/><path d="M62.065 40.401h-8.069a.478.478 0 01-.478-.478V15.808a.478.478 0 01.478-.478h8.069a.478.478 0 01.478.478v24.115a.478.478 0 01-.478.478zm-7.59-.957h7.112V16.287h-7.112z" fill="#323c6b"/><path d="M48.037 51.355h19.987v4.2H48.037z" fill="#ebf0f3"/><g fill="#323c6b"><path d="M68.024 56.033H48.037a.478.478 0 01-.478-.478v-4.2a.478.478 0 01.478-.478h19.987a.478.478 0 01.478.478v4.2a.478.478 0 01-.478.478zm-19.508-.957h19.03v-3.243h-19.03zm-12.253 1.127a.478.478 0 01-.478-.478l.02-17.5a.478.478 0 11.957 0l-.02 17.5a.478.478 0 01-.478.477zm5.623.031a.478.478 0 01-.478-.478l.021-17.5a.478.478 0 01.957 0l-.02 17.5a.478.478 0 01-.479.478zm23.925 9.406h-8.43a.478.478 0 010-.957h8.43a.478.478 0 010 .957zm-11.12 0h-.9a.478.478 0 010-.957h.9a.478.478 0 010 .957z"/><path d="M65.811 62.77h-15.56a2.694 2.694 0 01-2.691-2.691V11.121a2.694 2.694 0 012.691-2.69h15.56a2.694 2.694 0 012.691 2.69v48.96a2.694 2.694 0 01-2.691 2.689zM50.251 9.388a1.736 1.736 0 00-1.734 1.734v48.959a1.736 1.736 0 001.734 1.732h15.56a1.736 1.736 0 001.734-1.733V11.121a1.736 1.736 0 00-1.734-1.733z"/><path d="M45.813 62.77H32.355a2.7 2.7 0 01-2.693-2.689v-48.96a2.7 2.7 0 012.693-2.69h13.458a2.694 2.694 0 012.695 2.69v48.96a2.694 2.694 0 01-2.695 2.689zM32.355 9.388a1.737 1.737 0 00-1.736 1.733v48.96a1.737 1.737 0 001.736 1.733h13.458a1.736 1.736 0 001.739-1.733v-48.96a1.736 1.736 0 00-1.738-1.733z"/></g><rect width="17.889" height="53.387" rx="2.314" transform="rotate(-168.229 13.23 30.751)" fill="#89c5cd"/><path d="M30.341 13.453l-9.978 47.939a2.216 2.216 0 01-2.621 1.712l-.038-.01 9.94-47.728a2.213 2.213 0 00-1.722-2.612l-13.145-2.735.048-.21a2.216 2.216 0 012.621-1.712l13.181 2.744a2.206 2.206 0 011.712 2.612z" fill="#7cb1b5"/><path d="M9.954 23.617a35.953 35.953 0 0117.52 3.648l1.126-5.407a39.606 39.606 0 00-17.52-3.648z" fill="#ebf0f3"/><path d="M27.47 27.744a.472.472 0 01-.191-.041 35.365 35.365 0 00-17.324-3.607.422.422 0 01-.373-.175.478.478 0 01-.1-.4l1.13-5.411a.467.467 0 01.472-.383 39.972 39.972 0 0117.7 3.686.478.478 0 01.281.538l-1.129 5.409a.478.478 0 01-.468.383zm-16.914-4.606a35.537 35.537 0 0116.567 3.452l.925-4.445a38.676 38.676 0 00-16.585-3.453l-.925 4.445zM9.093 54.525a.5.5 0 01-.106-.011.478.478 0 01-.36-.574l3.594-15.808a.478.478 0 11.933.212L9.561 54.152a.478.478 0 01-.468.373zm5.48 1.273a.5.5 0 01-.106-.012.478.478 0 01-.36-.574l3.6-15.806a.478.478 0 11.933.212l-3.6 15.807a.478.478 0 01-.467.373zM8.766 15.374a.478.478 0 01-.469-.574l.118-.563a.478.478 0 11.937.191l-.118.563a.478.478 0 01-.468.383zm.598-2.874a.457.457 0 01-.108-.012.478.478 0 01-.358-.574l.651-2.8a5.56 5.56 0 016.577-4.305.478.478 0 01-.191.937 4.6 4.6 0 00-5.452 3.573l-.653 2.807a.478.478 0 01-.466.374z" fill="#323c6b"/><path d="M18.2 63.631a2.689 2.689 0 01-.554-.058L4.467 60.831a2.694 2.694 0 01-2.087-3.184l9.978-47.934a2.69 2.69 0 013.182-2.086l13.181 2.743a2.7 2.7 0 012.088 3.185l-9.982 47.933a2.694 2.694 0 01-2.627 2.143zM4.662 59.894l13.176 2.743a1.734 1.734 0 002.053-1.344l9.981-47.929a1.736 1.736 0 00-1.344-2.053L15.346 8.564a1.734 1.734 0 00-2.053 1.344L3.317 57.842a1.736 1.736 0 001.344 2.053z" fill="#323c6b"/><path d="M65.811 51.819h1.734v3.258h-1.734z" fill="#e1e6e9"/><path d="M51.103 46.669a.526.526 0 01-.526-.526v-8.43a.526.526 0 011.052 0v8.43a.526.526 0 01-.526.526zm0-11.335a.526.526 0 01-.526-.526v-.9a.526.526 0 111.052 0v.9a.526.526 0 01-.526.526z" fill="#fff"/></g></svg>