<svg xmlns="http://www.w3.org/2000/svg" width="69.264" height="64.774"><g transform="translate(0 -4.149)"><path d="M26.591 55.78h16.083v8.537H26.591z" fill="#d9e2e9"/><path d="M42.673 64.863H26.591a.541.541 0 01-.541-.541v-8.546a.541.541 0 01.541-.541h16.082a.541.541 0 01.541.541v8.542a.541.541 0 01-.541.541zm-15.541-1.087h15v-7.455h-15z" fill="#2f3a5a"/><rect width="68.182" height="51.09" rx="5.294" transform="translate(.541 4.69)" fill="#d9e2e9"/><path d="M65.858 56.321H3.405A3.409 3.409 0 010 52.916V7.554a3.409 3.409 0 013.405-3.405h62.453a3.409 3.409 0 013.405 3.405v45.362a3.409 3.409 0 01-3.405 3.405zM3.405 5.231a2.327 2.327 0 00-2.323 2.323v45.362a2.327 2.327 0 002.323 2.323h62.453a2.327 2.327 0 002.323-2.323V7.554a2.327 2.327 0 00-2.323-2.323z" fill="#2f3a5a"/><path d="M4.361 8.511h60.54v40.373H4.361z" fill="#9297ab"/><path d="M64.902 8.509v2.07H6.671v38.307H4.36V8.509z" fill="#a7adc1"/><path d="M64.902 8.509v40.377H4.36v-2.407h57.881V8.509z" fill="#84879c"/><path d="M64.902 49.424H4.36a.541.541 0 01-.541-.541V8.51a.541.541 0 01.541-.541H64.9a.541.541 0 01.541.541v40.373a.541.541 0 01-.539.541zm-60-1.082H64.36V9.051H4.903z" fill="#2f3a5a"/><path d="M19.562 64.321h30.141v4.06H19.562z" fill="#d9e2e9"/><path d="M49.702 68.923H19.561a.541.541 0 01-.541-.541v-4.058a.541.541 0 01.541-.541h30.141a.541.541 0 01.541.541v4.058a.541.541 0 01-.541.541zm-29.6-1.082h29.059v-2.976H20.102z" fill="#2f3a5a"/><circle cx="1.144" cy="1.144" r="1.144" transform="translate(33.851 51.139)" fill="#9297ab"/><path d="M34.995 53.967a1.685 1.685 0 111.685-1.685 1.685 1.685 0 01-1.685 1.685zm0-2.288a.6.6 0 10.6.6.6.6 0 00-.6-.6z" fill="#2f3a5a"/></g></svg>