<svg xmlns="http://www.w3.org/2000/svg" width="649.617" height="427.884"><g transform="translate(0 2.228)"><path d="M134.503 184.131c-32.851.151-59.59.637-59.59.637s31.784-42.1 59.471-26.5 59.492 25.955 59.492 25.955-26.522-.243-59.373-.092z" fill="#f2f2f2"/><circle cx="6.881" cy="6.881" r="6.881" transform="translate(495.969 182.879)" fill="#ff6584"/><path fill="#3f3d56" d="M452.476 297.343l51.476-59.076 1.588 1.384-51.476 59.076z"/><circle cx="11.08" cy="11.08" r="11.08" transform="translate(493.643 227.867)" fill="#02ffb3"/><path d="M473.01 275.362s21.163-26.713-5.905-45.038" fill="#01ffc6"/><path d="M127.675 322.268c38.113 70.682 119 101.025 119 101.025s19.1-84.256-19.017-154.939-119-101.025-119-101.025-19.096 84.257 19.017 154.939z" fill="#171144"/><path d="M153.872 299.014c68.81 41.4 95.31 123.627 95.31 123.627s-85.062 15.108-153.872-26.29S0 272.725 0 272.725s85.062-15.11 153.872 26.289z" fill="#ebd6f2"/><path d="M427.653 299.6c-69.173 40.788-96.4 122.778-96.4 122.778s84.922 15.861 154.098-24.928 96.4-122.778 96.4-122.778-84.926-15.861-154.098 24.928z" fill="#171144"/><path d="M451.891 324.887C413.155 395.226 332 424.856 332 424.856s-18.355-84.423 20.387-154.765 119.891-99.965 119.891-99.965 18.35 84.418-20.387 154.761z" fill="#dbc5ec"/><path d="M311.315 131.281a21.5 21.5 0 01-2.671-28.984 21.69 21.69 0 00-1.261 1.275 21.501 21.501 0 0031.9 28.838c.4-.448.782-.911 1.142-1.383a21.5 21.5 0 01-29.11.254z" fill="#2f2e41"/><circle cx="44.279" cy="44.279" r="44.279" transform="translate(247.561 57.982)" fill="#2f2e41"/><path d="M279.677 159.155l1.312-3.412-23.882 20.208-28.868 16.271s-14.7-56.686-15.746-57.735-19.945-40.94-28.343-22.044 16.271 29.917 16.271 29.917.787 69.02 25.981 68.5 56.423-23.357 56.948-25.456-3.673-26.249-3.673-26.249z" fill="#ffb8b8"/><circle cx="26.243" cy="26.243" r="26.243" transform="translate(260.257 95.121)" fill="#ffb8b8"/><path d="M291.749 140.26s6.823 8.923 4.724 9.972-14.172 1.575-21.52 10.5 8.923 31.492 8.923 31.492l61.934-41.464-25.194-8.4s-17.32-9.448-16.8-19.42z" fill="#ffb8b8"/><path d="M375.348 425.657h-69.93c-3.961-28.963-5.793-55.505-5.793-55.505s-1.022 26.7-3.741 55.505h-89.843c12.735-85.3 73.11-177.8 73.11-177.8s.525-12.6 2.1-14.7-8.923-2.619-13.651-18.364c-2.882-9.612-.291-15.9 2.172-19.337a13.9 13.9 0 013.081-3.237s1.051-11.017 0-12.593c-.135-.206.9-.93 2.818-2.03 1.6-.923 3.8-2.108 6.446-3.471 15.128-7.844 44.41-21.722 54.441-26.45 2.2-1.043 3.478-1.64 3.478-1.64l17.846 6.3c14.169 4.721 14.169 34.642 14.169 34.642l-.8 1.221-21.417 32.441-12.423 18.826c3.152 2.094-3.145 15.22-3.145 15.22a159.6 159.6 0 0116.27 32.569 148.131 148.131 0 018.384 33.968 116.194 116.194 0 01.54 22.688c-1.945 25.283 6.701 56.014 15.888 81.747z" fill="#8399fe"/><path d="M358.136 155.426a4.585 4.585 0 00-6.564 2.455c-1.58 4.346-3.182 13.405-2.611 32.242 1.05 34.641 1.574 58.26 1.574 58.26v52.49s-23.094 50.387-10.5 50.387 21.519-39.89 21.519-39.89 11.547-60.36 7.873-70.857c.003-.003 10.362-72.523-11.291-85.087z" fill="#ffb8b8"/><ellipse cx="22.524" cy="15.357" rx="22.524" ry="15.357" transform="translate(260.896 82.721)" fill="#2f2e41"/><circle cx="21.5" cy="21.5" r="21.5" transform="translate(297.688 43.033)" fill="#2f2e41"/><path d="M334.545 79.889a21.5 21.5 0 01-21.42-19.705c-.049.588-.08 1.185-.08 1.789a21.5 21.5 0 0043 0c0-.6-.031-1.2-.08-1.792a21.5 21.5 0 01-21.42 19.708z" fill="#2f2e41"/><ellipse cx="1.837" cy="4.199" rx="1.837" ry="4.199" transform="rotate(-13.41 617.778 -1256.708)" fill="#ffb8b8"/><circle cx="1.05" cy="1.05" r="1.05" transform="translate(310.907 114.279)" fill="#f2f2f2"/><path d="M62.412 205.238a8.519 8.519 0 118.519-8.519 8.519 8.519 0 01-8.519 8.519zm0-15.617a7.1 7.1 0 107.1 7.1 7.1 7.1 0 00-7.1-7.1z" fill="#02ffb3"/><path d="M590.244 242.341c-32.851.151-59.59.637-59.59.637s31.784-42.1 59.471-26.5 59.492 25.955 59.492 25.955-26.525-.243-59.373-.092zM489.442 100.365c-32.851.151-59.59.637-59.59.637s31.784-42.1 59.471-26.5 59.492 25.955 59.492 25.955-26.522-.243-59.373-.092zm-311.385 18.177l-75.961-39.06a10.561 10.561 0 01-4.563-14.222l17.895-34.8a4.185 4.185 0 012.55-2.1l59.872-17.458a9.741 9.741 0 0111.92 6.129l19.672 56.114a10.937 10.937 0 01-.595 8.619l-16.573 32.215a10.561 10.561 0 01-14.222 4.563z" fill="#f2f2f2"/><path d="M181.074 104.748l-76.7-32.744c-2.471-1.271-.154.683 1.117-1.789l9.642-39.187 93.956 48.314-23.753 29.37c-1.27 2.471-1.791-2.693-4.262-3.964z" opacity=".1"/><rect width="78.572" height="78.572" rx="8.186" transform="rotate(-62.787 116.83 -48.93)" fill="#6c63ff"/><path d="M196.539 74.874l-19.747 38.4-69.875-35.931 19.747-38.4 26.255 34.852z" opacity=".1"/><path d="M151.802 75.965l-33.64-44.656a2.042 2.042 0 00-3.448.295L95.571 68.831a6.377 6.377 0 002.755 8.588l83.4 42.887a6.377 6.377 0 008.588-2.755l18.815-36.589a2.492 2.492 0 00-2.155-3.631z" fill="#f67efd"/><path fill="#f2f2f2" d="M145.568 16.979l19.542 10.049-1.421 2.763-19.542-10.049zm-6.756 9.255l58.032 29.841-.812 1.58L138 27.813zm-2.741 5.329l58.032 29.841-.812 1.58-58.032-29.842zm-2.74 5.329l58.032 29.841-.812 1.58-58.032-29.842z"/><ellipse cx="9.117" cy="9.1" rx="9.117" ry="9.1" transform="rotate(-62.787 77.902 -101.883)" fill="#fff"/><path d="M150.021.551a10.876 10.876 0 104.7 14.646 10.876 10.876 0 00-4.7-14.646zm-9.611 13.808l-2.408-7.506 2.105-.675 1.735 5.408 11.414-3.662.675 2.105-13.521 4.33z" fill="#57b894"/></g></svg>