<svg xmlns="http://www.w3.org/2000/svg" width="84.001" height="57.097"><path d="M75.096 44.074h5.253l3.044 9.855a15.163 15.163 0 01-11.337 0z" fill="#fcd462"/><path d="M77.723 55.634a16.182 16.182 0 01-5.889-1.137.609.609 0 01-.365-.748l3.044-9.855a.609.609 0 01.582-.43h5.254a.609.609 0 01.581.43l3.044 9.855a.609.609 0 01-.365.748 16.177 16.177 0 01-5.885 1.137zm-4.917-2.07a14.558 14.558 0 009.834 0l-2.74-8.876h-4.354z" fill="#323c6b"/><path d="M78.068 39.676h-.689a2.451 2.451 0 00-2.283 2.589v1.809h5.253v-1.809a2.451 2.451 0 00-2.281-2.589z" fill="#fcd462"/><path d="M80.349 44.682h-5.247a.609.609 0 01-.609-.609v-1.807a3.061 3.061 0 012.89-3.2h.689a3.061 3.061 0 012.89 3.2v1.807a.609.609 0 01-.613.609zm-4.647-1.218h4.036v-1.2a1.849 1.849 0 00-1.674-1.982h-.688a1.849 1.849 0 00-1.674 1.984zm2.021 12.174a.609.609 0 01-.609-.609v-6.274a.609.609 0 011.217 0v6.271a.609.609 0 01-.609.612z" fill="#323c6b"/><path d="M68.182 23.51l.212 20.072a4.92 4.92 0 01-3.2 4.649 70.687 70.687 0 01-51-.024 4.922 4.922 0 01-3.2-4.556l-.221-19.885" fill="#9297ab"/><path d="M68.182 23.51l-3.018.013.186 17.323a4.92 4.92 0 01-3.2 4.649 70.662 70.662 0 01-50.74.067 4.924 4.924 0 002.783 2.648 70.687 70.687 0 0051 .024 4.92 4.92 0 003.2-4.649z" fill="#84879c"/><path d="M33.332 57.088h-.061a88.019 88.019 0 01-12.931-2.465.609.609 0 11.315-1.176 86.737 86.737 0 0012.738 2.435.61.61 0 11-.061 1.217zm-16.107-3.402a.638.638 0 01-.183-.027l-.651-.208a.609.609 0 11.374-1.159l.643.2a.609.609 0 01-.183 1.189z" fill="#323c6b"/><path d="M68.02 23.509l10.327-4.807L39.477.607.607 18.702l38.87 18.094z" fill="#84879c"/><g fill="#323c6b"><path d="M39.478 37.405a.609.609 0 01-.257-.056l-38.87-18.1a.609.609 0 010-1.1L39.221.057a.609.609 0 01.514 0l38.869 18.09a.609.609 0 010 1.1l-38.87 18.1a.609.609 0 01-.257.056zM2.049 18.702l37.429 17.424 28.285-13.168.257.551-.257-.551 9.143-4.261L39.478 1.275z"/><path d="M77.722 40.284a.609.609 0 01-.59-.465l-4.4-18.193-14.84-2.323a.609.609 0 01.189-1.2l15.241 2.385a.609.609 0 01.5.458l4.5 18.589a.609.609 0 01-.448.73.6.6 0 01-.151.022zM13.574 9.246a.609.609 0 01-.257-1.16l9.664-4.5a.609.609 0 11.513 1.1l-9.663 4.5a.6.6 0 01-.257.057zm12.859-5.985a.609.609 0 01-.258-1.161l.7-.327a.609.609 0 11.515 1.1l-.7.327a.621.621 0 01-.257.057z"/><path d="M39.722 53.566a73.13 73.13 0 01-25.745-4.789 5.562 5.562 0 01-3.6-5.121l-.212-19.885a.609.609 0 01.6-.616h.007a.609.609 0 01.609.609l.213 19.873a4.338 4.338 0 002.81 3.993 70.4 70.4 0 0050.573.023 4.317 4.317 0 002.809-4.072l-.212-20.064a.609.609 0 01.6-.616h.006a.609.609 0 01.609.609l.212 20.072a5.539 5.539 0 01-3.6 5.225 73.133 73.133 0 01-25.68 4.759z"/></g><path d="M31.355 29.083a.786.786 0 01-.347-.08l-9.217-4.514a.792.792 0 11.7-1.422l9.221 4.514a.791.791 0 01-.349 1.5zm-12.738-6.238a.786.786 0 01-.347-.08l-.7-.341a.792.792 0 01.7-1.422l.7.341a.791.791 0 01-.348 1.5z" fill="#fff"/></svg>