<svg xmlns="http://www.w3.org/2000/svg" width="73.819" height="63.256"><g transform="translate(-.589 -5.048)"><rect width="70.435" height="56.004" rx="4.063" transform="translate(3.455 8.673)" fill="#9297ab"/><path d="M73.894 12.88v47.585a4.221 4.221 0 01-3.232 4.1 1.894 1.894 0 00.021-.342V16.64a4.211 4.211 0 00-4.205-4.215H4.464a4.339 4.339 0 00-.984.114 4.193 4.193 0 014.185-3.864h62.013a4.211 4.211 0 014.216 4.205z" fill="#84879c"/><circle cx="22.161" cy="22.161" r="22.161" transform="translate(7.832 14.514)" fill="#eeefee"/><path d="M29.993 59.355a22.684 22.684 0 1122.684-22.684 22.684 22.684 0 01-22.684 22.684zm0-44.322a21.648 21.648 0 1021.649 21.649 21.648 21.648 0 00-21.649-21.649z" fill="#323c6b"/><circle cx="5.476" cy="5.476" r="5.476" transform="translate(24.517 31.199)" fill="#9297ab"/><path d="M29.993 42.669a5.994 5.994 0 115.994-5.994 5.994 5.994 0 01-5.994 5.994zm0-10.952a4.958 4.958 0 104.958 4.958 4.958 4.958 0 00-4.958-4.958z" fill="#323c6b"/><path d="M59.564 53.182l-5.157-20.688a1.9 1.9 0 00-1.488-1.393l-10.783-2 .569-3.055 10.786 2.005a5.017 5.017 0 013.927 3.675l5.466 21.461z" fill="#bbbbcd"/><path d="M62.884 53.7h-3.32a.518.518 0 01-.5-.393l-5.158-20.688a1.38 1.38 0 00-1.081-1.011l-10.787-2a.518.518 0 01-.414-.6l.569-3.055a.518.518 0 01.6-.414l10.787 2a5.536 5.536 0 014.338 4.055l5.466 21.461a.518.518 0 01-.5.646zm-2.915-1.036h2.249l-5.3-20.814a4.5 4.5 0 00-3.522-3.294l-10.278-1.909-.379 2.036 10.275 1.909a2.421 2.421 0 011.9 1.773zm4.987-6.322a.518.518 0 01-.518-.518V16.581a.518.518 0 111.036 0v29.243a.518.518 0 01-.518.518z" fill="#323c6b"/><path d="M67.749 22.377h-5.584a.518.518 0 010-1.036h5.584a.518.518 0 110 1.036z" fill="#323c6b"/><circle cx="2.816" cy="2.816" r="2.816" transform="translate(27.177 33.859)" fill="#fff"/><path d="M29.993 40.009a3.334 3.334 0 113.339-3.331 3.334 3.334 0 01-3.338 3.332zm0-5.632a2.3 2.3 0 102.3 2.3 2.3 2.3 0 00-2.3-2.3z" fill="#323c6b"/><rect width="8.118" height="4.948" rx="2.389" transform="rotate(5.106 -258.918 432.102)" fill="#9297ab"/><path d="M42.848 30.699a1.976 1.976 0 01-.27-.012l-3.156-.281a2.992 2.992 0 11.529-5.961l3.156.281a2.992 2.992 0 01-.259 5.972zm-3.161-5.229a1.957 1.957 0 00-.172 3.9l3.156.281a1.958 1.958 0 10.347-3.9l-3.161-.282-.17.001z" fill="#323c6b"/><rect width="11.596" height="6.345" rx="1.25" transform="translate(55.59 52.796)" fill="#e1e6e9"/><g fill="#323c6b"><path d="M65.892 59.658h-9.009a1.815 1.815 0 01-1.813-1.813v-3.75a1.815 1.815 0 011.813-1.813h9.012a1.815 1.815 0 011.813 1.813v3.755a1.815 1.815 0 01-1.816 1.808zm-9.009-6.344a.778.778 0 00-.777.777v3.755a.778.778 0 00.777.776h9.012a.778.778 0 00.777-.777v-3.75a.778.778 0 00-.777-.777zm-18.728-.143a.518.518 0 01-.236-.979 17.505 17.505 0 008.16-8.812.518.518 0 11.955.4 18.541 18.541 0 01-8.644 9.333.51.51 0 01-.235.057zM12.719 32.36a.518.518 0 01-.5-.657 18.613 18.613 0 0110.72-12.088.519.519 0 11.4.957 17.569 17.569 0 00-10.124 11.409.518.518 0 01-.5.379z"/><path d="M69.681 65.196H7.663a4.732 4.732 0 01-4.725-4.726V12.882a4.732 4.732 0 014.725-4.727h62.018a4.733 4.733 0 014.726 4.726v47.587a4.733 4.733 0 01-4.726 4.728zM7.663 9.191a3.7 3.7 0 00-3.69 3.691v47.586a3.7 3.7 0 003.691 3.691h62.017a3.7 3.7 0 003.691-3.691V12.882a3.7 3.7 0 00-3.691-3.69z"/></g><path d="M10.488 61.585a4.888 4.888 0 01-4.883-4.882v-3.522a.673.673 0 111.347 0v3.522a3.539 3.539 0 003.535 3.538.673.673 0 010 1.347zM6.279 50.932a.673.673 0 01-.673-.673v-.712a.673.673 0 111.347 0v.716a.673.673 0 01-.673.669z" fill="#fff"/><path d="M58.934 68.304H47.799a.518.518 0 010-1.036h11.135a.518.518 0 110 1.036zm-15.192 0h-1.468a.518.518 0 010-1.036h1.468a.518.518 0 110 1.036zM1.106 10.177a.518.518 0 01-.464-.747 7.791 7.791 0 017.022-4.381h2.414a.518.518 0 010 1.036H7.664a6.761 6.761 0 00-6.094 3.8.518.518 0 01-.464.289zm12.921-4.093h-1.165a.518.518 0 010-1.036h1.165a.518.518 0 010 1.036z" fill="#323c6b"/></g></svg>