<svg xmlns="http://www.w3.org/2000/svg" width="46.377" height="61.928"><g transform="translate(-11.241 -2.5)"><path d="M47.157 63.98h-24.16a3.739 3.739 0 01-3.708-3.263l-4.083-34.133h39.741l-4.082 34.132a3.739 3.739 0 01-3.708 3.264z" fill="#fe7058"/><path d="M51.721 26.584l-3.725 31.143a3.739 3.739 0 01-3.708 3.263H20.129a3.72 3.72 0 01-.8-.1 3.731 3.731 0 003.669 3.084h24.16a3.739 3.739 0 003.708-3.263l4.083-34.132z" fill="#ea6453"/><path d="M15.055 26.584h39.892a2.7 2.7 0 002.209-2.525c.18-2.513-1.926-3.833-3.91-3.854a4.811 4.811 0 001.257-3.278 4.471 4.471 0 00-4.293-4.628 4.107 4.107 0 00-1.564.314 1.7 1.7 0 00.02-.314 3.656 3.656 0 00-3.507-3.78 3.411 3.411 0 00-2.408 1.03 5.174 5.174 0 00-4.953-4.241 4.646 4.646 0 00-2.351.628 5.054 5.054 0 00-4.526-2.987A5.184 5.184 0 0025.958 7.2a3.3 3.3 0 00-2.4-1.037 3.648 3.648 0 00-3.5 3.78 1.82 1.82 0 00.02.325 3.926 3.926 0 00-1.563-.319 4.471 4.471 0 00-4.293 4.628 4.791 4.791 0 001.257 3.272 4.344 4.344 0 00-3.662 4.409 4.357 4.357 0 003.238 4.325z" fill="#fcd462"/><path d="M21.634 8.632a5.78 5.78 0 013.167 1.469 5.535 5.535 0 011.536-2.8 6.381 6.381 0 00-2.782-1.134 3.55 3.55 0 00-3.367 2.81 3.252 3.252 0 011.446-.345zm-5.045 3.78a7.6 7.6 0 013.089.582 1.815 1.815 0 01-.02-.325 3.929 3.929 0 01.833-2.423c-.15-.018-1.823-.3-1.975-.3a4.319 4.319 0 00-4.031 3.087 4.855 4.855 0 012.1-.617zm36.654 7.793a4.811 4.811 0 001.257-3.278 4.471 4.471 0 00-4.293-4.628 4.107 4.107 0 00-1.563.314 1.705 1.705 0 00.02-.314 3.656 3.656 0 00-3.507-3.78 3.411 3.411 0 00-2.4 1.027 5.174 5.174 0 00-4.953-4.241 4.646 4.646 0 00-2.351.628 4.945 4.945 0 00-9.23.39 4.8 4.8 0 012.782-.906 5.054 5.054 0 014.526 2.984 4.646 4.646 0 012.351-.628 5.174 5.174 0 014.951 4.241 3.411 3.411 0 012.4-1.026 3.656 3.656 0 013.507 3.78 1.7 1.7 0 01-.02.314 4.107 4.107 0 011.563-.314 4.471 4.471 0 014.293 4.628 4.811 4.811 0 01-1.257 3.278c1.983.021 4.083 1.335 3.91 3.845a2.767 2.767 0 001.924-2.459c.178-2.517-1.926-3.834-3.91-3.855z" fill="#e1e6e9"/><path d="M26.601 14.292a.449.449 0 01-.269-.09 2.043 2.043 0 00-2.415 0 .449.449 0 01-.539-.718 2.927 2.927 0 013.5 0 .449.449 0 01-.269.808zm8.92-3.097a.449.449 0 01-.269-.09 2.044 2.044 0 00-2.415 0 .449.449 0 11-.539-.718 2.927 2.927 0 013.5 0 .449.449 0 01-.269.808zm8.447 4.519a.449.449 0 01-.269-.09 2.059 2.059 0 00-2.413 0 .449.449 0 01-.539-.718 2.925 2.925 0 013.5 0 .449.449 0 01-.269.808zM34.36 20.3a.449.449 0 01-.269-.09 2.059 2.059 0 00-2.413 0 .449.449 0 11-.539-.718 2.926 2.926 0 013.5 0 .449.449 0 01-.269.808zm-9.758 1.692a.449.449 0 01-.269-.09 2.064 2.064 0 00-2.413 0 .449.449 0 11-.539-.718 2.926 2.926 0 013.5 0 .449.449 0 01-.269.808zm21.913 0a.449.449 0 01-.269-.09 2.043 2.043 0 00-2.415 0 .449.449 0 11-.539-.718 2.926 2.926 0 013.5 0 .449.449 0 01-.269.808z" fill="#323c6b"/><rect width="22.863" height="10.076" rx="2.313" transform="translate(23.646 39.915)" fill="#eeefee"/><g fill="#323c6b"><path d="M44.435 50.44H25.723a2.527 2.527 0 01-2.525-2.526v-5.923a2.527 2.527 0 012.525-2.525h18.712a2.527 2.527 0 012.525 2.525v5.924a2.527 2.527 0 01-2.525 2.525zM25.723 40.364a1.629 1.629 0 00-1.627 1.626v5.924a1.629 1.629 0 001.627 1.627h18.712a1.629 1.629 0 001.627-1.627v-5.923a1.629 1.629 0 00-1.627-1.627z"/><path d="M27.287 64.428a.449.449 0 01-.449-.416l-1-13.992a.451.451 0 11.9-.064l.996 13.991a.449.449 0 01-.416.479zm15.574 0h-.033a.449.449 0 01-.416-.479l1.005-13.992a.451.451 0 01.9.064l-1.008 13.991a.449.449 0 01-.448.416zm1.731-24.054h-.033a.449.449 0 01-.416-.479l.959-13.346a.451.451 0 11.9.064l-.959 13.345a.449.449 0 01-.449.416zm-9.514 24.054a.449.449 0 01-.449-.449V49.987a.45.45 0 11.9 0v13.992a.449.449 0 01-.451.449zm0-24.063a.449.449 0 01-.449-.449V26.58a.45.45 0 11.9 0v13.337a.449.449 0 01-.451.448z"/><path d="M47.158 64.428H22.999a4.2 4.2 0 01-4.154-3.655l-4.083-34.135a.449.449 0 01.449-.5h39.741a.449.449 0 01.449.5L51.318 60.77a4.2 4.2 0 01-4.16 3.658zm-31.445-37.4l4.018 33.626a3.3 3.3 0 003.268 2.877h24.159a3.3 3.3 0 003.263-2.872l4.022-33.627z"/><path d="M15.056 27.032a.449.449 0 01-.1-.012 4.97 4.97 0 01-.277-9.459 5.3 5.3 0 01-.9-2.99 4.924 4.924 0 014.742-5.077 4.371 4.371 0 011.106.142 4.075 4.075 0 013.936-3.922 3.711 3.711 0 012.154.684 5.535 5.535 0 015.206-3.9 5.428 5.428 0 014.717 2.828 5.14 5.14 0 012.159-.472 5.528 5.528 0 015.206 3.9 3.764 3.764 0 012.15-.684 4.08 4.08 0 013.949 3.919 4.471 4.471 0 011.106-.14 4.924 4.924 0 014.742 5.077 5.308 5.308 0 01-.847 2.91 4.554 4.554 0 012.524 1.331 3.8 3.8 0 01.974 2.92 3.131 3.131 0 01-2.6 2.939zm.053-.9h39.84a2.26 2.26 0 001.759-2.076 2.911 2.911 0 00-.737-2.281 3.8 3.8 0 00-2.728-1.125.449.449 0 01-.324-.754 4.346 4.346 0 001.133-2.973 4.027 4.027 0 00-3.844-4.18 3.665 3.665 0 00-1.394.281.449.449 0 01-.612-.5 1.226 1.226 0 00.013-.233 3.207 3.207 0 00-3.059-3.323 2.954 2.954 0 00-2.082.9.449.449 0 01-.756-.225 4.7 4.7 0 00-4.514-3.885 4.218 4.218 0 00-2.124.567.442.442 0 01-.359.041.449.449 0 01-.269-.237 4.577 4.577 0 00-4.13-2.729 4.708 4.708 0 00-4.524 3.9.449.449 0 01-.764.217 2.853 2.853 0 00-2.075-.9 3.2 3.2 0 00-3.052 3.332 1.338 1.338 0 00.013.243.449.449 0 01-.619.493 3.478 3.478 0 00-1.386-.288 4.027 4.027 0 00-3.844 4.18 4.34 4.34 0 001.134 2.973.449.449 0 01-.275.75 3.884 3.884 0 00-3.268 3.963 3.938 3.938 0 002.847 3.877zm38.969 30.854a.449.449 0 01-.449-.5l.817-6.831a.455.455 0 01.5-.392.449.449 0 01.392.5l-.817 6.831a.449.449 0 01-.443.392zm1.051-8.788a.449.449 0 01-.449-.5l.072-.6a.454.454 0 01.5-.392.449.449 0 01.392.5l-.072.6a.449.449 0 01-.443.392zm-43.44-34.72a.46.46 0 01-.09-.009.449.449 0 01-.349-.53 7.709 7.709 0 014.859-5.711.449.449 0 01.3.845 6.808 6.808 0 00-4.284 5.047.449.449 0 01-.437.358zm7.039-7.108a.449.449 0 01-.359-.718 6.052 6.052 0 01.4-.476.449.449 0 11.655.613q-.18.195-.345.407a.449.449 0 01-.351.174z"/></g><path d="M27.904 29.717a.7.7 0 01-.685.7h-7.56a.609.609 0 01-.258-.057.663.663 0 01-.436-.628.618.618 0 01.2-.48.688.688 0 01.48-.218h7.569a.711.711 0 01.694.681zm2.339.009a.687.687 0 01-.685.694h-.09a.646.646 0 01-.258-.062.673.673 0 01-.435-.622.687.687 0 01.676-.7h.09a.718.718 0 01.7.693z" fill="#fff"/><path d="M25.564 40.374a.449.449 0 01-.449-.416l-.96-13.346a.451.451 0 11.9-.065l.96 13.346a.449.449 0 01-.416.48z" fill="#323c6b"/></g></svg>