<svg xmlns="http://www.w3.org/2000/svg" width="51.503" height="55.845"><g transform="translate(-4.976)"><path d="M5.412 10.861v34.154c0 5.552 8.036 10.052 17.949 10.052s17.949-4.5 17.949-10.054V10.861z" fill="#ffc943"/><path d="M25.187 13.339h-1.824v39.557a5.41 5.41 0 00.288 2.4c.4.175 1.232-.242 1.662-.085zm-3.352-.151v-2.266H16.41V54.28a29.392 29.392 0 004.486.692 5.873 5.873 0 01-.448-2.228V13.188z" fill="#f0f5f9" opacity=".45"/><ellipse cx="17.949" cy="10.053" rx="17.949" ry="10.053" transform="translate(5.412 .436)" fill="#ffc943"/><g fill="#2f3a5a"><path d="M23.362 20.981c-10.138 0-18.386-4.707-18.386-10.49S13.224 0 23.362 0s18.385 4.707 18.385 10.491-8.247 10.49-18.385 10.49zm0-20.108C13.7.873 5.849 5.188 5.849 10.491s7.856 9.617 17.513 9.617 17.513-4.314 17.513-9.617S33.018.873 23.362.873z"/><path d="M23.362 10.928c-2.487 0-4.434-1.175-4.434-2.675s1.948-2.675 4.434-2.675 4.434 1.175 4.434 2.675a.436.436 0 11-.873 0c0-.853-1.462-1.8-3.561-1.8s-3.561.95-3.561 1.8 1.462 1.8 3.561 1.8a.436.436 0 110 .873z"/><path d="M23.362 15.409c-2.487 0-4.434-1.175-4.434-2.675a.436.436 0 11.873 0c0 .853 1.462 1.8 3.561 1.8s3.561-.95 3.561-1.8-1.462-1.8-3.561-1.8a.436.436 0 110-.873c2.487 0 4.434 1.175 4.434 2.675s-1.948 2.673-4.434 2.673z"/><path d="M23.361 16.685a.436.436 0 01-.436-.436V4.905a.436.436 0 11.873 0v11.344a.436.436 0 01-.437.436z"/></g><path d="M13.186 4.317A9.72 9.72 0 007.84 8.801c-.1.2.121.414.486.467a1.2 1.2 0 00.175.013.735.735 0 00.66-.285 8.772 8.772 0 014.818-4.057c.305-.123.379-.361.16-.533a1.065 1.065 0 00-.952-.089zm3.973-.761a.831.831 0 00-.837-.27c-.044.007-.448.069-1.075.228-.344.087-.5.314-.341.506a.826.826 0 00.623.225 1.155 1.155 0 00.281-.034c.528-.134.867-.186.87-.187.36-.054.575-.264.479-.468z" fill="#fff"/><g fill="#2f3a5a"><path d="M23.362 55.504c-.807 0-1.648-.033-2.5-.1a27.145 27.145 0 01-8.669-2.053c-4.587-1.989-7.218-5.029-7.218-8.339h.873c0 2.947 2.44 5.694 6.694 7.539a26.264 26.264 0 008.388 1.99c.829.063 1.647.1 2.432.1 9.657 0 17.513-4.314 17.513-9.617h.873c0 5.783-8.248 10.489-18.386 10.489z"/><path d="M23.362 48.486c-10.138 0-18.386-4.706-18.386-10.49h.873c0 5.3 7.856 9.617 17.513 9.617s17.513-4.314 17.513-9.617h.873c0 5.784-8.248 10.49-18.386 10.49z"/><path d="M23.362 41.472c-10.138 0-18.386-4.706-18.386-10.49h.873c0 5.3 7.856 9.617 17.513 9.617s17.513-4.314 17.513-9.617h.873c0 5.784-8.248 10.49-18.386 10.49z"/><path d="M23.362 34.455c-10.138 0-18.386-4.706-18.386-10.49h.873c0 5.3 7.856 9.617 17.513 9.617s17.513-4.314 17.513-9.617h.873c0 5.784-8.248 10.49-18.386 10.49z"/><path d="M23.362 27.439c-10.138 0-18.386-4.708-18.386-10.49h.873c0 5.3 7.856 9.617 17.513 9.617s17.513-4.315 17.513-9.617h.873c0 5.782-8.248 10.49-18.385 10.49z"/><path d="M41.31 45.449a.436.436 0 01-.436-.44V10.491a.436.436 0 11.873 0v34.518a.436.436 0 01-.437.44zm-35.898 0a.436.436 0 01-.436-.44V10.491a.436.436 0 01.873 0v34.518a.436.436 0 01-.437.44z"/></g><circle cx="12.415" cy="12.415" r="12.415" transform="translate(31.214 30.58)" fill="#ffc943"/><path d="M43.628 55.845a12.851 12.851 0 1112.851-12.851 12.851 12.851 0 01-12.851 12.851zm0-24.829a11.978 11.978 0 1011.978 11.978 11.978 11.978 0 00-11.978-11.978z" fill="#2f3a5a"/><path d="M43.628 43.43a3.2 3.2 0 113.2-3.2.436.436 0 01-.873 0 2.328 2.328 0 10-2.327 2.327.436.436 0 110 .873z" fill="#2f3a5a"/><path d="M43.628 48.96a3.2 3.2 0 01-3.2-3.2.436.436 0 01.873 0 2.328 2.328 0 102.328-2.328.436.436 0 010-.873 3.2 3.2 0 110 6.4z" fill="#2f3a5a"/><path d="M43.628 50.476a.436.436 0 01-.436-.436V36.094a.436.436 0 11.873 0V50.04a.436.436 0 01-.437.436z" fill="#2f3a5a"/><path d="M37.611 34.432a9.639 9.639 0 00-3.7 5.536.472.472 0 00.913.241 8.707 8.707 0 013.332-5.009.472.472 0 00-.548-.769zm2.746-.776a.472.472 0 00-.579-.333 5.332 5.332 0 00-.742.282.472.472 0 00.386.862 4.643 4.643 0 01.6-.231.472.472 0 00.332-.58zm-7.248-15.957l-1.29-2.359-1.287 2.359-2.359 1.29 2.359 1.291 1.29 2.359 1.29-2.359 2.359-1.29z" fill="#fff"/><path d="M31.818 23.074a.436.436 0 01-.383-.227L30.206 20.6l-2.246-1.229a.436.436 0 010-.766l2.247-1.229 1.229-2.247a.436.436 0 01.765 0l1.231 2.247 2.247 1.229a.436.436 0 010 .766L33.432 20.6l-1.228 2.244a.436.436 0 01-.386.227zm-2.74-4.085l1.658.907a.436.436 0 01.175.175l.907 1.658.907-1.658a.436.436 0 01.175-.175l1.658-.907-1.662-.908a.436.436 0 01-.175-.175l-.903-1.662-.907 1.658a.436.436 0 01-.175.175z" fill="#2f3a5a"/><path d="M51.996 32.016l-1.29-2.359-1.291 2.359-2.359 1.291 2.359 1.29 1.291 2.359 1.29-2.359 2.359-1.29z" fill="#fff"/><path d="M50.706 37.39a.436.436 0 01-.383-.227l-1.231-2.247-2.247-1.229a.436.436 0 010-.766l2.247-1.229 1.229-2.247a.454.454 0 01.766 0l1.229 2.247 2.247 1.229a.436.436 0 010 .766l-2.247 1.229-1.224 2.247a.436.436 0 01-.383.227zm-2.74-4.085l1.658.907a.436.436 0 01.175.175l.907 1.658.907-1.658a.436.436 0 01.175-.175l1.658-.907-1.658-.907a.436.436 0 01-.175-.175l-.907-1.658-.908 1.66a.436.436 0 01-.175.175z" fill="#2f3a5a"/></g></svg>