<svg xmlns="http://www.w3.org/2000/svg" width="63.396" height="69"><g transform="translate(-5.2 .001)"><path d="M56.81 4.863a7.767 7.767 0 00-10.406-3.516c-3.845 1.9-12.1 9.865-10.2 13.712s13.244 2.112 17.089.21A7.767 7.767 0 0056.81 4.863z" fill="#d9e2e9"/><path d="M53.296 15.271c-3.845 1.9-15.187 3.636-17.095-.21a.634.634 0 01-.067-.164 27.135 27.135 0 0013.459-1.848A7.781 7.781 0 0051.852.808a7.763 7.763 0 011.444 14.461z" fill="#c1cdd3"/><path d="M42.797 17.893c-3.253 0-6.132-.692-7.074-2.595-1.2-2.419.98-5.78 3.019-8.174A27.715 27.715 0 0146.165.862a8.306 8.306 0 117.367 14.889 27.977 27.977 0 01-10.735 2.142zm7.045-16.815a7.2 7.2 0 00-3.2.755 26.681 26.681 0 00-7.084 5.991c-2.546 2.99-3.592 5.54-2.872 7 1.682 3.4 12.681 1.79 16.367-.035a7.23 7.23 0 00-3.211-13.711z" fill="#2f3a5a"/><path d="M15.842 4.863a7.767 7.767 0 0110.406-3.515c3.845 1.9 12.1 9.865 10.2 13.712s-13.244 2.112-17.089.21a7.767 7.767 0 01-3.517-10.407z" fill="#d9e2e9"/><path d="M19.355 15.271c3.845 1.9 15.187 3.636 17.095-.21a.634.634 0 00.067-.164 27.135 27.135 0 01-13.459-1.848A7.781 7.781 0 0120.8.808a7.763 7.763 0 00-1.444 14.461z" fill="#c1cdd3"/><path d="M29.857 17.897a27.983 27.983 0 01-10.738-2.145A8.307 8.307 0 0126.487.862c4.1 2.027 12.533 10.213 10.444 14.436-.942 1.9-3.821 2.6-7.074 2.6zm-13.532-12.8a7.237 7.237 0 003.273 9.684c3.686 1.824 14.685 3.432 16.367.035s-6.27-11.163-9.957-12.987a7.237 7.237 0 00-9.684 3.268z" fill="#2f3a5a"/><circle cx="6.754" cy="6.754" r="6.754" transform="translate(30.178 6.23)" fill="#d9e2e9"/><path d="M36.932 20.277a7.293 7.293 0 117.294-7.293 7.293 7.293 0 01-7.294 7.293zm0-13.509a6.215 6.215 0 106.216 6.215 6.215 6.215 0 00-6.216-6.215z" fill="#2f3a5a"/><path d="M8.714 18.884h56.367V68.46H8.714z" fill="#ef5361"/><path d="M8.714 18.884h56.367v13.187H8.714z" fill="#da2a47"/><path d="M65.082 68.999H8.714a.539.539 0 01-.539-.539V18.884a.539.539 0 01.539-.539h56.368a.539.539 0 01.539.539V68.46a.539.539 0 01-.539.539zM9.256 67.921h55.286v-48.5H9.256z" fill="#2f3a5a"/><path d="M5.741 15.596h62.318v11.236H5.741z" fill="#ef5361"/><path d="M68.057 27.37H5.739a.539.539 0 01-.539-.539V15.595a.539.539 0 01.539-.539h62.318a.539.539 0 01.539.539v11.236a.539.539 0 01-.539.539zM6.278 26.292h61.24V16.134H6.278z" fill="#2f3a5a"/><g transform="translate(10.874 31.403)" fill="#e1e6e9"><circle cx="1.865" cy="1.865" r="1.865"/><circle cx="1.865" cy="1.865" r="1.865" transform="translate(9.664)"/><circle cx="1.865" cy="1.865" r="1.865" transform="translate(19.327)"/><circle cx="1.865" cy="1.865" r="1.865" transform="translate(28.991)"/><circle cx="1.865" cy="1.865" r="1.865" transform="translate(38.654)"/><circle cx="1.865" cy="1.865" r="1.865" transform="translate(48.318)"/><circle cx="1.865" cy="1.865" r="1.865" transform="translate(5.933 5.447)"/><circle cx="1.865" cy="1.865" r="1.865" transform="translate(15.596 5.447)"/><circle cx="1.865" cy="1.865" r="1.865" transform="translate(25.26 5.447)"/><circle cx="1.865" cy="1.865" r="1.865" transform="translate(34.924 5.447)"/><circle cx="1.865" cy="1.865" r="1.865" transform="translate(44.587 5.447)"/><circle cx="1.865" cy="1.865" r="1.865" transform="translate(0 11.105)"/><circle cx="1.865" cy="1.865" r="1.865" transform="translate(9.664 11.105)"/><circle cx="1.865" cy="1.865" r="1.865" transform="translate(19.327 11.105)"/><circle cx="1.865" cy="1.865" r="1.865" transform="translate(28.991 11.105)"/><circle cx="1.865" cy="1.865" r="1.865" transform="translate(38.654 11.105)"/><circle cx="1.865" cy="1.865" r="1.865" transform="translate(48.318 11.105)"/><circle cx="1.865" cy="1.865" r="1.865" transform="translate(5.933 16.552)"/><circle cx="1.865" cy="1.865" r="1.865" transform="translate(15.596 16.552)"/><circle cx="1.865" cy="1.865" r="1.865" transform="translate(25.26 16.552)"/><circle cx="1.865" cy="1.865" r="1.865" transform="translate(34.924 16.552)"/><circle cx="1.865" cy="1.865" r="1.865" transform="translate(44.587 16.552)"/><circle cx="1.865" cy="1.865" r="1.865" transform="translate(0 22.209)"/><circle cx="1.865" cy="1.865" r="1.865" transform="translate(9.664 22.209)"/><circle cx="1.865" cy="1.865" r="1.865" transform="translate(19.327 22.209)"/><circle cx="1.865" cy="1.865" r="1.865" transform="translate(28.991 22.209)"/><circle cx="1.865" cy="1.865" r="1.865" transform="translate(38.654 22.209)"/><circle cx="1.865" cy="1.865" r="1.865" transform="translate(48.318 22.209)"/><circle cx="1.865" cy="1.865" r="1.865" transform="translate(5.933 27.657)"/><circle cx="1.865" cy="1.865" r="1.865" transform="translate(15.596 27.657)"/><circle cx="1.865" cy="1.865" r="1.865" transform="translate(25.26 27.657)"/><circle cx="1.865" cy="1.865" r="1.865" transform="translate(34.924 27.657)"/><circle cx="1.865" cy="1.865" r="1.865" transform="translate(44.587 27.657)"/></g><path d="M32.13 15.596h9.535V68.46H32.13z" fill="#d9e2e9"/><path d="M41.664 15.592v52.875h-9.531v-2.862h6.568V15.592z" fill="#c1cdd3"/><path d="M42.204 68.998H31.591V15.056h10.613zm-9.535-1.078h8.457V16.134h-8.457z" fill="#2f3a5a"/></g></svg>