<svg xmlns="http://www.w3.org/2000/svg" width="56.684" height="69"><g transform="translate(-11.423 -.002)"><path d="M56.315 69.002h-24.5a.539.539 0 01-.22-1.031l10.341-4.629v-16.91l-1.32-1.934a.539.539 0 01.445-.843h6a.539.539 0 01.45.844l-1.32 1.925v16.918l10.34 4.632a.539.539 0 01-.216 1.031zm-21.971-1.078h19.445l-8.356-3.741a.539.539 0 01-.319-.492V46.699h-2.1V63.69a.539.539 0 01-.319.492zm8.346-22.3h2.745l.609-.888h-3.96z" fill="#2f3a5a"/><circle cx="9.719" cy="9.719" r="9.719" transform="translate(11.963 4.557)" fill="#f0f5f9"/><path d="M21.681 24.534a10.258 10.258 0 1110.258-10.258 10.258 10.258 0 01-10.258 10.258zm0-19.437a9.18 9.18 0 109.179 9.179 9.18 9.18 0 00-9.179-9.179z" fill="#2f3a5a"/><path d="M14.168 13.949h6.724l-4.755-4.755a.694.694 0 00-1.04.063 8.231 8.231 0 00-1.617 3.908.7.7 0 00.689.784zm6.402-7.878a8.231 8.231 0 00-3.908 1.617.694.694 0 00-.063 1.04l4.75 4.756V6.762a.7.7 0 00-.784-.691zm-6.402 8.532a.7.7 0 00-.691.784 8.232 8.232 0 001.617 3.908.694.694 0 001.04.063l4.755-4.755zM26.7 7.69a8.231 8.231 0 00-3.908-1.617.7.7 0 00-.784.691v6.722l4.756-4.753A.694.694 0 0026.7 7.69zm3.186 5.474a8.231 8.231 0 00-1.617-3.908.694.694 0 00-1.04-.063l-4.755 4.755h6.722a.7.7 0 00.691-.784zm-13.223 7.699a8.232 8.232 0 003.908 1.617.7.7 0 00.784-.691v-6.724L16.6 19.82a.694.694 0 00.063 1.043zm12.142-6.276h-6.371l4.5 4.5a.7.7 0 001.048-.072 7.844 7.844 0 001.509-3.649.695.695 0 00-.689-.784zm-6.797.478v6.724a.7.7 0 00.784.691 8.232 8.232 0 003.908-1.617.694.694 0 00.063-1.04z" fill="#ffc943"/><path d="M45.183 46.26h.47l.061-.1h.005l1.342-1.965h.005l7.092-10.35 7.76-11.328h.005l5.645-8.24H20.556l.039.056.608.889.154.226.652.95 3.557 5.186.635.933h.005l.182.265 7.578 11.063 7.1 10.35 1.342 1.967h2.314z" fill="#f0f5f9"/><path d="M45.3 46.202l.413-.041h.005l1.348-1.966 7.092-10.35 7.76-11.328h.005l5.645-8.24h-6.76l-4.5 8.24-11.832 21.678-.414.762-.657 1.2h1.314z" fill="#d9e2e9"/><path d="M61.924 22.516l-7.765 11.333-7.092 10.35-1.348 1.962H42.41l-1.351-1.967-7.1-10.35-7.571-11.063-.182-.265z" fill="#ffc943"/><path d="M61.924 22.516l-7.766 11.333-7.092 10.35-1.348 1.967h-2.313l.657-1.2.414-.762 11.836-21.688z" fill="#f7b521"/><path d="M20.595 14.276v.054l.608.889.155.226.652.95 3.558 5.186.823 1.2a9.714 9.714 0 005.01-8.505z" fill="#d9e2e9"/><path d="M26.389 23.32a.539.539 0 01-.445-.234l-5.794-8.455a.539.539 0 01-.094-.3v-.143a.539.539 0 01.539-.539h10.8a.539.539 0 01.539.539v.088a10.268 10.268 0 01-5.285 8.976.536.536 0 01-.26.068zm-4.871-8.589l5.031 7.335a9.192 9.192 0 004.3-7.335z" fill="#2f3a5a"/><path d="M29.262 14.763h-6.653l4.327 4.329a.7.7 0 001.048-.072 7.844 7.844 0 001.509-3.649.681.681 0 00-.232-.609zm-2.564 6.097a2.718 2.718 0 01-.643.443l-4.047-5.9v-.342l4.756 4.759a.691.691 0 01-.066 1.039z" fill="#ffc943"/><path d="M21.357 15.447l.652.95 3.557 5.186.636.933h10.71l-4.5-8.24H20.556l.039.056.608.889z" fill="#fff" opacity=".25"/><path d="M56.941.525l2.203.9L43.172 40.55l-2.203-.9z" fill="#d9e2e9"/><path d="M43.14 41.1a.539.539 0 01-.2-.04l-2.2-.9a.539.539 0 01-.295-.7L56.428.336a.539.539 0 01.7-.295l2.2.9a.539.539 0 01.295.7L43.637 40.763a.539.539 0 01-.5.337zm-1.5-1.735l1.2.492L58.422 1.735l-1.2-.494z" fill="#2f3a5a"/><path d="M47.945 22.517L40.938 39.66l2.2.9 7.374-18.044z" fill="#d9e2e9"/><path d="M43.14 41.105a.539.539 0 01-.2-.04l-2.2-.9a.539.539 0 01-.295-.7l7.008-17.142a.539.539 0 01.5-.335h2.569a.539.539 0 01.5.743L43.64 40.765a.539.539 0 01-.5.335zm-1.5-1.735l1.2.492 6.867-16.8h-1.4z" fill="#84879c"/><path d="M45.652 46.799a.539.539 0 01-.46-.82l.061-.1a.569.569 0 01.058-.078l1.3-1.911a.539.539 0 01.044-.054l14.819-21.625a.559.559 0 01.044-.054l5.034-7.342H21.579l21.236 30.988a.554.554 0 01.045.059l.066.1a.54.54 0 11-.9.6l-.03-.045a.5.5 0 01-.039-.05L20.115 14.585a.539.539 0 01.441-.848h47.013a.539.539 0 01.445.844l-5.644 8.241a.557.557 0 01-.044.054L47.512 44.499a.538.538 0 01-.043.054l-1.3 1.911a.453.453 0 01-.026.035l-.025.042a.539.539 0 01-.461.259z" fill="#2f3a5a"/><path d="M45.721 46.7h-3.31a.539.539 0 01-.445-.234L25.762 22.821a.54.54 0 01.889-.61l16.044 23.41h2.74l16.045-23.41a.54.54 0 11.889.61l-16.2 23.645a.539.539 0 01-.445.234z" fill="#2f3a5a"/></g></svg>