<svg xmlns="http://www.w3.org/2000/svg" width="61.034" height="60.546"><path d="M33.548 13.069a.485.485 0 01-.071-.006.433.433 0 01-.356-.426V2.184a.426.426 0 01.426-.426.463.463 0 01.467.426v10.367a.435.435 0 01-.068.232.414.414 0 01-.398.286zm.04 14.273a.463.463 0 01-.467-.426V16.475a.426.426 0 01.826-.147.433.433 0 01.066.229v10.359a.426.426 0 01-.425.426zm.037-10.89l-.078.025z" fill="#323c6b"/><path d="M33.548 13.069a.485.485 0 01-.071-.006.433.433 0 01-.356-.426V2.184a.426.426 0 01.426-.426.463.463 0 01.467.426v10.367a.435.435 0 01-.068.232.414.414 0 01-.398.286zm.04 14.273a.463.463 0 01-.467-.426V16.475a.426.426 0 01.826-.147.433.433 0 01.066.229v10.359a.426.426 0 01-.425.426zm.037-10.89l-.078.025z" fill="#323c6b"/><path d="M42.133 14.55a4.506 4.506 0 01-8.543 2.01.21.21 0 01-.041-.085v10.442H23.376a4.516 4.516 0 10-4.308 0H8.855V4.935a2.751 2.751 0 012.752-2.751h21.94v10.45a.3.3 0 01.041-.085 4.506 4.506 0 018.545 2z" fill="#fcd462"/><path d="M33.544 2.184v3.11H11.605a2.751 2.751 0 00-2.752 2.752v-3.11a2.751 2.751 0 012.752-2.752z" fill="#f7be56"/><path d="M58.28 26.917H47.964a4.516 4.516 0 11-4.1 0H33.588V16.56a4.509 4.509 0 100-4.009V2.184h21.94a2.758 2.758 0 012.752 2.751z" fill="#27ccbc"/><path d="M58.278 4.936v21.982h-3.8V7.816a2.756 2.756 0 00-2.752-2.752H33.587v-2.88h21.939a2.756 2.756 0 012.752 2.752z" fill="#21b3a9"/><path d="M16.687 47.754a4.507 4.507 0 008.43 2.227V60.12H3.177a2.745 2.745 0 01-2.752-2.752V35.39h10.213a4.516 4.516 0 114.308 0h10.171v10.135a4.507 4.507 0 00-8.43 2.226z" fill="#05afd6"/><path d="M25.117 60.546H3.176A3.181 3.181 0 010 57.364V35.387a.426.426 0 01.426-.423h8.925a4.942 4.942 0 116.888 0h8.881a.426.426 0 01.426.426v10.136a.426.426 0 01-.8.21 4.09 4.09 0 100 4.033.426.426 0 01.8.209V60.12a.426.426 0 01-.426.426zM.851 35.813v21.551a2.328 2.328 0 002.325 2.33h21.515v-8.453a4.942 4.942 0 110-6.975v-8.453h-9.745a.426.426 0 01-.2-.8 4.09 4.09 0 10-3.9 0 .426.426 0 01-.2.8z" fill="#323c6b"/><path d="M58.28 26.917v21.982a2.752 2.752 0 01-2.752 2.752H33.591V41.437a.17.17 0 01-.041.072 4.516 4.516 0 110-4.452.164.164 0 01.041.072V26.917h10.271a4.516 4.516 0 104.1 0z" fill="#fe7058"/><path d="M58.278 26.917v21.982a2.751 2.751 0 01-2.752 2.752h-3.834a2.751 2.751 0 002.752-2.752V26.917z" fill="#ea6453"/><g fill="#323c6b"><path d="M6.299 10.797a.426.426 0 01-.426-.426v-.355a.426.426 0 01.852 0v.355a.426.426 0 01-.426.426zm0-2.325a.426.426 0 01-.426-.426V4.935A5.7 5.7 0 018.61.063a.426.426 0 01.448.725 4.848 4.848 0 00-2.333 4.146v3.112a.426.426 0 01-.426.426zm49.229 46.159h-2.641a.426.426 0 010-.852h2.641a4.916 4.916 0 004.672-3.474.426.426 0 11.815.247 5.773 5.773 0 01-5.487 4.079zm-5.354 0h-.852a.426.426 0 010-.852h.852a.426.426 0 010 .852zm-4.26-18.756a4.942 4.942 0 01-3.4-8.532h-8.923a.426.426 0 01-.426-.426V16.558a.426.426 0 01.808-.188 4.083 4.083 0 100-3.632.426.426 0 01-.808-.188V2.184a.426.426 0 01.426-.426h21.94a3.181 3.181 0 013.177 3.177v21.982a.426.426 0 01-.426.426h-8.974a4.942 4.942 0 01-3.394 8.532zm-11.9-9.384h9.848a.426.426 0 01.193.806 4.09 4.09 0 103.716 0 .426.426 0 01.193-.806h9.889V4.935a2.328 2.328 0 00-2.325-2.325H34.014v8.576a4.935 4.935 0 110 6.739z"/><path d="M55.528 52.075h-21.94a.426.426 0 01-.423-.426v-8.921a4.942 4.942 0 110-6.891v-8.92a.426.426 0 01.426-.426h10.274a.426.426 0 01.193.806 4.09 4.09 0 103.716 0 .426.426 0 01.193-.806h10.312a.426.426 0 01.426.426v21.981a3.181 3.181 0 01-3.177 3.177zm-21.514-.852h21.514a2.329 2.329 0 002.325-2.326V27.341h-8.545a4.942 4.942 0 11-6.789 0h-8.5v9.787a.426.426 0 01-.36.421.42.42 0 01-.456-.248.319.319 0 01-.023-.036 4.09 4.09 0 100 4.033.355.355 0 01.025-.037.426.426 0 01.814.17z"/><path d="M33.547 27.343H23.375a.426.426 0 01-.2-.8 4.09 4.09 0 10-3.9 0 .426.426 0 01-.2.8H8.855a.426.426 0 01-.426-.426V4.935a3.181 3.181 0 013.178-3.177h21.94a.426.426 0 01.426.426v9.041a4.942 4.942 0 110 6.655v9.037a.426.426 0 01-.426.426zm-8.88-.852h8.454V16.477a.426.426 0 01.826-.147l.022.041a4.083 4.083 0 100-3.632.442.442 0 01-.481.3.421.421 0 01-.368-.408V2.61H11.607a2.329 2.329 0 00-2.326 2.325v21.556h8.5a4.942 4.942 0 116.889 0z"/></g><path d="M3.27 43.421a.638.638 0 01.637.64v6.578a.639.639 0 11-1.278 0v-6.582a.639.639 0 01.641-.636zm.004-2.679a.639.639 0 01.638.64v.329a.639.639 0 11-1.278 0v-.335a.638.638 0 01.64-.634z" fill="#fff"/></svg>