<svg xmlns="http://www.w3.org/2000/svg" width="52.648" height="68.996"><path d="M46.081 12.057a15.966 15.966 0 00-9.631-2.421 71.515 71.515 0 00-19.156 3.631S8.4 16.688 3.611 23.529a15.556 15.556 0 011.473-11.42 20.836 20.836 0 0112.841-10C22.609.741 29.187-.364 35.503 1.425c9.631 2.686 10.526 8.685 10.578 10.632z" fill="#fe7058"/><path d="M46.082 12.056a13.768 13.768 0 00-2.5-1.3c-1.24-2.36-3.89-5.05-9.5-6.61-6.31-1.79-12.89-.68-17.57.68a21.165 21.165 0 00-12.13 8.77c.21-.51.45-1.01.7-1.49a20.836 20.836 0 0112.84-10c4.69-1.36 11.27-2.47 17.58-.68 9.63 2.68 10.53 8.68 10.58 10.63z" fill="#ea6453"/><path d="M51.822 28.319a6.034 6.034 0 01-.1.631l-.694 2.846a15.754 15.754 0 00-14.841-8.578 26.163 26.163 0 00-12.736 4.21h-.053a38.772 38.772 0 00-9.1 7.857 18.255 18.255 0 00-4.266 11.811v1.22c-2.579-.368-9.1-1.842-9.525-15.157a15.1 15.1 0 013.1-9.631c4.794-6.841 13.688-10.262 13.688-10.262a71.515 71.515 0 0119.156-3.63 15.966 15.966 0 019.631 2.421c4.578 2.947 6.999 8.631 5.74 16.262z" fill="#fe7058"/><path d="M51.822 28.316c-.06.42-.11.63-.11.63l-.68 2.85a14.716 14.716 0 00-2.71-3.8c.01-.1.04-.25.06-.43 1.26-7.63-1.16-13.31-5.74-16.26a13.864 13.864 0 00-3.21-1.57 14.763 14.763 0 016.65 2.32c4.58 2.95 7 8.63 5.74 16.26z" fill="#ea6453"/><path d="M10.033 48.817a.5.5 0 01-.071 0c-6.306-.9-9.655-6.161-9.955-15.636a.5.5 0 01.484-.515.49.49 0 01.516.484c.281 8.917 3.342 13.855 9.1 14.677a.501.501 0 01-.069 1z" fill="#323c6b"/><path d="M43.397 48.317c2.449.517 8.744-.783 7.631-16.525a15.754 15.754 0 00-14.841-8.578 26.163 26.163 0 00-12.736 4.21z" fill="#fe7058"/><path d="M51.032 31.796a13.351 13.351 0 00-1.72-2.67c.6 12.658-3.929 15.169-6.665 15.265a7.051 7.051 0 01-.523 2.587l1.278 1.338c2.44.52 8.74-.78 7.63-16.52z" fill="#ea6453"/><path d="M52.122 24.03a.5.5 0 01-.367-.16 22.076 22.076 0 00-11.964-6.774.5.5 0 11.193-.981 23.076 23.076 0 0112.509 7.075.5.5 0 01-.367.84zM1.693 41.239a.5.5 0 01-.492-.591 29.192 29.192 0 018.491-14.767.5.5 0 11.678.736A28.732 28.732 0 002.183 40.83a.5.5 0 01-.49.409zm33.819-31.051a.5.5 0 01-.33-.124c-5.545-4.863-14.749-2.45-14.842-2.425a.5.5 0 11-.262-.966c.4-.107 9.817-2.573 15.764 2.639a.5.5 0 01-.33.876zm-32.555.121a.5.5 0 01-.435-.747c.063-.11.126-.22.192-.328a.5.5 0 11.852.524c-.061.1-.118.2-.175.3a.5.5 0 01-.434.251zm1.565-2.313a.5.5 0 01-.394-.809A23.817 23.817 0 0111.976.761a.5.5 0 11.461.888 22.825 22.825 0 00-7.521 6.156.5.5 0 01-.394.191z" fill="#323c6b"/><path d="M22.447 16.022a.65.65 0 01-.3-1.225c.114-.06.227-.12.343-.175a.65.65 0 11.564 1.171c-.1.049-.2.1-.3.154a.649.649 0 01-.307.075zm2.562-1.111a.65.65 0 01-.217-1.263 23.976 23.976 0 0110.13-1.223.65.65 0 01.591.7.643.643 0 01-.7.591 22.627 22.627 0 00-9.591 1.157.65.65 0 01-.213.038z" fill="#fff"/><path d="M43.858 61.934a.5.5 0 01-.437-.744 18.858 18.858 0 002.3-7.269.5.5 0 01.994.1 19.828 19.828 0 01-2.417 7.652.5.5 0 01-.44.261zm-1.521 2.268a.482.482 0 01-.3-.1.488.488 0 01-.089-.691l.019-.022c.063-.081.129-.162.189-.245a.5.5 0 11.807.59c-.068.094-.142.186-.214.277a.525.525 0 01-.412.191zM3.611 24.03a.486.486 0 01-.088-.008.5.5 0 01-.4-.366 15.978 15.978 0 011.519-11.778A21.2 21.2 0 0117.786 1.631C22.339.296 29.132-.899 35.64.946c9.682 2.7 10.875 8.66 10.941 11.1a.5.5 0 01-.775.431 15.418 15.418 0 00-9.334-2.341 71.654 71.654 0 00-19.006 3.6c-.08.031-8.8 3.447-13.446 10.08a.5.5 0 01-.409.214zM28.47.996a37.754 37.754 0 00-10.4 1.59 20.207 20.207 0 00-12.539 9.752 15.126 15.126 0 00-1.668 10.011c4.915-6.292 12.9-9.418 13.256-9.554a72.726 72.726 0 0119.313-3.664 16.752 16.752 0 019.07 1.979c-.372-2.556-2.207-7-10.129-9.208a25.318 25.318 0 00-6.9-.906z" fill="#323c6b"/><path d="M10.032 48.817a.487.487 0 01-.07 0c-6.306-.9-9.655-6.161-9.955-15.636a15.558 15.558 0 013.2-9.94c4.815-6.885 13.539-10.298 13.908-10.445a72.725 72.725 0 0119.313-3.664 16.377 16.377 0 019.929 2.5c5.009 3.224 7.181 9.331 5.955 16.75a6.223 6.223 0 01-.114.682l-.684 2.832a.5.5 0 01-.44.38.49.49 0 01-.5-.294 15.011 15.011 0 00-14.372-8.268 25.62 25.62 0 00-12.488 4.136.508.508 0 01-.153.062 38.278 38.278 0 00-8.883 7.692 17.761 17.761 0 00-4.146 11.492v1.22a.5.5 0 01-.5.5zm27.311-38.7q-.431 0-.87.019a71.655 71.655 0 00-19.006 3.6c-.08.031-8.8 3.447-13.446 10.08a14.6 14.6 0 00-3.014 9.323c.272 8.623 3.14 13.525 8.525 14.585v-.628a18.771 18.771 0 014.382-12.139 39.271 39.271 0 019.222-7.961.5.5 0 01.156-.062 26.539 26.539 0 0112.883-4.222 16.3 16.3 0 0114.665 7.721l.386-1.6a5.531 5.531 0 00.1-.575v-.021c1.161-7.013-.848-12.757-5.513-15.76a15.075 15.075 0 00-8.466-2.359z" fill="#323c6b"/><path d="M44.273 48.902a4.827 4.827 0 01-.979-.1.5.5 0 01-.258-.144L23.091 27.769a.5.5 0 01.1-.771 26.617 26.617 0 0112.985-4.284 16.339 16.339 0 0115.31 8.875.5.5 0 01.042.167c.7 9.833-1.534 13.967-3.526 15.7a5.607 5.607 0 01-3.729 1.446zm-.626-1.047a4.529 4.529 0 003.7-1.149c1.815-1.582 3.839-5.431 3.192-14.787a15.048 15.048 0 00-14.334-8.2 25.237 25.237 0 00-11.957 3.816z" fill="#323c6b"/><path d="M23.452 27.425c.061-.006.166-.015.31-.024a18.443 18.443 0 0119.6 18.53l-.017 5.988a16.657 16.657 0 11-33.313-.105v-4.718a18.255 18.255 0 014.264-11.816 38.772 38.772 0 019.1-7.857z" fill="#fcd462"/><path d="M43.362 45.926l-.02 5.99a16.662 16.662 0 01-28.24 11.9 16.658 16.658 0 0025.4-14.11l.01-5.99a18.42 18.42 0 00-5.81-13.55 18.5 18.5 0 018.66 15.76z" fill="#f7be56"/><path d="M22.36 44.33a4.451 4.451 0 01-2.263-.7c-2.9-1.722-4.571-.933-4.64-.9a.5.5 0 01-.458-.889c.09-.045 2.2-1.1 5.609.929a3.338 3.338 0 001.859.556.5.5 0 01.047 1h-.154z" fill="#323c6b"/><path d="M16.393 44.532a.5.5 0 01-.464-.687 3.114 3.114 0 012.923-1.808h.063a.5.5 0 11-.008 1h-.052a2.125 2.125 0 00-2 1.183.5.5 0 01-.462.312zm10.155 16.741a9.061 9.061 0 01-6.708-3 .5.5 0 01.74-.673 8.122 8.122 0 006.368 2.662 6.682 6.682 0 005.085-2.624.5.5 0 01.8.6 7.674 7.674 0 01-5.838 3.026c-.148.005-.3.009-.447.009zm-.135-6.8a3.962 3.962 0 01-2.934-1.311.5.5 0 11.74-.673 2.954 2.954 0 002.341.98 2.376 2.376 0 001.833-.941.5.5 0 11.8.6 3.4 3.4 0 01-2.585 1.344h-.195zm9.838-9.941a.5.5 0 01-.462-.309 2.1 2.1 0 00-2.044-1.186h-.008a.5.5 0 01-.008-1h.063a3.114 3.114 0 012.923 1.808.5.5 0 01-.464.688z" fill="#323c6b"/><path d="M30.284 44.33h-.155a.5.5 0 11.047-1 3.329 3.329 0 001.859-.556c3.413-2.03 5.52-.975 5.609-.929a.5.5 0 01-.458.889c-.079-.038-1.749-.819-4.64.9a4.451 4.451 0 01-2.262.7z" fill="#323c6b"/><path d="M26.715 68.996a17.112 17.112 0 01-12.223-5.069 16.931 16.931 0 01-4.96-12.117v-4.714a18.771 18.771 0 014.382-12.139 39.271 39.271 0 019.222-7.961.481.481 0 01.268-.074l.048.5-.048-.5.323-.026a18.643 18.643 0 0114.127 5.066 19.107 19.107 0 016.008 13.97l-.018 5.988a17.119 17.119 0 01-17.129 17.076zm-3.164-41.078a38.27 38.27 0 00-8.873 7.686 17.761 17.761 0 00-4.146 11.492v4.716a15.942 15.942 0 004.669 11.409 16.156 16.156 0 0027.644-11.3l.018-5.99a18.106 18.106 0 00-5.693-13.235 17.634 17.634 0 00-13.375-4.8z" fill="#323c6b"/></svg>