<svg xmlns="http://www.w3.org/2000/svg" width="69.002" height="68.785"><path d="M8.626 63.122V30.744l25.875-23.72 25.875 23.72v32.378z" fill="#eeefee"/><path d="M60.381 30.743v32.38h-2.72v-32.38l-24.52-22.47 1.36-1.25z" fill="#e1e6e9"/><path d="M34.934 39.093h15.775v21.029H34.934z" fill="#9297ab"/><path d="M50.709 60.622H34.935a.5.5 0 01-.5-.5V39.093a.5.5 0 01.5-.5h15.774a.5.5 0 01.5.5v21.029a.5.5 0 01-.5.5zm-15.274-1h14.774V39.593H35.435z" fill="#323c6b"/><path d="M47.501 52.03a.5.5 0 01-.5-.5v-2.044a.5.5 0 011 0v2.043a.5.5 0 01-.5.5z" fill="#323c6b"/><path d="M17.337 39.093h11.435v11.432H17.337z" fill="#89c5cd"/><path d="M28.772 51.025H17.337a.5.5 0 01-.5-.5V39.093a.5.5 0 01.5-.5h11.435a.5.5 0 01.5.5v11.432a.5.5 0 01-.5.5zm-10.936-1h10.436V39.593H17.837z" fill="#323c6b"/><path d="M23.055 51.025a.5.5 0 01-.5-.5V39.093a.5.5 0 011 0v11.432a.5.5 0 01-.5.5z" fill="#323c6b"/><path d="M28.772 45.308H17.337a.5.5 0 010-1h11.435a.5.5 0 110 1zM17.501 12.261a.5.5 0 01-.334-.868l6.354-5.717a.5.5 0 11.668.743l-6.354 5.717a.5.5 0 01-.334.125zm8.178-7.358a.5.5 0 01-.334-.872l.428-.385a.5.5 0 01.667.747l-.428.385a.5.5 0 01-.333.125zm40.533 63.882h-4.4a.5.5 0 010-1h3.9v-5.642a.5.5 0 011 0v6.142a.5.5 0 01-.5.5zm-7.461 0h-1a.5.5 0 010-1h1a.5.5 0 010 1z" fill="#323c6b"/><path d="M60.376 63.622H8.626a.5.5 0 01-.5-.5V30.744a.5.5 0 01.162-.369l25.875-23.72a.5.5 0 01.676 0l25.875 23.72a.5.5 0 01.162.369v32.378a.5.5 0 01-.5.5zm-51.25-1h50.75V30.963L34.501 7.702 9.126 30.963z" fill="#323c6b"/><path d="M5.79 60.121h57.422v5.163H5.79z" fill="#e7aa6c"/><path d="M63.212 65.785H5.79a.5.5 0 01-.5-.5v-5.163a.5.5 0 01.5-.5h57.422a.5.5 0 01.5.5v5.163a.5.5 0 01-.5.5zm-56.922-1h56.422v-4.163H6.29z" fill="#323c6b"/><path d="M55.12 23.884a.65.65 0 11-.863.971l-7.332-6.525a.65.65 0 11.863-.971" fill="#fff"/><path d="M68.501 31.093l-4.983 5.78-5.369-4.78L34.501 11.04 10.853 32.093l-5.369 4.78-4.983-5.78 34-30.592z" fill="#e7aa6c"/><path d="M68.501 31.093l-4.98 5.78-2.09-1.86 3.38-3.92-32.15-28.93 1.84-1.66z" fill="#d09865"/><path d="M54.688 25.019a.644.644 0 01-.432-.165l-7.332-6.525a.65.65 0 11.863-.971l7.332 6.525a.65.65 0 01-.432 1.135zm2.263 2.014a.648.648 0 01-.432-.164l-.431-.383a.65.65 0 11.863-.972l.431.383a.65.65 0 01-.432 1.136z" fill="#fff"/><path d="M63.519 37.373a.5.5 0 01-.333-.126L34.501 11.709 5.816 37.247a.491.491 0 01-.366.125.5.5 0 01-.346-.173L.122 31.417a.5.5 0 01.045-.7l34-30.589a.5.5 0 01.668 0l34 30.589a.5.5 0 01.045.7l-4.979 5.782a.5.5 0 01-.346.173zM34.501 10.54a.5.5 0 01.332.126l28.639 25.5 4.329-5.031-33.3-29.961-33.3 29.961 4.331 5.026 28.639-25.5a.5.5 0 01.33-.121z" fill="#323c6b"/></svg>