<svg xmlns="http://www.w3.org/2000/svg" width="59.01" height="59.01"><g transform="translate(-2.5 -2.5)"><circle cx="29.077" cy="29.077" r="29.077" transform="translate(2.928 2.928)" fill="#89c5cd"/><path d="M61.083 32.005a29 29 0 01-9.732 21.705A29.077 29.077 0 009.573 13.498a29.077 29.077 0 0151.51 18.507z" fill="#6eaaad"/><g fill="#323c6b"><path d="M43.619 59.09a.413.413 0 01-.091-.009.428.428 0 01-.328-.508c.236-1.1.436-2.27.593-3.48a43.274 43.274 0 00.257-8.467 42.742 42.742 0 00-5.622-18.45.428.428 0 11.74-.428 43.625 43.625 0 015.735 18.817 44.187 44.187 0 01-.257 8.638 45.626 45.626 0 01-.6 3.551.428.428 0 01-.422.334zm-8.361-35.936a.428.428 0 01-.336-.163A42.784 42.784 0 0014.849 8.829a.428.428 0 11.273-.811 43.642 43.642 0 0120.467 14.444.428.428 0 01-.335.692z"/><path d="M38.538 45.116a.428.428 0 01-.3-.729 36.311 36.311 0 004.633-5.756 35.883 35.883 0 005.5-15.633.428.428 0 01.85.086 36.744 36.744 0 01-5.628 16.008 37.268 37.268 0 01-4.747 5.9.428.428 0 01-.308.127zM14.678 55.78a.428.428 0 01-.021-.855 35.431 35.431 0 0018.835-6.523.43.43 0 11.5.7 36.291 36.291 0 01-19.289 6.682zm34.225-38.63a.428.428 0 01-.428-.4 35.834 35.834 0 00-2.017-9.6.428.428 0 01.806-.289 36.7 36.7 0 012.067 9.834.428.428 0 01-.4.456zm-9.346 30.274a.428.428 0 010-.855 34.369 34.369 0 004.857-.4 35.6 35.6 0 0015.178-6.093.428.428 0 11.493.7 36.46 36.46 0 01-15.543 6.245 35.149 35.149 0 01-4.976.406zM13.336 36.658a.428.428 0 01-.3-.127 36.577 36.577 0 01-8.762-14.363.428.428 0 11.813-.263 35.728 35.728 0 008.552 14.026.428.428 0 01-.3.729zm19.927 10.311a.471.471 0 01-.069-.005 36.432 36.432 0 01-15.292-6.292.43.43 0 11.5-.7 35.553 35.553 0 0014.931 6.143.428.428 0 01-.068.85zm18.25-28.57a.428.428 0 01-.272-.758 34.48 34.48 0 003.634-3.463.428.428 0 01.635.574 35.184 35.184 0 01-3.724 3.549.422.422 0 01-.271.1zm-23.057 8.312a36.17 36.17 0 01-22.525-7.766.428.428 0 01.528-.673 35.32 35.32 0 0022 7.581 36.463 36.463 0 005.621-.44.428.428 0 01.132.845 37.3 37.3 0 01-5.753.45z"/></g><path d="M28.236 29.666a37.02 37.02 0 01-7.327-.73.556.556 0 01.221-1.09 35.833 35.833 0 007.107.709.556.556 0 110 1.112zm-9.114-1.15a.552.552 0 01-.153-.014c-.229-.054-.46-.109-.684-.171a.556.556 0 01.275-1.077q.333.086.665.162a.556.556 0 01-.1 1.1z" fill="#fff"/><path d="M40.284 24.736a.428.428 0 01-.141-.831 36.184 36.184 0 005.959-2.705.429.429 0 11.428.743 37.056 37.056 0 01-6.1 2.769.433.433 0 01-.146.024z" fill="#323c6b"/><path d="M39.556 47.002a3.17 3.17 0 11-.929-2.244 3.169 3.169 0 01.929 2.244z" fill="#eeefee"/><path d="M36.384 50.597a3.592 3.592 0 112.545-1.049 3.6 3.6 0 01-2.545 1.049zm0-6.337a2.744 2.744 0 101.942.8 2.741 2.741 0 00-1.942-.8z" fill="#323c6b"/><path d="M52.165 19.887a3.164 3.164 0 11-.927-2.246 3.169 3.169 0 01.927 2.246z" fill="#eeefee"/><path d="M48.99 23.478a3.592 3.592 0 112.548-1.049 3.6 3.6 0 01-2.548 1.049zm0-6.337a2.741 2.741 0 102.748 2.745 2.741 2.741 0 00-2.745-2.745z" fill="#323c6b"/><path d="M40.412 25.193a3.169 3.169 0 11-3.173-3.164 3.169 3.169 0 013.173 3.164z" fill="#eeefee"/><path d="M37.239 28.797a3.6 3.6 0 113.6-3.6 3.6 3.6 0 01-3.6 3.6zm0-6.337a2.737 2.737 0 101.941.8 2.741 2.741 0 00-1.941-.795z" fill="#323c6b"/><path d="M18.817 38.376a3.169 3.169 0 11-3.164-3.164 3.169 3.169 0 013.164 3.164z" fill="#eeefee"/><path d="M15.653 41.976a3.6 3.6 0 113.592-3.6 3.6 3.6 0 01-3.592 3.6zm0-6.337a2.741 2.741 0 102.737 2.737 2.741 2.741 0 00-2.737-2.737zm38.402 19.457a.428.428 0 01-.3-.734 31.464 31.464 0 005.023-6.333.428.428 0 11.733.44 32.242 32.242 0 01-5.158 6.5.428.428 0 01-.3.123zm-3.288 2.782a.428.428 0 01-.257-.77c.281-.208.56-.416.833-.633a.428.428 0 11.531.67c-.281.222-.568.436-.855.65a.428.428 0 01-.252.083zM7.123 12.977a.428.428 0 01-.333-.692 32.21 32.21 0 016.585-6.356.428.428 0 11.5.694 31.442 31.442 0 00-6.409 6.188.428.428 0 01-.338.164zm8.951-7.868a.428.428 0 01-.216-.8c.224-.131.452-.252.684-.374l.291-.155a.428.428 0 01.405.752l-.3.159c-.219.116-.438.232-.652.357a.42.42 0 01-.216.058z" fill="#323c6b"/><path d="M32 61.51A29.5 29.5 0 1161.51 32 29.5 29.5 0 0132 61.51zm0-58.155A28.65 28.65 0 1060.655 32 28.65 28.65 0 0032 3.355z" fill="#323c6b"/></g></svg>