<svg xmlns="http://www.w3.org/2000/svg" width="67.662" height="65.38"><path d="M29.16 42.741V29.085l-12.875-8.573-12.876 8.573v13.656l12.876 8.572z" fill="#fcd462"/><path d="M29.165 29.083v13.656l-12.88 8.577-12.879-8.577v-.436l10.15 6.757 12.88-8.567v-13.23z" fill="#f7be56"/><path d="M16.285 51.782a.474.474 0 01-.263-.08L3.146 43.134a.474.474 0 01-.211-.394V29.082a.474.474 0 01.211-.394l12.876-8.571a.474.474 0 01.526 0l12.876 8.572a.474.474 0 01.211.394V42.74a.474.474 0 01-.211.394l-12.877 8.573a.474.474 0 01-.263.08zm-12.4-9.3l12.4 8.257 12.4-8.257V29.338l-12.4-8.256-12.4 8.257zM.474 31.618A.474.474 0 010 31.144v-4a.474.474 0 01.211-.394l2.773-1.847a.474.474 0 11.526.789L.952 27.395v3.749a.474.474 0 01-.478.474zm4.473-6.982a.474.474 0 01-.265-.868l.474-.318a.474.474 0 11.526.789l-.474.318a.474.474 0 01-.261.079z" fill="#323c6b"/><path d="M6.911 53.861a.474.474 0 01-.474-.474v-8.232a.474.474 0 01.948 0v8.232a.474.474 0 01-.474.474zm18.684 0a.474.474 0 01-.474-.474v-8.232a.474.474 0 01.948 0v8.232a.474.474 0 01-.474.474zm-9.341 5.908a.474.474 0 01-.474-.474v-7.982a.474.474 0 11.948 0v7.983a.474.474 0 01-.474.473z" fill="#323c6b"/><path d="M19.055 62.095a2.8 2.8 0 11-2.8-2.8 2.8 2.8 0 012.8 2.8z" fill="#fcd462"/><path d="M16.256 65.38a3.279 3.279 0 113.273-3.286 3.279 3.279 0 01-3.273 3.286zm0-5.611a2.331 2.331 0 102.326 2.326 2.331 2.331 0 00-2.326-2.326z" fill="#323c6b"/><path d="M28.399 56.193a2.806 2.806 0 11-2.8-2.8 2.806 2.806 0 012.8 2.8z" fill="#fcd462"/><path d="M25.597 59.468a3.273 3.273 0 113.273-3.273 3.273 3.273 0 01-3.273 3.273zm0-5.6a2.326 2.326 0 102.326 2.326 2.326 2.326 0 00-2.326-2.326z" fill="#323c6b"/><path d="M9.71 56.193a2.8 2.8 0 11-2.8-2.8 2.8 2.8 0 012.8 2.8z" fill="#fcd462"/><path d="M6.91 59.468a3.273 3.273 0 113.273-3.273 3.273 3.273 0 01-3.273 3.273zm0-5.6a2.326 2.326 0 102.326 2.326 2.326 2.326 0 00-2.326-2.326z" fill="#323c6b"/><path d="M18.929 15.515a2.674 2.674 0 11-2.674-2.674 2.674 2.674 0 012.674 2.674z" fill="#fcd462"/><path d="M16.255 18.658a3.147 3.147 0 113.151-3.148 3.147 3.147 0 01-3.147 3.147zm0-5.348a2.2 2.2 0 102.2 2.2 2.2 2.2 0 00-2.2-2.2z" fill="#323c6b"/><path d="M16.252 13.315a.474.474 0 01-.474-.474V7.487a.474.474 0 01.474-.474 3.033 3.033 0 10-3.034-3.036.474.474 0 01-.948 0 3.98 3.98 0 114.459 3.956v4.912a.474.474 0 01-.477.47zm.002 7.67a.474.474 0 01-.474-.475v-2.326a.474.474 0 01.948 0v2.326a.474.474 0 01-.474.478z" fill="#323c6b"/><path d="M64.344 42.741V29.085l-12.875-8.573-12.876 8.573v13.656l12.876 8.572z" fill="#fcd462"/><path d="M64.349 29.083v13.656L51.47 51.316l-12.88-8.577v-.436l10.15 6.757 12.88-8.567v-13.23z" fill="#f7be56"/><path d="M59.27 39.766v-7.708l-7.8-5.194-7.8 5.194v7.708l7.8 5.194z" fill="#eeefee"/><path d="M59.269 32.058v7.7l-7.8 5.194-7.8-5.194v-.157l5.544 3.7 7.807-5.2v-7.54z" fill="#e1e6e9"/><path d="M42.131 53.861a.474.474 0 01-.474-.474v-8.232a.474.474 0 01.948 0v8.232a.474.474 0 01-.474.474zm18.681 0a.474.474 0 01-.474-.474v-8.232a.474.474 0 11.948 0v8.232a.474.474 0 01-.474.474zm-9.343 5.908a.474.474 0 01-.474-.474v-7.982a.474.474 0 11.948 0v7.983a.474.474 0 01-.474.473z" fill="#323c6b"/><path d="M54.27 62.095a2.8 2.8 0 11-2.8-2.8 2.8 2.8 0 012.8 2.8z" fill="#fcd462"/><path d="M51.471 65.38a3.279 3.279 0 113.273-3.286 3.279 3.279 0 01-3.273 3.286zm0-5.611a2.331 2.331 0 102.326 2.326 2.331 2.331 0 00-2.326-2.326z" fill="#323c6b"/><path d="M63.619 56.193a2.806 2.806 0 11-2.8-2.8 2.806 2.806 0 012.8 2.8z" fill="#fcd462"/><path d="M60.816 59.468a3.273 3.273 0 113.278-3.273 3.273 3.273 0 01-3.278 3.273zm0-5.6a2.326 2.326 0 102.33 2.326 2.326 2.326 0 00-2.33-2.326z" fill="#323c6b"/><path d="M44.926 56.193a2.8 2.8 0 11-2.8-2.8 2.8 2.8 0 012.8 2.8z" fill="#fcd462"/><path d="M42.127 59.468a3.273 3.273 0 113.273-3.273 3.273 3.273 0 01-3.273 3.273zm0-5.6a2.326 2.326 0 102.326 2.326 2.326 2.326 0 00-2.326-2.326z" fill="#323c6b"/><path d="M54.142 15.515a2.674 2.674 0 11-2.674-2.674 2.674 2.674 0 012.674 2.674z" fill="#fcd462"/><g fill="#323c6b"><path d="M51.47 18.658a3.147 3.147 0 113.145-3.144 3.147 3.147 0 01-3.145 3.144zm0-5.348a2.2 2.2 0 102.2 2.2 2.2 2.2 0 00-2.2-2.2z"/><path d="M51.47 13.315a.474.474 0 01-.474-.474V7.487a.474.474 0 01.474-.474 3.033 3.033 0 10-3.037-3.036.474.474 0 11-.948 0 3.98 3.98 0 114.459 3.956v4.912a.474.474 0 01-.474.47zm-.001 7.67a.474.474 0 01-.474-.475v-2.326a.474.474 0 01.948 0v2.326a.474.474 0 01-.474.478zm15.719 17.108a.474.474 0 01-.474-.474v-.789a.474.474 0 01.948 0v.789a.474.474 0 01-.474.474zm-2.336 8.411a.474.474 0 01-.275-.861l2.134-1.517v-4.482a.474.474 0 01.948 0v4.729a.474.474 0 01-.2.387l-2.333 1.659a.474.474 0 01-.274.085z"/><path d="M51.469 51.781a.474.474 0 01-.263-.08l-12.88-8.568a.474.474 0 01-.211-.394V29.081a.474.474 0 01.211-.394L51.2 20.116a.474.474 0 01.526 0l12.88 8.573a.474.474 0 01.211.394v13.656a.474.474 0 01-.211.394l-12.875 8.573a.474.474 0 01-.263.08zm-12.4-9.3l12.4 8.257 12.4-8.257V29.337l-12.4-8.256-12.4 8.257z"/><path d="M51.469 45.431a.474.474 0 01-.263-.08l-7.8-5.194a.474.474 0 01-.211-.394v-7.705a.474.474 0 01.211-.394l7.8-5.2a.474.474 0 01.526 0l7.8 5.194a.474.474 0 01.211.394v7.708a.474.474 0 01-.211.394l-7.8 5.2a.474.474 0 01-.263.077zm-7.328-5.922l7.328 4.879 7.328-4.879v-7.2l-7.328-4.878-7.328 4.879z"/></g><path d="M24.086 39.766v-7.708l-7.8-5.194-7.8 5.194v7.708l7.8 5.194z" fill="#eeefee"/><path d="M24.085 32.058v7.7l-7.8 5.194-7.8-5.194v-.157l5.544 3.7 7.81-5.2v-7.54z" fill="#e1e6e9"/><path d="M16.287 45.431a.474.474 0 01-.263-.08l-7.8-5.194a.474.474 0 01-.211-.394v-7.705a.474.474 0 01.211-.394l7.8-5.194a.474.474 0 01.526 0l7.8 5.194a.474.474 0 01.211.394v7.708a.474.474 0 01-.211.394l-7.8 5.194a.474.474 0 01-.263.077zm-7.33-5.919l7.33 4.879 7.328-4.879v-7.2l-7.328-4.881-7.33 4.878z" fill="#323c6b"/></svg>