<svg xmlns="http://www.w3.org/2000/svg" width="60.004" height="59.712"><g transform="translate(-5.171 -2.499)"><path d="M51.85 50.321h6.354a3.826 3.826 0 003.821-3.83V27.473a3.823 3.823 0 00-3.823-3.819H9.443a3.823 3.823 0 00-3.821 3.821v19.016a3.826 3.826 0 003.821 3.83h6.354" fill="#9297ab"/><path d="M62.025 27.471v19.02a3.808 3.808 0 01-2.737 3.663 3.472 3.472 0 00.144-1.017v-19.02a3.819 3.819 0 00-3.817-3.817H6.853a3.625 3.625 0 00-1.089.162 3.8 3.8 0 013.682-2.808h48.753a3.82 3.82 0 013.826 3.817z" fill="#84879c"/><path d="M13.093 17.371h5.858v6.28h-5.858z" fill="#9297ab"/><path d="M18.951 24.101h-5.858a.45.45 0 01-.45-.45v-6.28a.45.45 0 01.45-.45h5.858a.45.45 0 01.45.45v6.283a.45.45 0 01-.45.447zm-5.408-.9h4.958v-5.38h-4.958z" fill="#323c6b"/><path d="M48.694 17.371h5.858v6.28h-5.858z" fill="#9297ab"/><path d="M54.551 24.101h-5.858a.45.45 0 01-.45-.45v-6.28a.45.45 0 01.45-.45h5.858a.45.45 0 01.45.45v6.283a.45.45 0 01-.45.447zm-5.408-.9h4.958v-5.38h-4.958z" fill="#323c6b"/><path d="M41.033 2.95H18.952v20.7h29.742V10.61zM12.718 37.049h42.21v5.453h-42.21z" fill="#eeefee"/><path d="M54.927 42.951H12.718a.45.45 0 01-.45-.45v-5.453a.45.45 0 01.45-.45h42.209a.45.45 0 01.45.45v5.453a.45.45 0 01-.45.45zm-41.76-.9h41.31v-4.553H13.168zM58.54 53.454a.45.45 0 01-.023-.9 6.045 6.045 0 005.635-4.942.45.45 0 01.884.167 6.942 6.942 0 01-6.472 5.671zm6.185-7.109a.45.45 0 01-.45-.45v-.637a.45.45 0 01.9 0v.637a.45.45 0 01-.45.45zM16.251 12.552a.45.45 0 01-.45-.45V6.775a.45.45 0 01.9 0v5.326a.45.45 0 01-.45.451zm0-7.314a.45.45 0 01-.45-.45V4.3a.45.45 0 01.9 0v.488a.45.45 0 01-.45.45z" fill="#323c6b"/><path d="M51.849 40.101v21.66H15.797v-21.66" fill="#eeefee"/><path d="M45.646 10.264l.347.347v13.043h2.7V10.611l-.347-.347zM49.144 40.1h2.7v21.658h-2.7z" fill="#e1e6e9"/><path d="M46.553 47.302H21.092a.45.45 0 110-.9h25.461a.45.45 0 010 .9zm0 8.496H21.092a.45.45 0 110-.9h25.461a.45.45 0 010 .9z" fill="#323c6b"/><path d="M41.033 10.61h7.66l-7.66-7.66z" fill="#d5d6db"/><path d="M48.694 11.061h-7.661a.45.45 0 01-.45-.45V2.95a.45.45 0 01.769-.319l7.66 7.66a.45.45 0 01-.319.769zm-7.21-.9h6.121l-6.122-6.122z" fill="#323c6b"/><circle cx="1.563" cy="1.563" r="1.563" transform="translate(55.04 27.252)" fill="#fe7058"/><path d="M56.603 30.828a2.013 2.013 0 112.012-2.012 2.013 2.013 0 01-2.012 2.012zm0-3.125a1.113 1.113 0 101.112 1.112 1.113 1.113 0 00-1.112-1.11z" fill="#323c6b"/><circle cx="1.563" cy="1.563" r="1.563" transform="translate(48.694 27.252)" fill="#27ccbc"/><path d="M50.256 30.828a2.013 2.013 0 112.013-2.013 2.013 2.013 0 01-2.013 2.013zm0-3.125a1.113 1.113 0 101.113 1.112 1.113 1.113 0 00-1.113-1.11z" fill="#323c6b"/><path d="M58.2 50.772h-6.352a.45.45 0 010-.9H58.2a3.38 3.38 0 003.372-3.38V27.474a3.376 3.376 0 00-3.372-3.37H9.443a3.376 3.376 0 00-3.372 3.371v19.016a3.38 3.38 0 003.372 3.38H15.8a.45.45 0 010 .9H9.443a4.281 4.281 0 01-4.272-4.28V27.474a4.277 4.277 0 014.272-4.27H58.2a4.277 4.277 0 014.272 4.271v19.016a4.281 4.281 0 01-4.272 4.281z" fill="#323c6b"/><path d="M48.694 24.1H18.952a.45.45 0 01-.45-.45V2.95a.45.45 0 01.45-.45h22.081a.45.45 0 01.319.131l7.66 7.66a.45.45 0 01.131.319v13.044a.45.45 0 01-.449.446zm-29.292-.9h28.842V10.8l-7.4-7.4H19.402zm32.445 39.011h-36.05a.45.45 0 01-.45-.45v-21.66a.45.45 0 01.9 0v21.21h35.15v-21.21a.45.45 0 01.9 0v21.66a.45.45 0 01-.45.45z" fill="#323c6b"/><path d="M26.125 35.034l-6.364.01a.54.54 0 010-1.08l6.364-.01a.54.54 0 010 1.08zm2.276.032h-.209a.54.54 0 110-1.08h.209a.54.54 0 010 1.08z" fill="#fff"/></g></svg>