<svg xmlns="http://www.w3.org/2000/svg" width="60.074" height="48.209"><g transform="translate(0 -12.668)"><path d="M55.749 23.069H42.754l-1.8-6.776a4.248 4.248 0 00-4.105-3.158H23.296a4.248 4.248 0 00-4.105 3.158l-1.8 6.776h-13a3.893 3.893 0 00-3.887 3.9v29.55a3.893 3.893 0 003.893 3.893h51.352a3.893 3.893 0 003.893-3.893v-29.55a3.893 3.893 0 00-3.893-3.9z" fill="#b0b3c1"/><path d="M59.608 26.962v29.552a3.9 3.9 0 01-3.89 3.9H4.361a3.891 3.891 0 01-3.856-3.387h51.113a3.891 3.891 0 003.89-3.889V23.582a4.071 4.071 0 00-.035-.51h.245a3.9 3.9 0 013.89 3.89z" fill="#9297ab"/><path d="M55.715 60.877H4.362A4.367 4.367 0 010 56.515v-29.55A4.367 4.367 0 014.362 22.6H17l1.7-6.424a4.723 4.723 0 014.56-3.508h13.558a4.722 4.722 0 014.555 3.508l1.706 6.424h12.632a4.367 4.367 0 014.362 4.362v29.55a4.367 4.367 0 01-4.358 4.365zM4.362 23.542a3.428 3.428 0 00-3.423 3.423v29.55a3.428 3.428 0 003.423 3.423h51.353a3.428 3.428 0 003.423-3.423v-29.55a3.428 3.428 0 00-3.423-3.423h-13a.47.47 0 01-.454-.349l-1.8-6.776a3.781 3.781 0 00-3.649-2.809H23.261a3.783 3.783 0 00-3.652 2.809l-1.8 6.777a.47.47 0 01-.454.349z" fill="#2f3a5a"/><circle cx="13.432" cy="13.432" r="13.432" transform="translate(16.606 27.674)" fill="#d9e2e9"/><path d="M30.038 55.008a13.9 13.9 0 1113.9-13.9 13.9 13.9 0 01-13.9 13.9zm0-26.865a12.961 12.961 0 1012.961 12.962 12.961 12.961 0 00-12.961-12.962z" fill="#2f3a5a"/><circle cx="9.349" cy="9.349" r="9.349" transform="translate(20.689 31.758)" fill="#5fc4f8"/><path d="M39.389 41.106a9.345 9.345 0 01-17.371 4.8 9.345 9.345 0 0013.29-12.516 9.325 9.325 0 014.081 7.716z" fill="#3dbce9"/><path d="M30.038 50.926a9.819 9.819 0 119.819-9.819 9.819 9.819 0 01-9.819 9.819zm0-18.7a8.88 8.88 0 108.88 8.88 8.88 8.88 0 00-8.88-8.879z" fill="#2f3a5a"/><path d="M23.507 16.947h13.132v5.2H23.507z" fill="#f0f5f9"/><path d="M36.636 16.947v5.2H23.505v-2.04h10.826v-3.16z" fill="#c1cdd3"/><path d="M36.639 22.617H23.507a.47.47 0 01-.47-.47v-5.2a.47.47 0 01.47-.47h13.132a.47.47 0 01.47.47v5.2a.47.47 0 01-.47.47zm-12.662-.939h12.192v-4.26H23.976z" fill="#2f3a5a"/><path d="M4.747 28.168h7.691v3.408H4.747z" fill="#ffa245"/><path d="M12.434 32.045H4.748a.47.47 0 01-.47-.47v-3.407a.47.47 0 01.47-.47h7.686a.47.47 0 01.47.47v3.408a.47.47 0 01-.47.469zm-7.217-.939h6.752v-2.469H5.217z" fill="#2f3a5a"/><path d="M6.47 20.741h6.817v2.331H6.47z" fill="#84879c"/><path d="M13.287 23.542H6.471a.47.47 0 01-.47-.47v-2.33a.47.47 0 01.47-.47h6.816a.47.47 0 01.47.47v2.331a.47.47 0 01-.47.469zm-6.347-.939h5.877v-1.39H6.94z" fill="#2f3a5a"/></g></svg>