<svg data-name="Layer 1" xmlns="http://www.w3.org/2000/svg" viewBox="0 0 313 58.46"><path d="M60.84 22.09a3.24 3.24 0 00-2.79-2.23l-17.61-1.6-7-16.29a3.24 3.24 0 00-6 0l-7 16.29L3 19.86a3.25 3.25 0 00-1.84 5.68l13.31 11.67-3.93 17.28A3.24 3.24 0 0015.36 58l15.19-9.08L45.73 58a3.25 3.25 0 004.83-3.51l-3.93-17.28 13.31-11.67a3.25 3.25 0 00.9-3.45zm63 0a3.24 3.24 0 00-2.79-2.23l-17.61-1.6-7-16.29a3.24 3.24 0 00-6 0l-7 16.29L66 19.86a3.25 3.25 0 00-1.84 5.68l13.31 11.67-3.93 17.28A3.24 3.24 0 0078.36 58l15.19-9.08L108.73 58a3.25 3.25 0 004.83-3.51l-3.93-17.28 13.31-11.67a3.25 3.25 0 00.9-3.45zm63 0a3.24 3.24 0 00-2.79-2.23l-17.61-1.6-7-16.29a3.24 3.24 0 00-6 0l-7 16.29-17.44 1.6a3.25 3.25 0 00-1.84 5.68l13.31 11.67-3.93 17.28a3.24 3.24 0 004.82 3.51l15.19-9.08L171.73 58a3.25 3.25 0 004.83-3.51l-3.93-17.28 13.31-11.67a3.25 3.25 0 00.9-3.45zm63 0a3.24 3.24 0 00-2.79-2.23l-17.61-1.6-7-16.29a3.24 3.24 0 00-6 0l-7 16.29-17.44 1.6a3.25 3.25 0 00-1.84 5.68l13.31 11.67-3.93 17.28a3.24 3.24 0 004.82 3.51l15.19-9.08L234.73 58a3.25 3.25 0 004.83-3.51l-3.93-17.28 13.31-11.67a3.25 3.25 0 00.9-3.45zm63 0a3.24 3.24 0 00-2.79-2.23l-17.61-1.6-7-16.29a3.24 3.24 0 00-6 0l-7 16.29-17.44 1.6a3.25 3.25 0 00-1.84 5.68l13.31 11.67-3.93 17.28a3.24 3.24 0 004.82 3.51l15.19-9.08L297.73 58a3.25 3.25 0 004.83-3.51l-3.93-17.28 13.31-11.67a3.25 3.25 0 00.9-3.45z" fill="#ffc107"/></svg>