<svg xmlns="http://www.w3.org/2000/svg" width="51.842" height="54.096"><g transform="translate(-.557 -1.542)"><path d="M52.023 32.93v-6.427l-6.812-1.062a19.1 19.1 0 00-2.464-5.946l4.067-5.565-4.546-4.546-5.569 4.066a19.1 19.1 0 00-5.946-2.464l-1.061-6.814h-6.428l-1.062 6.812a19.1 19.1 0 00-5.946 2.464l-5.569-4.066-4.546 4.548 4.065 5.568a19.1 19.1 0 00-2.464 5.946l-6.81 1.062v6.424l6.812 1.062a19.1 19.1 0 002.461 5.945l-4.062 5.571 4.546 4.546 5.567-4.064a19.1 19.1 0 005.946 2.464l1.062 6.812h6.428l1.062-6.812a19.1 19.1 0 005.945-2.464l5.569 4.066 4.546-4.546-4.066-5.569a19.1 19.1 0 002.464-5.946z" fill="#9297ab"/><path d="M30.753 10.987a28.041 28.041 0 016.181 2.765l-1.465 1.067a26.759 26.759 0 00-6.97-3.223L27.44 4.781h-4.275l.1-.609h6.431zm11.991 28.948l4.072 5.575-4.546 4.546-.954-.7 3.246-3.246-4.072-5.567a23.223 23.223 0 002.681-6.6l2.186-.338a23.155 23.155 0 01-2.613 6.33zm9.279-13.434v6.431l-2.254.353v-6.179l-6.815-1.059a18.994 18.994 0 00-2.464-5.951l4.072-5.567-3.944-3.944 1.653-1.21 4.546 4.546-4.072 5.575a18.879 18.879 0 012.464 5.943z" fill="#84879c"/><circle cx="11.47" cy="11.47" r="11.47" transform="translate(15.008 18.247)" fill="#fff"/><path d="M26.478 41.562a11.845 11.845 0 1111.846-11.846 11.845 11.845 0 01-11.846 11.846zm0-22.94a11.094 11.094 0 1011.095 11.094 11.094 11.094 0 00-11.095-11.094z" fill="#323c6b"/><circle cx="11.47" cy="11.47" r="11.47" transform="translate(15.008 18.247)" fill="#fff"/><path d="M26.478 41.562a11.845 11.845 0 1111.846-11.846 11.845 11.845 0 01-11.846 11.846zm0-22.94a11.094 11.094 0 1011.095 11.094 11.094 11.094 0 00-11.095-11.094z" fill="#323c6b"/><path d="M35 37.445l-4.233-6.2a6.537 6.537 0 00-6.687-9.789l2.5 3.657-.391 2.083-2.116 1.441-2.076-.391-2.5-3.657a6.537 6.537 0 006.687 9.782l4.182 6.125a11.989 11.989 0 004.631-3.051z" fill="#e1e6e9"/><path d="M35 37.448a11.284 11.284 0 01-1.165 1.082l-4.568-6.6a6.537 6.537 0 00-4.733-9.812l-.451-.661a6.541 6.541 0 016.687 9.79z" fill="#eeefee"/><g fill="#323c6b"><path d="M46.905 48.899a.376.376 0 01-.266-.642l.423-.422a.376.376 0 11.531.531l-.422.423a.376.376 0 01-.266.11zm-4.406 4.488a.376.376 0 01-.222-.075l-2.618-1.913a.376.376 0 11.443-.607l2.362 1.724 3.146-3.145a.376.376 0 11.531.531l-3.374 3.373a.376.376 0 01-.268.112zM20.339 8.246a.389.389 0 01-.058 0 .376.376 0 01-.313-.429l.089-.576a.376.376 0 11.742.115l-.089.576a.376.376 0 01-.371.314zm.361-2.313a.394.394 0 01-.065-.005.376.376 0 01-.306-.435l.635-3.639a.376.376 0 01.37-.311h2.7a.376.376 0 010 .751H21.65l-.581 3.328a.376.376 0 01-.37.311z"/><path d="M29.692 55.638h-6.428a.376.376 0 01-.371-.318l-1.023-6.566a19.428 19.428 0 01-5.6-2.318l-5.361 3.918a.376.376 0 01-.487-.038l-4.546-4.542a.376.376 0 01-.038-.487l3.917-5.364a19.427 19.427 0 01-2.319-5.6L.875 33.302a.376.376 0 01-.318-.371v-6.428a.376.376 0 01.318-.371l6.562-1.023a19.427 19.427 0 012.319-5.6l-3.917-5.361a.376.376 0 01.038-.487l4.546-4.546a.376.376 0 01.487-.038l5.364 3.917a19.438 19.438 0 015.6-2.319l1.023-6.562a.376.376 0 01.371-.318h6.428a.376.376 0 01.371.318l1.023 6.562a19.423 19.423 0 015.6 2.319l5.364-3.917a.376.376 0 01.487.038l4.546 4.546a.376.376 0 01.038.487L43.2 19.513a19.427 19.427 0 012.319 5.6l6.562 1.023a.376.376 0 01.318.371v6.428a.376.376 0 01-.318.371l-6.562 1.023a19.427 19.427 0 01-2.319 5.6l3.917 5.364a.376.376 0 01-.038.487l-4.546 4.546a.376.376 0 01-.487.038l-5.365-3.915a19.434 19.434 0 01-5.6 2.319l-1.023 6.561a.376.376 0 01-.372.318zm-6.107-.751h5.785l1.013-6.493a.376.376 0 01.288-.309 18.685 18.685 0 005.829-2.416.376.376 0 01.422.015l5.309 3.877 4.09-4.09-3.877-5.309a.376.376 0 01-.014-.422 18.682 18.682 0 002.41-5.829.376.376 0 01.309-.288l6.5-1.013v-5.785l-6.5-1.013a.376.376 0 01-.309-.288 18.682 18.682 0 00-2.413-5.831.376.376 0 01.014-.422l3.877-5.309-4.09-4.09-5.309 3.877a.376.376 0 01-.422.014 18.681 18.681 0 00-5.829-2.41.376.376 0 01-.288-.309l-1.013-6.5h-5.782l-1.012 6.495a.376.376 0 01-.288.308 18.7 18.7 0 00-5.828 2.416.376.376 0 01-.422-.014l-5.309-3.877-4.091 4.09 3.877 5.309a.376.376 0 01.015.422 18.674 18.674 0 00-2.415 5.829.376.376 0 01-.309.288l-6.494 1.015v5.785L7.8 33.622a.376.376 0 01.309.288 18.674 18.674 0 002.415 5.829.376.376 0 01-.015.422L6.634 45.47l4.09 4.09 5.309-3.877a.376.376 0 01.422-.015 18.674 18.674 0 005.828 2.415.376.376 0 01.288.309z"/><path d="M30.367 40.872a.376.376 0 01-.31-.164l-4.05-5.93A6.912 6.912 0 0119.175 24.4a.376.376 0 01.311-.185.363.363 0 01.323.164l2.41 3.531 1.771.334 1.867-1.267.334-1.777-2.416-3.531a.376.376 0 01.249-.583 6.912 6.912 0 017.19 10.143l4.1 6.005a.376.376 0 01-.037.469 12.42 12.42 0 01-4.775 3.147.38.38 0 01-.132.023zm-4.181-6.876a.376.376 0 01.31.164l4.014 5.879a11.65 11.65 0 004.007-2.634l-4.06-5.943a.376.376 0 01-.013-.4 6.161 6.161 0 00-5.7-9.295l2.153 3.135a.376.376 0 01.059.282l-.391 2.083a.376.376 0 01-.158.241l-2.12 1.44a.376.376 0 01-.281.059l-2.079-.391a.376.376 0 01-.24-.157l-2.144-3.141a6.161 6.161 0 006.583 8.683.344.344 0 01.059-.006z"/></g><path d="M13.061 35.777a.489.489 0 01-.451-.3 14.911 14.911 0 01-.284-10.745.489.489 0 11.922.325 13.937 13.937 0 00.264 10.044.489.489 0 01-.451.676zm.596-12.397a.482.482 0 01-.225-.058.488.488 0 01-.2-.66c.194-.364.417-.734.7-1.165a.488.488 0 11.816.537c-.266.406-.475.751-.655 1.089a.488.488 0 01-.435.258z" fill="#fff"/></g></svg>