<svg xmlns="http://www.w3.org/2000/svg" width="41.855" height="43.409"><path d="M9.049 9.143C15.959 2.233 26.555.619 33.692.398a7.617 7.617 0 017.856 7.856c-.218 7.144-1.831 17.737-8.744 24.644s-17.5 8.526-24.641 8.744a7.617 7.617 0 01-7.859-7.856c.218-7.137 1.831-17.733 8.741-24.643z" fill="#b98c6c"/><path d="M41.268 8.031a61.574 61.574 0 01-.14 2.663 50.69 50.69 0 01-.419 3.73c-.055.364-.109.728-.176 1.092a6.844 6.844 0 01-.067.37c-.085.473-.182.952-.285 1.438-1.14 5.4-3.391 11.082-7.655 15.347s-9.942 6.515-15.347 7.655c-.291.061-.576.121-.861.176-.158.036-.315.061-.467.091s-.321.061-.479.085a50.4 50.4 0 01-4.822.594c-.928.067-1.82.115-2.663.14a7.611 7.611 0 01-7.788-6.568 7.618 7.618 0 007.1 4.307c.382-.012.776-.03 1.183-.049a51.844 51.844 0 006.8-.776c5.781-1.043 12.047-3.3 16.663-7.916a29.567 29.567 0 007.37-14.055 48.875 48.875 0 001.1-6.478c.152-1.456.237-2.839.273-4.113a8.916 8.916 0 00-.061-1.28 7.6 7.6 0 01.74 3.542z" fill="#9b715b"/><path d="M6.315 20.192a.364.364 0 01-.334-.507 27.982 27.982 0 013.688-6.308.364.364 0 11.572.45A27.244 27.244 0 006.65 19.97a.364.364 0 01-.335.218zm-1.03 2.733a.364.364 0 01-.345-.479q.115-.347.237-.693a.364.364 0 01.687.243q-.121.339-.232.679a.364.364 0 01-.347.25z" fill="#fff"/><g fill="#323c6b"><path d="M14.177 28.076a.3.3 0 01-.215-.518l13.5-13.5a.303.303 0 11.429.429l-13.5 13.5a.3.3 0 01-.214.089z"/><path d="M27.002 18.157a.3.3 0 01-.215-.089l-2.906-2.911a.303.303 0 11.429-.429l2.907 2.907a.3.3 0 01-.215.518zm-3.081 3.081a.3.3 0 01-.215-.089L20.8 18.242a.303.303 0 11.429-.429l2.907 2.9a.3.3 0 01-.215.518zm-3.079 3.08a.3.3 0 01-.215-.089l-2.907-2.9a.303.303 0 11.429-.429l2.907 2.907a.3.3 0 01-.215.518zm-3.078 3.081a.3.3 0 01-.215-.089l-2.907-2.907a.3.3 0 11.422-.429l2.907 2.907a.3.3 0 01-.215.518zm-2.298 15.68a.301.301 0 01-.048-.6 44.611 44.611 0 006.775-1.62.303.303 0 11.189.576 45.184 45.184 0 01-6.868 1.643.3.3 0 01-.049 0zm-2.371.329a.304.304 0 01-.034-.607l.551-.065a.306.306 0 01.338.264.3.3 0 01-.264.338c-.187.024-.372.045-.557.066zM15.014 3.15a.3.3 0 01-.143-.571A27.616 27.616 0 0119.455.603a.303.303 0 11.182.578 27.054 27.054 0 00-4.477 1.934.3.3 0 01-.142.035zM21.079.733a.303.303 0 01-.082-.6c.16-.045.32-.088.48-.129a.304.304 0 11.151.588c-.155.04-.31.081-.465.125a.3.3 0 01-.084.011z"/></g><path d="M40.46 17.553L24.393 1.489a47.859 47.859 0 016.642-.94l10.373 10.373a49.164 49.164 0 01-.948 6.631z" fill="#eeefee"/><path d="M17.46 40.554L1.396 24.487a47.86 47.86 0 00-.94 6.642l10.373 10.373a49.165 49.165 0 006.632-.948zm23.667-29.86a50.69 50.69 0 01-.419 3.73c-.055.364-.109.728-.176 1.092a6.844 6.844 0 01-.067.37c-.085.473-.182.952-.285 1.438l-.964-.964a48.874 48.874 0 001.1-6.478z" fill="#e1e6e9"/><path d="M17.18 40.326c-.291.061-.576.121-.861.176-.158.036-.315.061-.467.091s-.321.061-.479.085a50.4 50.4 0 01-4.822.594l-2.166-2.166a51.844 51.844 0 006.8-.776z" fill="#e1e6e9"/><path d="M7.921 41.948a7.92 7.92 0 01-7.92-8.172c.231-7.538 1.95-17.968 8.83-24.848s17.31-8.6 24.848-8.83a7.921 7.921 0 018.169 8.169c-.227 7.537-1.947 17.967-8.827 24.847s-17.31 8.6-24.848 8.83h-.252zM33.935.7h-.234c-7.428.227-17.7 1.913-24.438 8.652S.838 26.366.611 33.794a7.313 7.313 0 007.543 7.543c7.428-.227 17.7-1.913 24.438-8.652s8.425-17.01 8.652-24.438A7.313 7.313 0 0033.933.7z" fill="#323c6b"/><path d="M40.46 17.857a.3.3 0 01-.215-.089L24.177 1.698a.3.3 0 01.15-.511 48.2 48.2 0 016.685-.946.3.3 0 01.237.088l10.374 10.376a.3.3 0 01.088.238 49.466 49.466 0 01-.954 6.675.3.3 0 01-.3.239zM25.003 1.669l15.274 15.275a49.385 49.385 0 00.816-5.908L30.919.859a47.981 47.981 0 00-5.915.809z" fill="#323c6b"/><path d="M17.46 40.554L1.396 24.487a47.86 47.86 0 00-.94 6.642l10.373 10.373a49.165 49.165 0 006.632-.948z" fill="#eeefee"/><path d="M10.826 41.804a.3.3 0 01-.215-.089L.238 31.343a.3.3 0 01-.088-.237 48.2 48.2 0 01.946-6.685.3.3 0 01.508-.151l16.071 16.069a.3.3 0 01-.15.511 49.464 49.464 0 01-6.675.954zM.766 31.012l10.176 10.175a49.386 49.386 0 005.908-.816L1.575 25.096a47.981 47.981 0 00-.809 5.915z" fill="#323c6b"/></svg>