<svg xmlns="http://www.w3.org/2000/svg" width="35.124" height="52.027"><g transform="translate(-13.954 -2.476)"><path d="M40.928 41.335c-4.935-5.037-6.425-12.726-6.307-21.646v-2.712a1.2 1.2 0 00-1.195-1.195h-3.819a1.2 1.2 0 00-1.195 1.195v2.711c.118 8.923-1.372 16.612-6.307 21.646zm3.819 9.299H18.286v-5.752a3.451 3.451 0 013.451-3.448h19.558a3.451 3.451 0 013.452 3.451z" fill="#eeefee"/><path d="M24.504 12.874a.381.381 0 01-.27-.113 2.367 2.367 0 01.016-3.348.381.381 0 11.533.541 1.6 1.6 0 00-.011 2.27.381.381 0 01-.268.65zm-5.99 6.752a.381.381 0 01-.27-.113 11.969 11.969 0 01.083-16.908.381.381 0 11.533.542 11.207 11.207 0 00-.076 15.831.381.381 0 01-.271.649z" fill="#323c6b"/><path d="M21.628 16.542a.381.381 0 01-.27-.113 7.58 7.58 0 01.052-10.713.381.381 0 01.533.542 6.817 6.817 0 00-.047 9.631.381.381 0 01-.271.649zm16.899-3.668a.381.381 0 01-.271-.649 1.6 1.6 0 00-.011-2.27.381.381 0 11.533-.541 2.367 2.367 0 01.016 3.348.381.381 0 01-.267.112zm5.991 6.752a.381.381 0 01-.271-.649 11.207 11.207 0 00-.076-15.831.382.382 0 11.534-.546 11.969 11.969 0 01.083 16.908.381.381 0 01-.27.114z" fill="#323c6b"/><path d="M41.403 16.541a.381.381 0 01-.271-.649 6.817 6.817 0 00-.047-9.631.381.381 0 11.533-.542 7.58 7.58 0 01.051 10.708.381.381 0 01-.266.114z" fill="#323c6b"/><circle cx="2.544" cy="2.544" r="2.544" transform="translate(28.972 8.516)" fill="#eeefee"/><path d="M40.927 41.335h-2.332c-4.93-5.037-6.424-12.726-6.3-21.649V16.98a1.193 1.193 0 00-1.2-1.2h2.332a1.192 1.192 0 011.189 1.2v2.705c-.113 8.924 1.373 16.613 6.311 21.65zm3.818 3.551v5.753h-2.324v-5.753a3.449 3.449 0 00-3.452-3.452h2.32a3.449 3.449 0 013.452 3.452zM34.061 11.059a2.547 2.547 0 01-2.126 2.507 2.515 2.515 0 00.678-1.722 2.55 2.55 0 00-2.545-2.545 2.523 2.523 0 00-.419.038 2.541 2.541 0 014.412 1.722z" fill="#e1e6e9"/><path d="M25.308 31.484a.373.373 0 01-.094-.012.381.381 0 01-.275-.463 19.362 19.362 0 00.6-4.776v-1a.381.381 0 01.762 0v1a20.129 20.129 0 01-.626 4.964.381.381 0 01-.37.287zm.614-7.716a.381.381 0 01-.381-.381v-.73a.381.381 0 01.762 0v.73a.381.381 0 01-.381.381zm21.115 23.354a.381.381 0 01-.381-.381v-1.858a5.311 5.311 0 00-1.635-3.844.382.382 0 11.533-.548 6.064 6.064 0 011.863 4.392v1.858a.381.381 0 01-.385.381zm-.005 2a.381.381 0 01-.381-.381v-.572a.381.381 0 11.762 0v.572a.381.381 0 01-.381.381z" fill="#323c6b"/><path d="M48.697 54.122v-.748a2.735 2.735 0 00-2.735-2.735H17.07a2.735 2.735 0 00-2.735 2.735v.748z" fill="#84879c"/><g fill="#323c6b"><path d="M48.7 54.504H14.335a.381.381 0 01-.381-.381v-.744a3.119 3.119 0 013.116-3.12h28.892a3.119 3.119 0 013.116 3.12v.748a.381.381 0 01-.378.377zm-33.981-.762h33.6v-.363a2.356 2.356 0 00-2.354-2.354H17.07a2.356 2.356 0 00-2.354 2.354z"/><path d="M44.745 51.02H18.286a.381.381 0 01-.381-.381v-5.757a3.836 3.836 0 013.832-3.829h19.558a3.836 3.836 0 013.832 3.832v5.756a.381.381 0 01-.382.379zm-26.079-.767h25.7v-5.371a3.073 3.073 0 00-3.069-3.067h-19.56a3.073 3.073 0 00-3.071 3.07zm15.975-27.331h-6.249a.381.381 0 110-.762h6.249a.381.381 0 110 .762zm.183 5.343h-6.616a.381.381 0 110-.762h6.616a.381.381 0 110 .762zm1.061 5.343h-8.739a.381.381 0 110-.762h8.739a.381.381 0 110 .762z"/><path d="M40.927 41.716H22.105a.381.381 0 01-.272-.648c4.364-4.453 6.334-11.245 6.2-21.374v-2.717a1.577 1.577 0 011.575-1.576h3.819a1.577 1.577 0 011.575 1.576v2.711c-.135 10.135 1.835 16.926 6.2 21.379a.381.381 0 01-.272.648zm-17.946-.762h17.07c-4.092-4.6-5.944-11.4-5.812-21.27v-2.707a.815.815 0 00-.813-.814h-3.82a.815.815 0 00-.813.814v2.711c.132 9.868-1.72 16.661-5.812 21.266zm8.534-26.969a2.925 2.925 0 112.925-2.925 2.925 2.925 0 01-2.925 2.925zm0-5.09a2.163 2.163 0 102.163 2.163 2.163 2.163 0 00-2.163-2.163z"/></g></g></svg>