<svg xmlns="http://www.w3.org/2000/svg" width="60.005" height="55.376"><g transform="translate(0 -10.123)"><path d="M39.973 28.629v3.4a2.171 2.171 0 104.343 0v-3.4z" fill="#d9e2e9"/><path d="M42.144 34.672a2.643 2.643 0 01-2.64-2.64v-3.4a.469.469 0 01.469-.469h4.342a.469.469 0 01.469.469v3.4a2.643 2.643 0 01-2.64 2.64zm-1.7-5.575v2.935a1.702 1.702 0 103.405 0v-2.934z" fill="#2f3a5a"/><path d="M49.978 33.005v3.4a2.171 2.171 0 104.343 0v-3.4z" fill="#d9e2e9"/><path d="M52.149 39.047a2.643 2.643 0 01-2.64-2.64v-3.405a.469.469 0 01.469-.469h4.343a.469.469 0 01.469.469v3.4a2.643 2.643 0 01-2.641 2.645zm-1.7-5.573v2.933a1.702 1.702 0 103.405 0v-2.932z" fill="#2f3a5a"/><path d="M20.032 28.629v3.4a2.171 2.171 0 11-4.343 0v-3.4z" fill="#d9e2e9"/><path d="M17.861 34.672a2.643 2.643 0 01-2.64-2.64v-3.4a.469.469 0 01.469-.469h4.342a.469.469 0 01.469.469v3.4a2.643 2.643 0 01-2.64 2.64zm-1.7-5.575v2.935a1.702 1.702 0 103.405 0v-2.934z" fill="#2f3a5a"/><path d="M10.027 33.005v3.4a2.171 2.171 0 11-4.343 0v-3.4z" fill="#d9e2e9"/><path d="M7.855 39.047a2.643 2.643 0 01-2.64-2.64v-3.405a.469.469 0 01.469-.469h4.343a.469.469 0 01.469.469v3.4a2.643 2.643 0 01-2.641 2.645zm-1.7-5.573v2.933a1.702 1.702 0 103.405 0v-2.932z" fill="#2f3a5a"/><path d="M33.748 27.243l25.788 12.525v4.573l-25-4.045z" fill="#81dafc"/><path d="M59.536 44.81a.485.485 0 01-.075-.006L34.456 40.76a.469.469 0 01-.393-.435L33.28 27.27a.469.469 0 01.673-.45l25.788 12.526a.469.469 0 01.264.422v4.573a.469.469 0 01-.469.469zm-24.559-4.916l24.09 3.9v-3.732l-24.8-12.048z" fill="#2f3a5a"/><path d="M26.257 27.243L.469 39.768v4.573l25-4.04z" fill="#81dafc"/><path d="M.469 44.81A.469.469 0 010 44.341v-4.573a.469.469 0 01.264-.422l25.788-12.525a.469.469 0 01.673.45l-.784 13.054a.469.469 0 01-.393.435l-25 4.044a.486.486 0 01-.075.007zm.469-4.748v3.729l24.09-3.9.713-11.879z" fill="#2f3a5a"/><path d="M31.702 49.399l11.7 5.684v2.075l-11.344-1.84z" fill="#81dafc"/><path d="M43.406 57.622a.485.485 0 01-.075-.006L31.983 55.78a.469.469 0 01-.393-.435l-.356-5.923a.469.469 0 01.672-.448l11.7 5.685a.469.469 0 01.264.422v2.075a.469.469 0 01-.469.469zm-10.9-2.707l10.431 1.688v-1.231l-10.716-5.2z" fill="#2f3a5a"/><path d="M28.303 49.399l-11.7 5.684v2.075l11.345-1.84z" fill="#81dafc"/><path d="M16.602 57.622a.469.469 0 01-.469-.469v-2.075a.469.469 0 01.264-.422l11.7-5.682a.469.469 0 01.673.45l-.351 5.923a.469.469 0 01-.393.435l-11.348 1.836a.483.483 0 01-.076 0zm.469-2.25v1.231l10.431-1.688.285-4.748z" fill="#2f3a5a"/><path d="M35.919 31.68c0 13.917-2.649 29.312-5.917 29.312s-5.916-15.393-5.916-29.312 2.649-21.088 5.921-21.088 5.912 7.17 5.912 21.088z" fill="#f0f5f9"/><path d="M35.915 31.68c0 13.919-2.649 29.313-5.915 29.313-.524 0-1.031-.4-1.512-1.117 2.531-3.782 4.4-16.507 4.4-28.2s-1.867-18.614-4.4-20.536A2.457 2.457 0 0130 10.588c3.266 0 5.915 7.169 5.915 21.088z" fill="#d9e2e9"/><path d="M30.002 61.461c-4.111 0-6.385-17.609-6.385-29.781 0-13.3 2.448-21.557 6.385-21.557s6.385 8.26 6.385 21.557c.001 12.172-2.273 29.781-6.385 29.781zm0-50.4c-2.711 0-5.448 6.375-5.448 20.619 0 15.534 3 28.843 5.448 28.843s5.448-13.31 5.448-28.843c0-14.244-2.736-20.619-5.448-20.619z" fill="#2f3a5a"/><ellipse cx="1.161" cy="6.698" rx="1.161" ry="6.698" transform="translate(28.841 51.633)" fill="#81dafc"/><path d="M30.002 65.494c-1.512 0-1.63-5.485-1.63-7.168s.118-7.167 1.63-7.167 1.63 5.485 1.63 7.167-.118 7.168-1.63 7.168zm0-13.215a19 19 0 00-.692 6.047 19 19 0 00.692 6.047 19 19 0 00.692-6.047 19 19 0 00-.692-6.048z" fill="#2f3a5a"/><path d="M32.313 17.317c0 .109 0 .214-.008.323a2.346 2.346 0 00-4.594 0c0-.109-.008-.214-.008-.323 0-2.145 1.031-3.883 2.306-3.883s2.304 1.738 2.304 3.883z" fill="#81dafc"/><path d="M27.705 18.109a.477.477 0 01-.084-.008.469.469 0 01-.385-.444c0-.131-.008-.234-.008-.339 0-2.44 1.219-4.352 2.775-4.352s2.775 1.912 2.775 4.352c0 .106 0 .208-.008.314a.483.483 0 01-.385.457.46.46 0 01-.516-.268 1.891 1.891 0 00-3.732 0 .469.469 0 01-.433.288zm2.3-2.808a2.576 2.576 0 011.681.663c-.288-1.2-.942-2.063-1.681-2.063s-1.393.86-1.681 2.063a2.576 2.576 0 011.681-.663z" fill="#2f3a5a"/></g></svg>