<svg xmlns="http://www.w3.org/2000/svg" viewBox="0 0 430.3 427.3"><path d="M214.6 427.6c-42.2 0-84.3.1-126.5 0-41.9-.2-75.6-27.3-84.5-67.7-1.4-6.2-1.8-12.5-1.8-18.9 0-84.5-.1-169 .1-253.5C2 43.3 31.7 8.8 75.3 1.8c3.8-.6 7.6-.7 11.5-.7 35.3-.1 70.7-.1 106 0 12.2 0 21.2 8 22.3 19.2 1.2 12.7-8.4 23.2-21.7 23.2-28.8.1-57.7.1-86.5.1-6 0-12-.1-18 0-26.1.2-44.4 18.3-44.5 44.4-.1 33.5 0 67 0 100.5V340c0 22 12.8 38.9 33 43.8 4.1 1 8.2 1.3 12.4 1.3h250.5c27.6 0 45.6-18.1 45.6-45.8 0-34.3-.1-68.7.1-103 .1-15.2 13.4-25.2 27.5-20.9 8.6 2.6 14.8 10.2 14.9 19.2.1 38.5.8 77-.4 115.5-1.3 40-38.1 76.1-78.3 77.2-37 1-74 .3-111 .4-8.1-.1-16.1-.1-24.1-.1z"/><path d="M384 74.1c-1.1 1.7-2 3.5-3.4 4.9-49.4 49.5-99 99-148.4 148.5-6.7 6.7-14.2 9.9-23.5 7-14.2-4.4-19.5-21.5-10.4-33.2 1.4-1.8 3.1-3.5 4.8-5.1 49.1-49.1 98.2-98.3 147.4-147.4 1.4-1.4 3.3-2.2 5.3-3.5-3.1-2.4-5-1.8-6.7-1.8-23.3-.1-46.7.1-70-.1-16.3-.2-26.3-16.7-18.9-30.8 4.1-8 11-11.6 20-11.6 22.7.1 45.3 0 68 0h57c14.9 0 23.2 8.4 23.2 23.2 0 41.8.1 83.6 0 125.5 0 10.5-6.2 18.6-15.8 21.1-9.1 2.4-18.8-1.6-23.7-9.7-2.4-4-3-8.4-3-13V75.2c-.6-.2-1.3-.7-1.9-1.1z"/></svg>