<svg xmlns="http://www.w3.org/2000/svg" width="260.457" height="206.854"><defs><linearGradient id="a" x1=".844" y1="1.137" x2=".387" y2=".307" gradientUnits="objectBoundingBox"><stop offset="0" stop-color="#c6d1ff"/><stop offset=".583" stop-color="#e6d5f4"/><stop offset=".997" stop-color="#ffd9ec"/></linearGradient></defs><g data-name="Group 590"><path data-name="Path 952" d="M255.3 116.507c-11.368-28.939-46.4-46.293-76.075-34.807-33.871 13.109-22.64 66.983-53.405 77.877-16.619 5.885-41.186-16.1-57.976-19.468C36.9 133.9 8.894 155.727 2 185.958-5.039 216.8 6.246 258 40.133 266.367c40.366 9.972 61.392-26.315 95.254-36.734 34.75-10.692 73.387 14.56 102.155-16.165 21.254-22.7 29.024-68.3 17.762-96.961z" transform="translate(0 -65.18)" fill="url(#a)"/></g><path data-name="Path 953" d="M242.574 64.05a36.383 36.383 0 00-70.418-12.857H40.601a10.174 10.174 0 00-10.174 10.174v112.636a10.174 10.174 0 0010.174 10.174h179.255a10.174 10.174 0 0010.174-10.174V91.522a36.288 36.288 0 0012.544-27.472z" fill="#2626bc" opacity=".1"/><g data-name="Group 600"><g data-name="Group 592"><path data-name="Path 954" d="M219.856 171.459H40.601a10.174 10.174 0 01-10.174-10.174V48.653a10.174 10.174 0 0110.174-10.174h179.255a10.174 10.174 0 0110.174 10.174v112.632a10.173 10.173 0 01-10.174 10.174z" fill="#9fb0fe"/><g data-name="Group 591"><path data-name="Path 955" d="M230.031 48.656v42.986a36.38 36.38 0 01-49.609-53.16h39.435a10.175 10.175 0 0110.174 10.174z" fill="#8399fe"/><path data-name="Path 956" d="M230.031 48.656v12.825l-90.5 69.525a15.266 15.266 0 01-18.6 0L30.426 61.481V48.656A10.175 10.175 0 0140.6 38.482h179.257a10.175 10.175 0 0110.174 10.174z" fill="rgba(23,17,68,0.3)"/><path data-name="Path 957" d="M133.328 87.002l96.7 74.284a10.174 10.174 0 01-10.174 10.174H40.601a10.174 10.174 0 01-10.174-10.174l96.7-74.284a5.087 5.087 0 016.2 0z" fill="#8399fe"/></g><path data-name="Path 958" d="M165.069 111.384l-25.542 19.624a15.266 15.266 0 01-18.6 0l-25.54-19.624 31.743-24.382a5.084 5.084 0 016.2 0z" fill="rgba(23,17,68,0.3)"/><path data-name="Path 959" d="M127.13 122.937L30.427 48.653a10.174 10.174 0 0110.174-10.174h179.255a10.174 10.174 0 0110.174 10.174l-96.7 74.284a5.088 5.088 0 01-6.2 0z" fill="#b7c5ff"/></g><g data-name="Group 598"><path data-name="Path 960" d="M188.699 157.922h-16.342a2.544 2.544 0 01-2.544-2.544v-11.27a2.544 2.544 0 012.544-2.544h16.342a2.544 2.544 0 012.544 2.544v11.27a2.544 2.544 0 01-2.544 2.544z" fill="#02ffb3"/><g data-name="Group 597"><g data-name="Group 594"><g data-name="Group 593"><path data-name="Path 961" d="M158.65 147.553h-14.158a2.544 2.544 0 010-5.087h14.158a2.544 2.544 0 110 5.087z" fill="#fff"/></g></g><g data-name="Group 596"><g data-name="Group 595"><path data-name="Path 962" d="M158.651 157.921h-49.768a2.544 2.544 0 110-5.087h49.768a2.544 2.544 0 110 5.087z" fill="#fff"/></g></g></g></g><g data-name="Group 599"><path data-name="Path 974" d="M206.193 14.952a36.381 36.381 0 11-36.381 36.381 36.381 36.381 0 0136.381-36.381z" fill="#f67efd"/><path data-name="Path 963" d="M206.193 90.257a38.99 38.99 0 10-23.84-8.188l-50.575 38.851a2.545 2.545 0 01-3.1 0L33.061 47.47a7.643 7.643 0 017.539-6.447h116.681a2.544 2.544 0 100-5.087H40.602a12.732 12.732 0 00-12.718 12.718v112.631a12.732 12.732 0 0012.718 12.718h179.254a12.732 12.732 0 0012.715-12.718v-67.22a2.544 2.544 0 00-5.087 0v62.059l-66.593-51.155 25.913-19.906a38.67 38.67 0 0019.389 5.194zm-106.63 14.712l-66.592 51.155V53.815zm127.823 57.493a7.636 7.636 0 01-7.53 6.454H40.602a7.636 7.636 0 01-7.531-6.454l70.669-54.285 21.841 16.777a7.64 7.64 0 009.3 0l21.841-16.778zm-55.03-111.13a33.837 33.837 0 1133.837 33.837 33.876 33.876 0 01-33.837-33.837z" fill="#171144"/></g><path data-name="Path 964" d="M190.314 38.926l5.192 12.407-5.192 12.407a2.543 2.543 0 003.345 3.321l31.346-13.389a2.543 2.543 0 000-4.678l-31.346-13.389a2.543 2.543 0 00-3.345 3.321z" fill="#fff"/><path data-name="Path 965" d="M207.347 53.708l-15.63 6.679 3.786-9.055-3.79-9.055 15.634 6.679a2.661 2.661 0 010 4.752z" fill="#ffdbed"/></g><path data-name="Path 966" d="M168.293 14.745a7.373 7.373 0 115.215-2.157 7.351 7.351 0 01-5.215 2.157zm0-9.661a2.288 2.288 0 101.618.669 2.283 2.283 0 00-1.618-.668z" fill="#00eca2"/><path data-name="Path 967" d="M111.171 206.855a7.373 7.373 0 115.216-2.157 7.354 7.354 0 01-5.216 2.157zm0-9.661a2.288 2.288 0 101.619.669 2.283 2.283 0 00-1.619-.669z" fill="#00eca2"/><path data-name="Path 968" d="M149.956 21.295a2.535 2.535 0 01-1.8-.745l-3.034-3.034-3.034 3.034a2.546 2.546 0 01-3.6-3.6l4.833-4.833a2.543 2.543 0 013.6 0l4.833 4.833a2.543 2.543 0 01-1.8 4.342z" fill="#ff7eb8"/><path data-name="Path 969" d="M223.701 197.192a2.535 2.535 0 01-1.8-.745l-3.034-3.034-3.033 3.037a2.546 2.546 0 11-3.6-3.6l4.833-4.833a2.543 2.543 0 013.6 0l4.833 4.833a2.543 2.543 0 01-1.8 4.342z" fill="#ff7eb8"/><path data-name="Path 970" d="M90.999 199.608a2.535 2.535 0 01-1.8-.745l-3.034-3.034-3.034 3.034a2.546 2.546 0 01-3.6-3.6l4.833-4.833a2.543 2.543 0 013.6 0l4.833 4.833a2.543 2.543 0 01-1.8 4.342z" fill="#6583fe"/></svg>