<svg xmlns="http://www.w3.org/2000/svg" width="69.573" height="51.793" viewBox="0 0 69.573 51.793"><g transform="translate(0 -16.353)"><rect width="6.05" height="4.189" rx="1.963" transform="translate(62.98 27.293)" fill="#707583"/><path d="M120.4,40.756h-3.913a1.613,1.613,0,0,1-1.611-1.611V37.092a1.613,1.613,0,0,1,1.611-1.611H120.4a1.613,1.613,0,0,1,1.611,1.611v2.054A1.613,1.613,0,0,1,120.4,40.756Zm-3.913-4.189a.524.524,0,0,0-.523.523v2.054a.524.524,0,0,0,.523.523H120.4a.524.524,0,0,0,.523-.523V37.092a.524.524,0,0,0-.523-.523Z" transform="translate(-52.435 -8.731)" fill="#2f3a5a"/><path d="M107.176,47.069a.544.544,0,0,1-.313-.988l4.787-3.365a.544.544,0,1,1,.625.889l-4.787,3.365A.54.54,0,0,1,107.176,47.069Z" transform="translate(-48.673 -11.988)" fill="#2f3a5a"/><rect width="6.05" height="4.189" rx="1.963" transform="translate(6.593 31.481) rotate(180)" fill="#707583"/><path d="M5.526,40.756H1.613A1.613,1.613,0,0,1,0,39.145V37.091A1.613,1.613,0,0,1,1.611,35.48H5.524a1.613,1.613,0,0,1,1.611,1.611v2.054a1.613,1.613,0,0,1-1.608,1.611ZM1.613,36.567a.524.524,0,0,0-.526.524v2.054a.524.524,0,0,0,.523.523H5.524a.524.524,0,0,0,.523-.523V37.091a.524.524,0,0,0-.523-.523Z" transform="translate(0 -8.731)" fill="#2f3a5a"/><path d="M15.891,47.069a.54.54,0,0,1-.312-.1l-4.787-3.365a.544.544,0,1,1,.625-.889L16.2,46.081a.544.544,0,0,1-.313.988Z" transform="translate(-4.821 -11.988)" fill="#2f3a5a"/><rect width="9.866" height="15.619" rx="3.707" transform="translate(54.073 51.968) rotate(-0.115)" fill="#3a556a"/><path d="M101.037,97.6a2.558,2.558,0,0,1-2.558-2.555L98.461,83.46a2.558,2.558,0,0,1,2.555-2.563l5.836-.01h0a2.558,2.558,0,0,1,2.558,2.555l.019,11.589a2.558,2.558,0,0,1-2.555,2.562l-5.836.01Zm5.816-15.628-5.836.01a1.471,1.471,0,0,0-1.468,1.474l.019,11.589a1.472,1.472,0,0,0,1.471,1.468l5.836-.01a1.471,1.471,0,0,0,1.468-1.474l-.019-11.589a1.471,1.471,0,0,0-1.471-1.468Z" transform="translate(-44.944 -29.457)" fill="#2f3a5a"/><rect width="9.866" height="15.619" rx="3.707" transform="translate(5.639 51.984) rotate(-0.115)" fill="#3a556a"/><path d="M11.93,97.6a2.558,2.558,0,0,1-2.558-2.555L9.353,83.46A2.558,2.558,0,0,1,11.908,80.9l5.836-.01h.005a2.561,2.561,0,0,1,2.558,2.555l.019,11.589a2.558,2.558,0,0,1-2.555,2.562l-5.836.01Zm5.816-15.628-5.836.01a1.471,1.471,0,0,0-1.468,1.474l.019,11.589a1.472,1.472,0,0,0,1.471,1.468l5.836-.01a1.471,1.471,0,0,0,1.468-1.474l-.02-11.588a1.471,1.471,0,0,0-1.471-1.468Z" transform="translate(-4.269 -29.457)" fill="#2f3a5a"/><path d="M69.119,49.039a41.682,41.682,0,0,1-1.327,8.739,4.489,4.489,0,0,1-4.342,3.331l-26.4.035h-.059l-26.411.047a4.466,4.466,0,0,1-4.343-3.309,41.728,41.728,0,0,1-1.37-9.029c-.054-1.438-.018-2.7.046-3.75a13.56,13.56,0,0,1,1.61-5.552l3.316-6.2S15.69,19.874,18.17,18.79c1.2-.528,5.621-.88,9.892-1.1,4.255-.217,8.346-.32,8.85-.333h.059c1.023.019,16.347.322,18.744,1.356C58.2,19.807,64.1,33.261,64.1,33.261l3.338,6.18a13.572,13.572,0,0,1,1.621,5.565,34.465,34.465,0,0,1,.058,4.032Z" transform="translate(-2.209 -0.459)" fill="#f14253"/><path d="M10.108,61.275a5,5,0,0,1-4.855-3.716A42.243,42.243,0,0,1,3.867,48.41c-.047-1.268-.032-2.511.046-3.8a14.2,14.2,0,0,1,1.674-5.777l3.316-6.2c.589-1.359,5.994-13.666,8.594-14.8,1.073-.471,4.465-.856,10.081-1.141,3.779-.194,7.437-.3,8.834-.333h.073c2.782.054,16.584.364,18.989,1.4,2.609,1.146,8.056,13.43,8.668,14.827l3.316,6.142a14.052,14.052,0,0,1,1.685,5.789A34.87,34.87,0,0,1,69.2,48.6a42.229,42.229,0,0,1-1.344,8.853,5.031,5.031,0,0,1-4.867,3.738l-26.392.037h-.063l-26.408.047ZM36.457,16.9l-.016.544c-1.393.035-5.04.138-8.805.331-7.192.369-9.164.818-9.7,1.053-1.664.729-5.823,9.147-8.053,14.283L6.545,39.347A13.1,13.1,0,0,0,5,44.678c-.076,1.25-.091,2.462-.045,3.7A41.14,41.14,0,0,0,6.3,57.288a3.913,3.913,0,0,0,3.8,2.9h.014l26.416-.049H36.6L63,60.107a3.943,3.943,0,0,0,3.817-2.924,41.146,41.146,0,0,0,1.305-8.627,33.867,33.867,0,0,0-.054-3.968,12.981,12.981,0,0,0-1.558-5.349L63.169,33.06c-2.268-5.166-6.457-13.573-8.126-14.307-1.836-.791-12.515-1.2-18.535-1.309Z" transform="translate(-1.753)" fill="#2f3a5a"/><path d="M67.7,35.014l-22.319.038h-.054l-6.175.008-2.9.008H34.428l-1.515.008H32.9l-9.9.015,4.7-10.458a1.555,1.555,0,0,1,1.373-.908l11.958-.338h.008l1.531-.045,1.868-.054.892-.022h.022l1.965.045,14.273.355a1.549,1.549,0,0,1,1.373.915Z" transform="translate(-10.503 -3.155)" fill="#3dbce9"/><path d="M22.544,35.174a.544.544,0,0,1-.5-.766l4.7-10.456A2.1,2.1,0,0,1,28.6,22.719l16.258-.458h.054l16.236.4A2.106,2.106,0,0,1,63,23.889l4.735,10.44a.544.544,0,0,1-.494.768ZM44.877,23.348,28.631,23.8a1.011,1.011,0,0,0-.889.592l-4.356,9.69L66.4,34.014l-4.388-9.675a1.012,1.012,0,0,0-.89-.59l-16.234-.4Z" transform="translate(-10.042 -2.697)" fill="#2f3a5a"/><path d="M65.2,71.465H44.5a.544.544,0,1,1,0-1.087H65.2a.544.544,0,0,1,0,1.087Z" transform="translate(-20.066 -24.66)" fill="#2f3a5a"/><path d="M65.2,75.876H44.5a.544.544,0,1,1,0-1.087H65.2a.544.544,0,0,1,0,1.087Z" transform="translate(-20.066 -26.674)" fill="#2f3a5a"/><path d="M46.838,83.17H65.494v4.778H46.838Z" transform="translate(-21.38 -30.499)" fill="#f0f5f9"/><path d="M65.038,88.035H46.382a.544.544,0,0,1-.544-.544V82.714a.544.544,0,0,1,.544-.544H65.038a.544.544,0,0,1,.544.544v4.778A.544.544,0,0,1,65.038,88.035ZM46.925,86.948H64.494V83.257H46.925Z" transform="translate(-20.923 -30.043)" fill="#2f3a5a"/><path d="M102.84,64.313s-13.323.94-13.793,7.68H102.84a7.276,7.276,0,0,0,0-7.68Z" transform="translate(-40.646 -21.892)" fill="#f0f5f9"/><path d="M102.382,72.08H88.588a.544.544,0,0,1-.544-.582c.5-7.129,13.734-8.144,14.3-8.185a.553.553,0,0,1,.51.272,7.818,7.818,0,0,1,0,8.219A.544.544,0,0,1,102.382,72.08ZM89.21,70.993h12.85a6.625,6.625,0,0,0,.016-6.563c-1.978.2-11.819,1.438-12.867,6.563Z" transform="translate(-40.188 -21.435)" fill="#2f3a5a"/><path d="M12.657,64.313s13.323.94,13.793,7.68H12.657A7.276,7.276,0,0,1,12.657,64.313Z" transform="translate(-5.277 -21.892)" fill="#f0f5f9"/><path d="M25.994,72.083H12.2a.544.544,0,0,1-.472-.272,7.818,7.818,0,0,1,0-8.219.55.55,0,0,1,.51-.272c.563.04,13.8,1.056,14.3,8.185a.544.544,0,0,1-.544.582ZM12.522,71h12.85c-1.047-5.126-10.889-6.365-12.866-6.563A6.625,6.625,0,0,0,12.521,71Z" transform="translate(-4.82 -21.439)" fill="#2f3a5a"/><g transform="translate(8.669 44.776)"><circle cx="1.783" cy="1.783" r="1.783" transform="translate(48.856)" fill="#c1cdd3"/><circle cx="1.216" cy="1.216" r="1.216" transform="translate(44.753 0.99)" fill="#c1cdd3"/><circle cx="1.783" cy="1.783" r="1.783" fill="#c1cdd3"/><circle cx="1.216" cy="1.216" r="1.216" transform="translate(5.235 0.99)" fill="#c1cdd3"/></g></g></svg>