<svg xmlns="http://www.w3.org/2000/svg" width="63.844" height="74.392" viewBox="0 0 63.844 74.392"><g transform="translate(-10.271 0.571)"><path d="M46.6,8.952V38.874H15.229l-.884-3.466s7.99-4.855,8.175-12.486c0,0,8.534-2.4,10.553-8.243,0,.029,10.263-.835,13.525-5.728Z" transform="translate(-1.827 -4.573)" fill="#ebf0f3" stroke="#2f3a5a" stroke-width="1"/><path d="M52.352,41.819,31.07,28.974s8.534-2.4,10.553-8.243Z" transform="translate(-10.377 -10.595)" fill="#d5d6db" stroke="#2f3a5a" stroke-width="1"/><path d="M14.346,63.874v9.893a8.738,8.738,0,0,0,8.738,8.738H56a8.738,8.738,0,0,0,8.738-8.738V63.874Z" transform="translate(-1.828 -32.65)" fill="#e56353" stroke="#2f3a5a" stroke-width="1"/><path d="M65.4,13.358a3.584,3.584,0,0,1-.9-.214l-.767.4a1.091,1.091,0,0,0-.408.349L20.344,74.445a1.149,1.149,0,0,0,1.87,1.335l0-.005,42.825-60.33,1.048-.544a3.964,3.964,0,0,1-.689-1.544Z" transform="translate(-4.787 -6.716)" fill="#3a556a" stroke="#2f3a5a" stroke-width="1"/><path d="M123.858.661a1.224,1.224,0,0,0-1.651-.515L109.459,6.709l-.048.194,1.243,1.806h.165l12.524-6.447A1.224,1.224,0,0,0,123.858.661Z" transform="translate(-50.426)" fill="#e56353" stroke="#2f3a5a" stroke-width="1"/><path d="M87.581,108.648a1.154,1.154,0,0,1-.971-.457L63.756,78.308a1.149,1.149,0,0,1,1.825-1.4l22.883,29.9a1.145,1.145,0,0,1-.207,1.607l-.006,0a1.086,1.086,0,0,1-.67.223Z" transform="translate(-26.966 -39.084)" fill="#3a556a" stroke="#2f3a5a" stroke-width="1"/><circle cx="6.301" cy="6.301" r="6.301" transform="translate(10.771 60.719)" fill="#3a556a" stroke="#2f3a5a" stroke-width="1"/><path d="M19.6,129.084a3.883,3.883,0,1,0,3.883,3.883A3.883,3.883,0,0,0,19.6,129.084Z" transform="translate(-2.528 -65.986)" fill="#e1e6e9" stroke="#2f3a5a" stroke-width="1"/><circle cx="6.301" cy="6.301" r="6.301" transform="translate(53.664 60.719)" fill="#3a556a" stroke="#2f3a5a" stroke-width="1"/><path d="M107.355,129.084a3.883,3.883,0,1,0,3.883,3.883A3.883,3.883,0,0,0,107.355,129.084Z" transform="translate(-47.39 -65.986)" fill="#e1e6e9" stroke="#2f3a5a" stroke-width="1"/><path d="M60.509,71.6a5.126,5.126,0,1,0,5.126,5.126A5.127,5.127,0,0,0,60.509,71.6Z" transform="translate(-22.806 -36.6)" fill="#e1e6e9" stroke="#2f3a5a" stroke-width="1"/><circle cx="2.893" cy="2.893" r="2.893" transform="translate(34.81 37.233)" fill="#3a556a" stroke="#2f3a5a" stroke-width="1"/></g></svg>