<svg xmlns="http://www.w3.org/2000/svg" width="66.179" height="60.945" viewBox="0 0 66.179 60.945"><g transform="translate(-2.324 -4.695)"><rect width="17.886" height="53.387" rx="2.314" transform="translate(48.026 62.294) rotate(180)" fill="#fe7058"/><path d="M49.29,11.31v2.621a2.213,2.213,0,0,0-2.219-2.21H33.61a2.211,2.211,0,0,0-2.21,2.21V11.31A2.211,2.211,0,0,1,33.61,9.1H47.07a2.213,2.213,0,0,1,2.219,2.21Z" transform="translate(-1.26 -0.191)" fill="#ea6453"/><path d="M31.4,24.054a35.948,35.948,0,0,1,17.9,0V19.1a39.606,39.606,0,0,0-17.9,0Z" transform="translate(-1.26 -0.58)" fill="#ebf0f3"/><path d="M31.378,24.511a.478.478,0,0,1-.478-.478V19.075a.478.478,0,0,1,.383-.469,39.971,39.971,0,0,1,18.081,0,.478.478,0,0,1,.383.469v4.957a.478.478,0,0,1-.579.468,35.485,35.485,0,0,0-17.7,0,.493.493,0,0,1-.091.011Zm.478-5.043v3.974a35.547,35.547,0,0,1,16.939,0V19.468a38.661,38.661,0,0,0-16.939,0Z" transform="translate(-1.238 -0.558)" fill="#323c6b"/><rect width="19.987" height="53.387" rx="2.314" transform="translate(68.024 62.294) rotate(180)" fill="#fcd462"/><path d="M67.881,9.1H52.322a2.211,2.211,0,0,0-2.209,2.174H65.668a2.214,2.214,0,0,1,2.214,2.214v49a2.214,2.214,0,0,0,2.213-2.214V11.312A2.214,2.214,0,0,0,67.881,9.1Z" transform="translate(-2.071 -0.191)" fill="#f7be56"/><path d="M56.337,16.312h8.069V40.427H56.337Z" transform="translate(-2.341 -0.503)" fill="#ebf0f3"/><path d="M64.384,40.883H56.315a.478.478,0,0,1-.478-.478V16.29a.478.478,0,0,1,.478-.478h8.069a.478.478,0,0,1,.478.478V40.405A.478.478,0,0,1,64.384,40.883Zm-7.59-.957h7.112V16.769H56.794Z" transform="translate(-2.319 -0.482)" fill="#323c6b"/><path d="M50.108,53.468H70.095v4.2H50.108Z" transform="translate(-2.071 -2.113)" fill="#ebf0f3"/><g transform="translate(29.662 8.431)"><path d="M70.073,58.125H50.086a.478.478,0,0,1-.478-.478v-4.2a.478.478,0,0,1,.478-.478H70.073a.478.478,0,0,1,.478.478v4.2A.478.478,0,0,1,70.073,58.125Zm-19.508-.957h19.03V53.925H50.565Z" transform="translate(-31.711 -10.523)" fill="#323c6b"/><path d="M37.778,57.7a.478.478,0,0,1-.478-.478l.02-17.5a.478.478,0,1,1,.957,0l-.02,17.5a.478.478,0,0,1-.478.477Z" transform="translate(-31.177 -9.928)" fill="#323c6b"/><path d="M43.656,57.732a.478.478,0,0,1-.478-.478l.021-17.5a.478.478,0,0,1,.957,0l-.02,17.5a.478.478,0,0,1-.479.478Z" transform="translate(-31.432 -9.929)" fill="#323c6b"/><path d="M68.283,68.357h-8.43a.478.478,0,0,1,0-.957h8.43a.478.478,0,0,1,0,.957Z" transform="translate(-32.134 -11.148)" fill="#323c6b"/><path d="M57,68.357h-.9a.478.478,0,0,1,0-.957H57a.478.478,0,0,1,0,.957Z" transform="translate(-31.971 -11.148)" fill="#323c6b"/><path d="M67.86,62.939H52.3a2.694,2.694,0,0,1-2.691-2.691V11.29A2.694,2.694,0,0,1,52.3,8.6H67.86a2.694,2.694,0,0,1,2.691,2.69V60.25a2.694,2.694,0,0,1-2.691,2.689ZM52.3,9.557a1.736,1.736,0,0,0-1.734,1.734V60.25A1.736,1.736,0,0,0,52.3,61.982H67.86a1.736,1.736,0,0,0,1.734-1.733V11.29A1.736,1.736,0,0,0,67.86,9.557Z" transform="translate(-31.711 -8.6)" fill="#323c6b"/><path d="M47.051,62.939H33.593A2.7,2.7,0,0,1,30.9,60.25V11.29A2.7,2.7,0,0,1,33.593,8.6H47.051a2.694,2.694,0,0,1,2.695,2.69V60.25A2.694,2.694,0,0,1,47.051,62.939ZM33.593,9.557a1.737,1.737,0,0,0-1.736,1.733V60.25a1.737,1.737,0,0,0,1.736,1.733H47.051A1.736,1.736,0,0,0,48.79,60.25V11.29a1.736,1.736,0,0,0-1.738-1.733Z" transform="translate(-30.9 -8.6)" fill="#323c6b"/></g><rect width="17.889" height="53.387" rx="2.314" transform="translate(19.91 63.555) rotate(-168.229)" fill="#89c5cd"/><path d="M30.814,13.605,20.836,61.544a2.216,2.216,0,0,1-2.621,1.712l-.038-.01,9.94-47.728a2.213,2.213,0,0,0-1.722-2.612L13.25,10.171l.048-.21a2.216,2.216,0,0,1,2.621-1.712L29.1,10.993a2.206,2.206,0,0,1,1.712,2.612Z" transform="translate(-0.473 -0.152)" fill="#7cb1b5"/><path d="M10.3,24.229a35.953,35.953,0,0,1,17.52,3.648l1.126-5.407a39.606,39.606,0,0,0-17.52-3.648Z" transform="translate(-0.346 -0.612)" fill="#ebf0f3"/><path d="M27.794,28.334a.472.472,0,0,1-.191-.041,35.365,35.365,0,0,0-17.324-3.607.422.422,0,0,1-.373-.175.478.478,0,0,1-.1-.4L10.936,18.7a.467.467,0,0,1,.472-.383,39.972,39.972,0,0,1,17.7,3.686.478.478,0,0,1,.281.538l-1.129,5.409a.478.478,0,0,1-.468.383ZM10.88,23.728A35.537,35.537,0,0,1,27.447,27.18l.925-4.445a38.676,38.676,0,0,0-16.585-3.453l-.925,4.445Z" transform="translate(-0.324 -0.59)" fill="#323c6b"/><path d="M9.378,56.023a.5.5,0,0,1-.106-.011.478.478,0,0,1-.36-.574l3.594-15.808a.478.478,0,1,1,.933.212L9.846,55.65A.478.478,0,0,1,9.378,56.023Z" transform="translate(-0.285 -1.498)" fill="#323c6b"/><path d="M15.106,57.353A.5.5,0,0,1,15,57.341a.478.478,0,0,1-.36-.574l3.6-15.806a.478.478,0,1,1,.933.212l-3.6,15.807A.478.478,0,0,1,15.106,57.353Z" transform="translate(-0.533 -1.555)" fill="#323c6b"/><path d="M9.036,15.788a.478.478,0,0,1-.469-.574l.118-.563a.478.478,0,1,1,.937.191l-.118.563a.478.478,0,0,1-.468.383Z" transform="translate(-0.27 -0.414)" fill="#323c6b"/><path d="M9.661,12.5a.457.457,0,0,1-.108-.012.478.478,0,0,1-.358-.574l.651-2.8a5.56,5.56,0,0,1,6.577-4.305.478.478,0,0,1-.191.937A4.6,4.6,0,0,0,10.78,9.319l-.653,2.807A.478.478,0,0,1,9.661,12.5Z" transform="translate(-0.297)" fill="#323c6b"/><path d="M18.2,63.761a2.689,2.689,0,0,1-.554-.058L4.467,60.961A2.694,2.694,0,0,1,2.38,57.777L12.358,9.843A2.69,2.69,0,0,1,15.54,7.757L28.721,10.5a2.7,2.7,0,0,1,2.088,3.185L20.827,61.618A2.694,2.694,0,0,1,18.2,63.761ZM4.662,60.024l13.176,2.743a1.734,1.734,0,0,0,2.053-1.344l9.981-47.929a1.736,1.736,0,0,0-1.344-2.053L15.346,8.694a1.734,1.734,0,0,0-2.053,1.344L3.317,57.972a1.736,1.736,0,0,0,1.344,2.053Z" transform="translate(0 -0.13)" fill="#323c6b"/><path d="M68.687,53.953h1.734v3.258H68.687Z" transform="translate(-2.876 -2.134)" fill="#e1e6e9"/><path d="M53.289,48.141a.526.526,0,0,1-.526-.526V39.185a.526.526,0,0,1,1.052,0v8.43A.526.526,0,0,1,53.289,48.141Z" transform="translate(-2.186 -1.472)" fill="#fff"/><path d="M53.289,36.634a.526.526,0,0,1-.526-.526v-.9a.526.526,0,1,1,1.052,0v.9A.526.526,0,0,1,53.289,36.634Z" transform="translate(-2.186 -1.3)" fill="#fff"/></g></svg>