<svg xmlns="http://www.w3.org/2000/svg" width="64.448" height="63.582" viewBox="0 0 64.448 63.582"><g transform="translate(0 -0.857)"><path d="M61.069,9.081a.5.5,0,0,1-.5-.5V6.3a.5.5,0,0,1,.5-.5,1.964,1.964,0,1,0-1.926-2.338.5.5,0,1,1-.988-.191,2.971,2.971,0,1,1,3.418,3.493V8.577A.5.5,0,0,1,61.069,9.081Z" transform="translate(-28.868 0)" fill="#2f3a5a"/><path d="M63.7,24.183H35.511a.5.5,0,0,1-.248-.942l14.094-7.985a.5.5,0,0,1,.5,0l14.094,7.985a.5.5,0,0,1-.248.942ZM37.422,23.176H61.79l-12.185-6.9Z" transform="translate(-17.381 -7.117)" fill="#2f3a5a"/><path d="M52.206,25H41.8a15.674,15.674,0,0,1-1.057,3.923,8.786,8.786,0,0,1-16.139,0A15.939,15.939,0,0,1,23.536,25h-10.4L1,39.478l10.031,8.095,3.75-4.91V75.922H50.558V42.663L54.4,47.7l10.044-8.1Z" transform="translate(-0.497 -11.987)" fill="#ef5361"/><g transform="translate(46.483 13.013)" opacity="0.5"><path d="M97.546,25H93.971l12.235,14.6L99.51,45l-3.7-4.453A1.972,1.972,0,0,0,92.32,41.8V75.921h3.575V42.371l2.915,3.192-.434.352L99.735,47.7l10.046-8.1Z" transform="translate(-92.32 -25)" fill="#da2a47"/></g><path d="M50.062,75.929H14.284a.5.5,0,0,1-.5-.5V43.655l-2.845,3.726a.5.5,0,0,1-.716.086L.187,39.373a.5.5,0,0,1-.07-.715L12.252,24.18a.5.5,0,0,1,.386-.18h10.4a.5.5,0,0,1,.5.43,15.536,15.536,0,0,0,1.029,3.8,8.282,8.282,0,0,0,15.21,0,15.214,15.214,0,0,0,1.023-3.8A.5.5,0,0,1,41.3,24H51.71a.5.5,0,0,1,.386.18l12.235,14.6a.5.5,0,0,1-.07.715L54.218,47.6a.5.5,0,0,1-.716-.087L50.566,43.66V75.427A.5.5,0,0,1,50.062,75.929ZM14.787,74.922H49.559V42.167a.5.5,0,0,1,.9-.305l3.525,4.626,9.241-7.454L51.474,25.007H41.732a15.965,15.965,0,0,1-1.026,3.616,9.289,9.289,0,0,1-17.069,0,16.257,16.257,0,0,1-1.03-3.616H12.872L1.219,38.912l9.23,7.448,3.435-4.5a.5.5,0,0,1,.9.306Z" transform="translate(0 -11.491)" fill="#2f3a5a"/></g></svg>