<svg xmlns="http://www.w3.org/2000/svg" width="69.264" height="64.774" viewBox="0 0 69.264 64.774"><g transform="translate(0 -4.149)"><path d="M49.14,99.563H65.223V108.1H49.14Z" transform="translate(-22.549 -43.783)" fill="#d9e2e9"/><path d="M64.763,108.187H48.681a.541.541,0,0,1-.541-.541V99.1a.541.541,0,0,1,.541-.541H64.763a.541.541,0,0,1,.541.541v8.542a.541.541,0,0,1-.541.541ZM49.222,107.1h15V99.645h-15Z" transform="translate(-22.09 -43.324)" fill="#2f3a5a"/><rect width="68.182" height="51.09" rx="5.294" transform="translate(0.541 4.69)" fill="#d9e2e9"/><path d="M65.858,56.321H3.405A3.409,3.409,0,0,1,0,52.916V7.554A3.409,3.409,0,0,1,3.405,4.149H65.858a3.409,3.409,0,0,1,3.405,3.405V52.916A3.409,3.409,0,0,1,65.858,56.321ZM3.405,5.231A2.327,2.327,0,0,0,1.082,7.554V52.916a2.327,2.327,0,0,0,2.323,2.323H65.858a2.327,2.327,0,0,0,2.323-2.323V7.554a2.327,2.327,0,0,0-2.323-2.323Z" transform="translate(0)" fill="#2f3a5a"/><path d="M8.06,12.21H68.6V52.583H8.06Z" transform="translate(-3.699 -3.699)" fill="#9297ab"/><path d="M68.6,12.206v2.07H10.369V52.583H8.058V12.206Z" transform="translate(-3.698 -3.697)" fill="#a7adc1"/><path d="M68.6,12.206V52.583H8.058V50.176H65.939V12.206Z" transform="translate(-3.698 -3.697)" fill="#84879c"/><path d="M68.142,52.664H7.6a.541.541,0,0,1-.541-.541V11.75a.541.541,0,0,1,.541-.541h60.54a.541.541,0,0,1,.541.541V52.123A.541.541,0,0,1,68.142,52.664Zm-60-1.082H67.6V12.291H8.143Z" transform="translate(-3.24 -3.24)" fill="#2f3a5a"/><path d="M36.15,115.348H66.291v4.06H36.15Z" transform="translate(-16.588 -51.027)" fill="#d9e2e9"/><path d="M65.832,119.492H35.691a.541.541,0,0,1-.541-.541v-4.058a.541.541,0,0,1,.541-.541H65.832a.541.541,0,0,1,.541.541v4.058A.541.541,0,0,1,65.832,119.492Zm-29.6-1.082H65.291v-2.976H36.232Z" transform="translate(-16.13 -50.569)" fill="#2f3a5a"/><circle cx="1.144" cy="1.144" r="1.144" transform="translate(33.851 51.139)" fill="#9297ab"/><path d="M63.242,93.356a1.685,1.685,0,1,1,1.685-1.685A1.685,1.685,0,0,1,63.242,93.356Zm0-2.288a.6.6,0,1,0,.6.6A.6.6,0,0,0,63.242,91.068Z" transform="translate(-28.247 -39.389)" fill="#2f3a5a"/></g></svg>