<svg xmlns="http://www.w3.org/2000/svg" width="649.617" height="427.884" viewBox="0 0 649.617 427.884"><g transform="translate(0 2.228)"><path d="M307.563,398.041c-32.851.151-59.59.637-59.59.637s31.784-42.1,59.471-26.5,59.492,25.955,59.492,25.955S340.414,397.89,307.563,398.041Z" transform="translate(-173.06 -213.91)" fill="#f2f2f2"/><circle cx="6.881" cy="6.881" r="6.881" transform="translate(495.969 182.879)" fill="#ff6584"/><rect width="78.35" height="2.106" transform="matrix(0.657, -0.754, 0.754, 0.657, 452.476, 297.343)" fill="#3f3d56"/><circle cx="11.08" cy="11.08" r="11.08" transform="translate(493.643 227.867)" fill="#02ffb3"/><path d="M806.357,520.14s21.163-26.713-5.905-45.038" transform="translate(-333.347 -244.778)" fill="#01ffc6"/><path d="M312.572,541.3c38.113,70.682,119,101.025,119,101.025s19.1-84.256-19.017-154.939-119-101.025-119-101.025S274.459,470.618,312.572,541.3Z" transform="translate(-184.897 -219.032)" fill="#171144"/><path d="M296.316,560.021c68.81,41.4,95.31,123.627,95.31,123.627s-85.062,15.108-153.872-26.29-95.31-123.626-95.31-123.626S227.506,518.622,296.316,560.021Z" transform="translate(-142.444 -261.007)" fill="#ebd6f2"/><path d="M705.478,561.261c-69.173,40.788-96.4,122.778-96.4,122.778S694,699.9,763.176,659.111s96.4-122.778,96.4-122.778S774.65,520.472,705.478,561.261Z" transform="translate(-277.825 -261.661)" fill="#171144"/><path d="M728.246,545.061C689.51,615.4,608.355,645.03,608.355,645.03S590,560.607,628.742,490.265,748.633,390.3,748.633,390.3,766.983,474.718,728.246,545.061Z" transform="translate(-276.355 -220.174)" fill="#dbc5ec"/><path d="M577.115,323.734a21.5,21.5,0,0,1-2.671-28.984c-.433.406-.856.827-1.261,1.275a21.5,21.5,0,0,0,31.9,28.838c.4-.448.782-.911,1.142-1.383A21.5,21.5,0,0,1,577.115,323.734Z" transform="translate(-265.8 -192.453)" fill="#2f2e41"/><circle cx="44.279" cy="44.279" r="44.279" transform="translate(247.561 57.982)" fill="#2f2e41"/><path d="M496.67,353.681l1.312-3.412L474.1,370.477l-28.868,16.271s-14.7-56.686-15.746-57.735-19.945-40.94-28.343-22.044,16.271,29.917,16.271,29.917.787,69.02,25.981,68.5,56.423-23.357,56.948-25.456S496.67,353.681,496.67,353.681Z" transform="translate(-216.993 -194.526)" fill="#ffb8b8"/><circle cx="26.243" cy="26.243" r="26.243" transform="translate(260.257 95.121)" fill="#ffb8b8"/><path d="M545.786,341.15s6.823,8.923,4.724,9.972-14.172,1.575-21.52,10.5,8.923,31.492,8.923,31.492l61.934-41.464-25.194-8.4s-17.32-9.448-16.8-19.42Z" transform="translate(-254.037 -200.89)" fill="#ffb8b8"/><path d="M602,635.986h-69.93c-3.961-28.963-5.793-55.505-5.793-55.505s-1.022,26.7-3.741,55.505H432.693c12.735-85.3,73.11-177.8,73.11-177.8s.525-12.6,2.1-14.7-8.923-2.619-13.651-18.364c-2.882-9.612-.291-15.9,2.172-19.337a13.9,13.9,0,0,1,3.081-3.237s1.051-11.017,0-12.593c-.135-.206.9-.93,2.818-2.03,1.6-.923,3.8-2.108,6.446-3.471,15.128-7.844,44.41-21.722,54.441-26.45,2.2-1.043,3.478-1.64,3.478-1.64l17.846,6.3c14.169,4.721,14.169,34.642,14.169,34.642l-.8,1.221-21.417,32.441-12.423,18.826c3.152,2.094-3.145,15.22-3.145,15.22a159.6,159.6,0,0,1,16.27,32.569,148.131,148.131,0,0,1,8.384,33.968,116.194,116.194,0,0,1,.54,22.688C584.167,579.522,592.813,610.253,602,635.986Z" transform="translate(-226.652 -210.329)" fill="#8399fe"/><path d="M638.014,369.353a4.585,4.585,0,0,0-6.564,2.455c-1.58,4.346-3.182,13.405-2.611,32.242,1.05,34.641,1.574,58.26,1.574,58.26V514.8s-23.094,50.387-10.5,50.387,21.519-39.89,21.519-39.89,11.547-60.36,7.873-70.857C649.308,454.437,659.667,381.917,638.014,369.353Z" transform="translate(-279.878 -213.927)" fill="#ffb8b8"/><ellipse cx="22.524" cy="15.357" rx="22.524" ry="15.357" transform="translate(260.896 82.721)" fill="#2f2e41"/><circle cx="21.5" cy="21.5" r="21.5" transform="translate(297.688 43.033)" fill="#2f2e41"/><path d="M604.929,255.13a21.5,21.5,0,0,1-21.42-19.705c-.049.588-.08,1.185-.08,1.789a21.5,21.5,0,0,0,43,0c0-.6-.031-1.2-.08-1.792A21.5,21.5,0,0,1,604.929,255.13Z" transform="translate(-270.384 -175.241)" fill="#2f2e41"/><ellipse cx="1.837" cy="4.199" rx="1.837" ry="4.199" transform="matrix(0.973, -0.232, 0.232, 0.973, 308.407, 109.046)" fill="#ffb8b8"/><circle cx="1.05" cy="1.05" r="1.05" transform="translate(310.907 114.279)" fill="#f2f2f2"/><path d="M226.882,432.8a8.519,8.519,0,1,1,8.519-8.519A8.519,8.519,0,0,1,226.882,432.8Zm0-15.617a7.1,7.1,0,1,0,7.1,7.1,7.1,7.1,0,0,0-7.1-7.1Z" transform="translate(-164.47 -227.562)" fill="#02ffb3"/><path d="M949.563,480.041c-32.851.151-59.59.637-59.59.637s31.784-42.1,59.471-26.5,59.492,25.955,59.492,25.955S982.411,479.89,949.563,480.041Z" transform="translate(-359.319 -237.7)" fill="#f2f2f2"/><path d="M807.563,280.041c-32.851.151-59.59.637-59.59.637s31.784-42.1,59.471-26.5,59.492,25.955,59.492,25.955S840.414,279.89,807.563,280.041Z" transform="translate(-318.121 -179.676)" fill="#f2f2f2"/><path d="M359.883,273.48l-75.961-39.06a10.561,10.561,0,0,1-4.563-14.222l17.895-34.8a4.185,4.185,0,0,1,2.55-2.1l59.872-17.458a9.741,9.741,0,0,1,11.92,6.129l19.672,56.114a10.937,10.937,0,0,1-.595,8.619L374.1,268.917a10.561,10.561,0,0,1-14.222,4.563Z" transform="translate(-181.826 -154.938)" fill="#f2f2f2"/><path d="M365.729,268.075l-76.7-32.744c-2.471-1.271-.154.683,1.117-1.789l9.642-39.187,93.956,48.314-23.753,29.37C368.721,274.51,368.2,269.346,365.729,268.075Z" transform="translate(-184.655 -163.327)" opacity="0.1"/><path d="M306.138,191.086" transform="translate(-189.935 -162.378)" fill="none" stroke="#3f3d56" stroke-miterlimit="10" stroke-width="1"/><rect width="78.572" height="78.572" rx="8.186" transform="translate(106.918 77.345) rotate(-62.787)" fill="#6c63ff"/><path d="M240.235,91.7l-19.747,38.4L150.613,94.169l19.747-38.4,26.255,34.852Z" transform="translate(-43.696 -16.826)" opacity="0.1"/><path d="M333.016,239.073l-33.64-44.656a2.042,2.042,0,0,0-3.448.295l-19.143,37.227a6.377,6.377,0,0,0,2.755,8.588l83.4,42.887a6.377,6.377,0,0,0,8.588-2.755l18.815-36.589a2.492,2.492,0,0,0-2.155-3.631Z" transform="translate(-181.214 -163.108)" fill="#f67efd"/><rect width="21.974" height="3.107" transform="translate(145.568 16.979) rotate(27.213)" fill="#f2f2f2"/><rect width="65.255" height="1.776" transform="translate(138.812 26.234) rotate(27.213)" fill="#f2f2f2"/><rect width="65.255" height="1.776" transform="translate(136.071 31.563) rotate(27.213)" fill="#f2f2f2"/><rect width="65.255" height="1.776" transform="translate(133.331 36.892) rotate(27.213)" fill="#f2f2f2"/><ellipse cx="9.117" cy="9.1" rx="9.117" ry="9.1" transform="translate(132.883 13.987) rotate(-62.787)" fill="#fff"/><path d="M347.3,150.928a10.876,10.876,0,1,0,4.7,14.646A10.876,10.876,0,0,0,347.3,150.928Zm-9.611,13.808-2.408-7.506,2.105-.675,1.735,5.408,11.414-3.662.675,2.105-13.521,4.33Z" transform="translate(-197.279 -150.377)" fill="#57b894"/></g></svg>