<svg xmlns="http://www.w3.org/2000/svg" width="70.81" height="56.271" viewBox="0 0 70.81 56.271"><g transform="translate(0 -13.141)"><path d="M12.272,29.867H68.336V76.332H12.272Z" transform="translate(-5.483 -7.473)" fill="#d9e2e9"/><path d="M68.334,29.867V76.33H12.268v-2.7H65.4V29.867Z" transform="translate(-5.481 -7.473)" fill="#c1cdd3"/><path d="M67.889,76.438H11.825a.553.553,0,0,1-.553-.553V29.42a.553.553,0,0,1,.553-.553H67.889a.553.553,0,0,1,.553.553V75.885A.553.553,0,0,1,67.889,76.438ZM12.378,75.332H67.336V29.973H12.378Z" transform="translate(-5.036 -7.026)" fill="#2f3a5a"/><path d="M10.958,37.943H1L7.789,25.489h8.018Z" transform="translate(-0.447 -5.517)" fill="#f14253"/><path d="M10.511,38.049H.553a.553.553,0,0,1-.486-.818L6.86,24.778a.553.553,0,0,1,.486-.288h8.015a.553.553,0,0,1,.516.754L11.026,37.7a.553.553,0,0,1-.516.351ZM1.485,36.943h8.647L14.549,25.6H7.671Z" transform="translate(0 -5.071)" fill="#2f3a5a"/><path d="M28.958,37.943H19l4.85-12.454h8.018Z" transform="translate(-8.489 -5.517)" fill="#d9e2e9"/><path d="M28.511,38.048H18.553a.553.553,0,0,1-.516-.754l4.85-12.454a.553.553,0,0,1,.516-.352h8.018a.553.553,0,0,1,.539.679L29.05,37.621a.553.553,0,0,1-.539.427Zm-9.148-1.106h8.71l2.652-11.347H23.781Z" transform="translate(-8.042 -5.069)" fill="#2f3a5a"/><path d="M46.958,37.943H37l2.91-12.454h8.018Z" transform="translate(-16.531 -5.517)" fill="#f14253"/><path d="M46.511,38.048H36.553a.553.553,0,0,1-.539-.679l2.91-12.454a.553.553,0,0,1,.539-.427h8.018a.553.553,0,0,1,.553.6l-.97,12.455a.553.553,0,0,1-.553.509Zm-9.26-1.106H46l.885-11.348H39.9Z" transform="translate(-16.085 -5.069)" fill="#2f3a5a"/><path d="M64.958,37.943H55l.97-12.454h8.018Z" transform="translate(-24.574 -5.517)" fill="#d9e2e9"/><path d="M64.51,38.048H54.552a.553.553,0,0,1-.553-.6L54.968,25a.553.553,0,0,1,.553-.51H63.54a.553.553,0,0,1,.553.51l.97,12.455a.553.553,0,0,1-.553.6Zm-9.36-1.106h8.762l-.885-11.348H56.033Z" transform="translate(-24.126 -5.069)" fill="#2f3a5a"/><path d="M82.174,37.943H72.217l-.97-12.454h8.018Z" transform="translate(-31.833 -5.517)" fill="#f14253"/><path d="M81.728,38.049H71.77a.553.553,0,0,1-.553-.51l-.968-12.453a.553.553,0,0,1,.553-.6h8.016a.553.553,0,0,1,.539.427l2.91,12.454a.553.553,0,0,1-.539.678Zm-9.446-1.106H81.03L78.379,25.6H71.4Z" transform="translate(-31.386 -5.07)" fill="#2f3a5a"/><path d="M98.608,37.943H88.65L85.74,25.489h8.018Z" transform="translate(-38.308 -5.517)" fill="#d9e2e9"/><path d="M98.161,38.048H88.2a.553.553,0,0,1-.539-.427l-2.91-12.454a.553.553,0,0,1,.539-.679h8.018a.553.553,0,0,1,.516.353l4.85,12.454a.553.553,0,0,1-.516.754Zm-9.519-1.106h8.71L92.933,25.595H85.99Z" transform="translate(-37.861 -5.069)" fill="#2f3a5a"/><path d="M115.041,37.943h-9.958l-4.85-12.454h8.018Z" transform="translate(-44.784 -5.517)" fill="#f14253"/><path d="M114.593,38.049h-9.958a.553.553,0,0,1-.516-.353L99.27,25.243a.553.553,0,0,1,.516-.754H107.8a.553.553,0,0,1,.486.288l6.789,12.454a.553.553,0,0,1-.485.817Zm-9.579-1.106h8.648L107.475,25.6H100.6Z" transform="translate(-44.336 -5.07)" fill="#2f3a5a"/><path d="M1,48v2.578a4.979,4.979,0,0,0,9.958,0V48Z" transform="translate(-0.447 -15.575)" fill="#f14253"/><path d="M5.532,55.664A5.538,5.538,0,0,1,0,50.132V47.553A.553.553,0,0,1,.553,47h9.958a.553.553,0,0,1,.553.553v2.578A5.538,5.538,0,0,1,5.532,55.664ZM1.106,48.106v2.025a4.426,4.426,0,0,0,8.851,0V48.106Z" transform="translate(0 -15.128)" fill="#2f3a5a"/><path d="M19,48h9.958v2.578a4.979,4.979,0,0,1-9.958,0Z" transform="translate(-8.489 -15.575)" fill="#d9e2e9"/><path d="M23.532,55.664A5.538,5.538,0,0,1,18,50.132V47.553A.553.553,0,0,1,18.553,47h9.958a.553.553,0,0,1,.553.553v2.578a5.538,5.538,0,0,1-5.532,5.533Zm-4.426-7.558v2.025a4.426,4.426,0,0,0,8.851,0V48.106Z" transform="translate(-8.042 -15.128)" fill="#2f3a5a"/><path d="M37,48v2.578a4.979,4.979,0,1,0,9.958,0V48Z" transform="translate(-16.531 -15.575)" fill="#f14253"/><path d="M41.532,55.664A5.538,5.538,0,0,1,36,50.132V47.553A.553.553,0,0,1,36.553,47h9.958a.553.553,0,0,1,.553.553v2.578a5.538,5.538,0,0,1-5.532,5.533Zm-4.426-7.558v2.025a4.426,4.426,0,0,0,8.851,0V48.106Z" transform="translate(-16.085 -15.128)" fill="#2f3a5a"/><path d="M55,48v2.578a4.979,4.979,0,0,0,9.958,0V48Z" transform="translate(-24.574 -15.575)" fill="#d9e2e9"/><path d="M59.532,55.664A5.538,5.538,0,0,1,54,50.132V47.553A.553.553,0,0,1,54.553,47h9.958a.553.553,0,0,1,.553.553v2.578A5.538,5.538,0,0,1,59.532,55.664Zm-4.426-7.558v2.025a4.426,4.426,0,0,0,8.851,0V48.106Z" transform="translate(-24.127 -15.128)" fill="#2f3a5a"/><path d="M73,48v2.578a4.979,4.979,0,0,0,9.958,0V48Z" transform="translate(-32.616 -15.575)" fill="#f14253"/><path d="M77.532,55.664A5.538,5.538,0,0,1,72,50.132V47.553A.553.553,0,0,1,72.553,47h9.958a.553.553,0,0,1,.553.553v2.578a5.538,5.538,0,0,1-5.532,5.533Zm-4.426-7.558v2.025a4.426,4.426,0,0,0,8.851,0V48.106Z" transform="translate(-32.169 -15.128)" fill="#2f3a5a"/><path d="M91,48v2.578a4.979,4.979,0,0,0,9.958,0V48Z" transform="translate(-40.658 -15.575)" fill="#d9e2e9"/><path d="M95.532,55.664A5.538,5.538,0,0,1,90,50.132V47.553A.553.553,0,0,1,90.553,47h9.958a.553.553,0,0,1,.553.553v2.578A5.538,5.538,0,0,1,95.532,55.664Zm-4.426-7.558v2.025a4.426,4.426,0,0,0,8.851,0V48.106Z" transform="translate(-40.212 -15.128)" fill="#2f3a5a"/><path d="M109,48v2.578a4.979,4.979,0,0,0,9.958,0V48Z" transform="translate(-48.701 -15.575)" fill="#f14253"/><path d="M113.532,55.664A5.538,5.538,0,0,1,108,50.132V47.553a.553.553,0,0,1,.553-.553h9.958a.553.553,0,0,1,.553.553v2.578a5.538,5.538,0,0,1-5.532,5.533Zm-4.426-7.558v2.025a4.426,4.426,0,0,0,8.851,0V48.106Z" transform="translate(-48.254 -15.128)" fill="#2f3a5a"/><path d="M26.522,73.751h14.1V95.939h-14.1Z" transform="translate(-11.85 -27.08)" fill="#bd8d5a"/><path d="M40.17,96.045H26.075a.553.553,0,0,1-.553-.553V73.3a.553.553,0,0,1,.553-.553H40.17a.553.553,0,0,1,.553.553V95.491A.553.553,0,0,1,40.17,96.045ZM26.628,94.939H39.617V73.856H26.628Z" transform="translate(-11.403 -26.633)" fill="#2f3a5a"/><path d="M65.252,73.751h9.936v8.018H65.252Z" transform="translate(-29.154 -27.08)" fill="#5fc4f8"/><path d="M75.186,73.748v8.017H65.254V80.322h8.173V73.748Z" transform="translate(-29.155 -27.079)" fill="#38aece"/><g transform="translate(36.098 46.671)"><path d="M83.213,73.751h9.936v8.018H83.213Z" transform="translate(-73.277 -73.751)" fill="#5fc4f8"/><path d="M65.252,88.244h9.936v8.018H65.252Z" transform="translate(-65.252 -80.226)" fill="#5fc4f8"/><path d="M83.213,88.244h9.936v8.018H83.213Z" transform="translate(-73.277 -80.226)" fill="#5fc4f8"/></g><path d="M93.146,73.748v8.017H83.208V80.322H91.38V73.748Z" transform="translate(-37.177 -27.079)" fill="#38aece"/><path d="M75.186,88.24v8.018H65.254V94.814h8.173V88.24Z" transform="translate(-29.155 -33.554)" fill="#38aece"/><path d="M93.146,88.24v8.018H83.208V94.814H91.38V88.24Z" transform="translate(-37.177 -33.554)" fill="#38aece"/><g transform="translate(35.544 46.117)"><path d="M74.741,81.875H64.805a.553.553,0,0,1-.553-.553V73.3a.553.553,0,0,1,.553-.553h9.936a.553.553,0,0,1,.553.553v8.018A.553.553,0,0,1,74.741,81.875Zm-9.383-1.106h8.83V73.856h-8.83Z" transform="translate(-64.252 -72.75)" fill="#2f3a5a"/><path d="M92.7,81.875H82.766a.553.553,0,0,1-.553-.553V73.3a.553.553,0,0,1,.553-.553H92.7a.553.553,0,0,1,.553.553v8.018A.553.553,0,0,1,92.7,81.875Zm-9.383-1.106h8.83V73.856h-8.83Z" transform="translate(-72.277 -72.75)" fill="#2f3a5a"/><path d="M74.741,96.367H64.805a.553.553,0,0,1-.553-.553V87.8a.553.553,0,0,1,.553-.553h9.936a.553.553,0,0,1,.553.553v8.018a.553.553,0,0,1-.553.553Zm-9.383-1.106h8.83V88.35h-8.83Z" transform="translate(-64.252 -79.226)" fill="#2f3a5a"/><path d="M92.7,96.367H82.766a.553.553,0,0,1-.553-.553V87.8a.553.553,0,0,1,.553-.553H92.7a.553.553,0,0,1,.553.553v8.018a.553.553,0,0,1-.553.553Zm-9.383-1.106h8.83V88.35h-8.83Z" transform="translate(-72.277 -79.226)" fill="#2f3a5a"/></g><path d="M13.526,14.141H69.511v6.278H13.526Z" transform="translate(-6.043 -0.447)" fill="#d9e2e9"/><path d="M69.508,14.142v6.277H13.522V18.033H66.676V14.142Z" transform="translate(-6.042 -0.447)" fill="#c1cdd3"/><path d="M69.064,20.525H13.078a.553.553,0,0,1-.553-.553V13.694a.553.553,0,0,1,.553-.553H69.063a.553.553,0,0,1,.553.553v6.278a.553.553,0,0,1-.552.553ZM13.633,19.419H68.511V14.247H13.633Z" transform="translate(-5.596)" fill="#2f3a5a"/><path d="M47.153,96.4a.553.553,0,0,1-.553-.553V93.118a.553.553,0,0,1,1.106,0v2.727A.553.553,0,0,1,47.153,96.4Z" transform="translate(-20.821 -35.486)" fill="#2f3a5a"/></g></svg>