<svg xmlns="http://www.w3.org/2000/svg" width="84.001" height="57.097" viewBox="0 0 84.001 57.097"><g transform="translate(0.399 -12.153)"><path d="M61.828,48.356h5.253l3.044,9.855a15.163,15.163,0,0,1-11.337,0Z" transform="translate(12.869 7.871)" fill="#fcd462"/><path d="M64.565,60.024a16.182,16.182,0,0,1-5.889-1.137.609.609,0,0,1-.365-.748l3.044-9.855a.609.609,0,0,1,.582-.43h5.254a.609.609,0,0,1,.581.43l3.044,9.855a.609.609,0,0,1-.365.748,16.177,16.177,0,0,1-5.885,1.137Zm-4.917-2.07a14.558,14.558,0,0,0,9.834,0l-2.74-8.876H62.388Z" transform="translate(12.759 7.763)" fill="#323c6b"/><path d="M64.258,44.743h-.689a2.451,2.451,0,0,0-2.283,2.589v1.809h5.253V47.332A2.451,2.451,0,0,0,64.258,44.743Z" transform="translate(13.411 7.086)" fill="#fcd462"/><path d="M66.647,49.858H61.4a.609.609,0,0,1-.609-.609V47.442a3.061,3.061,0,0,1,2.89-3.2h.689a3.061,3.061,0,0,1,2.89,3.2v1.807A.609.609,0,0,1,66.647,49.858ZM62,48.64h4.036v-1.2a1.849,1.849,0,0,0-1.674-1.982h-.688A1.849,1.849,0,0,0,62,47.442Z" transform="translate(13.303 6.977)" fill="#323c6b"/><path d="M63.552,59.192a.609.609,0,0,1-.609-.609V52.309a.609.609,0,0,1,1.217,0V58.58a.609.609,0,0,1-.609.612Z" transform="translate(13.772 8.599)" fill="#323c6b"/><path d="M65.859,31.464l.212,20.072a4.92,4.92,0,0,1-3.2,4.649,70.687,70.687,0,0,1-51-.024,4.922,4.922,0,0,1-3.2-4.556L8.45,31.72" transform="translate(1.924 4.199)" fill="#9297ab"/><path d="M65.746,31.464l-3.018.013L62.914,48.8a4.92,4.92,0,0,1-3.2,4.649,70.662,70.662,0,0,1-50.74.067,4.924,4.924,0,0,0,2.783,2.648,70.687,70.687,0,0,0,51,.024,4.92,4.92,0,0,0,3.2-4.649Z" transform="translate(2.037 4.199)" fill="#84879c"/><path d="M29.381,59.7H29.32a88.019,88.019,0,0,1-12.931-2.465.609.609,0,1,1,.315-1.176,86.737,86.737,0,0,0,12.738,2.435.609.609,0,1,1-.061,1.217Z" transform="translate(3.552 9.541)" fill="#323c6b"/><path d="M13.974,56.505a.638.638,0,0,1-.183-.027l-.651-.208a.609.609,0,1,1,.374-1.159l.643.2a.609.609,0,0,1-.183,1.189Z" transform="translate(2.852 9.334)" fill="#323c6b"/><path d="M67.513,35.554,77.84,30.747,38.97,12.652.1,30.747,38.97,48.841Z" transform="translate(0.108 0.108)" fill="#84879c"/><g transform="translate(-0.399 12.153)"><path d="M39.079,49.558a.609.609,0,0,1-.257-.056l-38.87-18.1a.609.609,0,0,1,0-1.1L38.822,12.21a.609.609,0,0,1,.514,0L78.205,30.3a.609.609,0,0,1,0,1.1L39.335,49.5a.609.609,0,0,1-.257.056ZM1.65,30.855,39.079,48.279,67.364,35.111l.257.551-.257-.551,9.143-4.261L39.079,13.428Z" transform="translate(0.399 -12.153)" fill="#323c6b"/><path d="M67.076,49.206a.609.609,0,0,1-.59-.465l-4.4-18.193-14.84-2.323a.609.609,0,0,1,.189-1.2l15.241,2.385a.609.609,0,0,1,.5.458l4.5,18.589a.609.609,0,0,1-.448.73.6.6,0,0,1-.151.022Z" transform="translate(10.646 -8.922)" fill="#323c6b"/><path d="M10.859,20.772a.609.609,0,0,1-.257-1.16l9.664-4.5a.609.609,0,1,1,.513,1.1l-9.663,4.5a.6.6,0,0,1-.257.057Z" transform="translate(2.715 -11.526)" fill="#323c6b"/><path d="M21.422,15.108a.609.609,0,0,1-.258-1.161l.7-.327a.609.609,0,1,1,.515,1.1l-.7.327a.621.621,0,0,1-.257.057Z" transform="translate(5.011 -11.847)" fill="#323c6b"/><path d="M37.507,61.629A73.13,73.13,0,0,1,11.762,56.84a5.562,5.562,0,0,1-3.6-5.121L7.95,31.834a.609.609,0,0,1,.6-.616h.007a.609.609,0,0,1,.609.609L9.379,51.7a4.338,4.338,0,0,0,2.81,3.993,70.4,70.4,0,0,0,50.573.023,4.317,4.317,0,0,0,2.809-4.072L65.359,31.58a.609.609,0,0,1,.6-.616h.006a.609.609,0,0,1,.609.609l.212,20.072a5.539,5.539,0,0,1-3.6,5.225,73.133,73.133,0,0,1-25.68,4.759Z" transform="translate(2.215 -8.063)" fill="#323c6b"/></g><path d="M27.143,37.131a.786.786,0,0,1-.347-.08l-9.217-4.514a.791.791,0,1,1,.7-1.422L27.5,35.629a.791.791,0,0,1-.349,1.5Z" transform="translate(3.813 4.105)" fill="#fff"/><path d="M15.159,31.262a.786.786,0,0,1-.347-.08l-.7-.341a.791.791,0,0,1,.7-1.422l.7.341a.791.791,0,0,1-.348,1.5Z" transform="translate(3.059 3.736)" fill="#fff"/></g></svg>