<svg xmlns="http://www.w3.org/2000/svg" width="73.819" height="63.256" viewBox="0 0 73.819 63.256"><g transform="translate(-0.589 -5.048)"><rect width="70.435" height="56.004" rx="4.063" transform="translate(3.455 8.673)" fill="#9297ab"/><path d="M73.794,12.755V60.34a4.221,4.221,0,0,1-3.232,4.1,1.894,1.894,0,0,0,.021-.342V16.515A4.211,4.211,0,0,0,66.378,12.3H4.364a4.339,4.339,0,0,0-.984.114A4.193,4.193,0,0,1,7.565,8.55H69.578a4.211,4.211,0,0,1,4.216,4.205Z" transform="translate(0.1 0.125)" fill="#84879c"/><circle cx="22.161" cy="22.161" r="22.161" transform="translate(7.832 14.514)" fill="#eeefee"/><path d="M29.761,59.046A22.684,22.684,0,1,1,52.445,36.362,22.684,22.684,0,0,1,29.761,59.046Zm0-44.322A21.648,21.648,0,1,0,51.41,36.373,21.648,21.648,0,0,0,29.761,14.724Z" transform="translate(0.232 0.309)" fill="#323c6b"/><circle cx="5.476" cy="5.476" r="5.476" transform="translate(24.517 31.199)" fill="#9297ab"/><path d="M29.184,41.783a5.994,5.994,0,1,1,5.994-5.994,5.994,5.994,0,0,1-5.994,5.994Zm0-10.952a4.958,4.958,0,1,0,4.958,4.958,4.958,4.958,0,0,0-4.958-4.958Z" transform="translate(0.809 0.886)" fill="#323c6b"/><path d="M58.128,52.456,52.971,31.768a1.9,1.9,0,0,0-1.488-1.393l-10.783-2,.569-3.055,10.786,2.005A5.017,5.017,0,0,1,55.982,31l5.466,21.461Z" transform="translate(1.436 0.726)" fill="#bbbbcd"/><path d="M61.466,52.992h-3.32a.518.518,0,0,1-.5-.393L52.488,31.911A1.38,1.38,0,0,0,51.407,30.9l-10.787-2a.518.518,0,0,1-.414-.6l.569-3.055a.518.518,0,0,1,.6-.414l10.787,2A5.536,5.536,0,0,1,56.5,30.886l5.466,21.461a.518.518,0,0,1-.5.646Zm-2.915-1.036H60.8L55.5,31.142a4.5,4.5,0,0,0-3.522-3.294L41.7,25.939l-.379,2.036,10.275,1.909a2.421,2.421,0,0,1,1.9,1.773Z" transform="translate(1.418 0.708)" fill="#323c6b"/><path d="M62.749,45.961a.518.518,0,0,1-.518-.518V16.2a.518.518,0,1,1,1.036,0V45.443A.518.518,0,0,1,62.749,45.961Z" transform="translate(2.207 0.381)" fill="#323c6b"/><path d="M65.638,21.814H60.054a.518.518,0,0,1,0-1.036h5.584a.518.518,0,1,1,0,1.036Z" transform="translate(2.111 0.563)" fill="#323c6b"/><circle cx="2.816" cy="2.816" r="2.816" transform="translate(27.177 33.859)" fill="#fff"/><path d="M29.092,39.031A3.334,3.334,0,1,1,32.431,35.7a3.334,3.334,0,0,1-3.338,3.332Zm0-5.632a2.3,2.3,0,1,0,2.3,2.3,2.3,2.3,0,0,0-2.3-2.3Z" transform="translate(0.901 0.978)" fill="#323c6b"/><rect width="8.118" height="4.948" rx="2.389" transform="translate(37.429 24.758) rotate(5.106)" fill="#9297ab"/><path d="M41.6,30.029a1.976,1.976,0,0,1-.27-.012l-3.156-.281a2.992,2.992,0,1,1,.529-5.961l3.156.281a2.992,2.992,0,0,1-.259,5.972ZM38.439,24.8a1.957,1.957,0,0,0-.172,3.9l3.156.281a1.957,1.957,0,1,0,.347-3.9l-3.161-.282C38.555,24.8,38.5,24.8,38.439,24.8Z" transform="translate(1.248 0.67)" fill="#323c6b"/><rect width="11.596" height="6.345" rx="1.25" transform="translate(55.59 52.796)" fill="#e1e6e9"/><g transform="translate(2.938 8.155)"><path d="M64.009,58.026H55a1.815,1.815,0,0,1-1.813-1.813V52.463A1.815,1.815,0,0,1,55,50.65h9.012a1.815,1.815,0,0,1,1.813,1.813v3.755A1.815,1.815,0,0,1,64.009,58.026ZM55,51.682a.778.778,0,0,0-.777.777v3.755A.778.778,0,0,0,55,56.99h9.012a.778.778,0,0,0,.777-.777V52.463a.778.778,0,0,0-.777-.777Z" transform="translate(-1.055 -6.523)" fill="#323c6b"/><path d="M36.874,51.858a.518.518,0,0,1-.236-.979,17.505,17.505,0,0,0,8.16-8.812.518.518,0,1,1,.955.4A18.541,18.541,0,0,1,37.109,51.8a.51.51,0,0,1-.235.057Z" transform="translate(-1.657 -6.842)" fill="#323c6b"/><path d="M12.318,31.858a.518.518,0,0,1-.5-.657,18.613,18.613,0,0,1,10.72-12.088.518.518,0,1,1,.4.957A17.569,17.569,0,0,0,12.814,31.479a.518.518,0,0,1-.5.379Z" transform="translate(-2.537 -7.653)" fill="#323c6b"/><path d="M69.6,65.089H7.582a4.732,4.732,0,0,1-4.725-4.726V12.775A4.732,4.732,0,0,1,7.582,8.048H69.6a4.733,4.733,0,0,1,4.726,4.726V60.361A4.733,4.733,0,0,1,69.6,65.089ZM7.582,9.084a3.7,3.7,0,0,0-3.69,3.691V60.361a3.7,3.7,0,0,0,3.691,3.691H69.6a3.7,3.7,0,0,0,3.691-3.691V12.775A3.7,3.7,0,0,0,69.6,9.085Z" transform="translate(-2.857 -8.048)" fill="#323c6b"/></g><path d="M10.315,59.944a4.888,4.888,0,0,1-4.883-4.882V51.54a.673.673,0,1,1,1.347,0v3.522A3.539,3.539,0,0,0,10.314,58.6a.673.673,0,0,1,0,1.347Z" transform="translate(0.173 1.641)" fill="#fff"/><path d="M6.106,49.417a.673.673,0,0,1-.673-.673v-.712a.673.673,0,1,1,1.347,0v.716a.673.673,0,0,1-.673.669Z" transform="translate(0.173 1.515)" fill="#fff"/><path d="M57.32,66.153H46.185a.518.518,0,0,1,0-1.036H57.32a.518.518,0,1,1,0,1.036Z" transform="translate(1.614 2.151)" fill="#323c6b"/><path d="M42.319,66.153H40.851a.518.518,0,0,1,0-1.036h1.468a.518.518,0,1,1,0,1.036Z" transform="translate(1.423 2.151)" fill="#323c6b"/><path d="M1.106,10.177A.518.518,0,0,1,.642,9.43,7.791,7.791,0,0,1,7.664,5.049h2.414a.518.518,0,0,1,0,1.036H7.664a6.761,6.761,0,0,0-6.094,3.8.518.518,0,0,1-.464.289Z" transform="translate(0 0)" fill="#323c6b"/><path d="M13.621,6.084H12.456a.518.518,0,0,1,0-1.036h1.165a.518.518,0,0,1,0,1.036Z" transform="translate(0.406)" fill="#323c6b"/></g></svg>