<svg xmlns="http://www.w3.org/2000/svg" width="46.377" height="61.928" viewBox="0 0 46.377 61.928"><g transform="translate(-11.241 -2.5)"><path d="M47.61,66.73H23.45a3.739,3.739,0,0,1-3.708-3.263L15.659,29.334H55.4L51.318,63.466A3.739,3.739,0,0,1,47.61,66.73Z" transform="translate(-0.453 -2.75)" fill="#fe7058"/><path d="M52.645,29.334,48.92,60.477a3.739,3.739,0,0,1-3.708,3.263H21.053a3.72,3.72,0,0,1-.8-.1,3.731,3.731,0,0,0,3.669,3.084h24.16a3.739,3.739,0,0,0,3.708-3.263l4.083-34.132Z" transform="translate(-0.924 -2.75)" fill="#ea6453"/><path d="M15.121,26.635H55.013a2.7,2.7,0,0,0,2.209-2.525c.18-2.513-1.926-3.833-3.91-3.854a4.811,4.811,0,0,0,1.257-3.278,4.471,4.471,0,0,0-4.293-4.628,4.107,4.107,0,0,0-1.564.314,1.7,1.7,0,0,0,.02-.314,3.656,3.656,0,0,0-3.507-3.78A3.411,3.411,0,0,0,42.817,9.6a5.174,5.174,0,0,0-4.953-4.241,4.646,4.646,0,0,0-2.351.628A5.054,5.054,0,0,0,30.987,3a5.184,5.184,0,0,0-4.963,4.251,3.3,3.3,0,0,0-2.4-1.037,3.648,3.648,0,0,0-3.5,3.78,1.82,1.82,0,0,0,.02.325A3.926,3.926,0,0,0,18.581,10a4.471,4.471,0,0,0-4.293,4.628A4.791,4.791,0,0,0,15.545,17.9a4.344,4.344,0,0,0-3.662,4.409,4.357,4.357,0,0,0,3.238,4.325Z" transform="translate(-0.066 -0.051)" fill="#fcd462"/><path d="M22.656,9.05a5.78,5.78,0,0,1,3.167,1.469,5.535,5.535,0,0,1,1.536-2.8,6.381,6.381,0,0,0-2.782-1.134A3.55,3.55,0,0,0,21.21,9.395a3.252,3.252,0,0,1,1.446-.345Z" transform="translate(-1.022 -0.418)" fill="#e1e6e9"/><path d="M16.96,13.262a7.6,7.6,0,0,1,3.089.582,1.815,1.815,0,0,1-.02-.325,3.929,3.929,0,0,1,.833-2.423c-.15-.018-1.823-.3-1.975-.3a4.319,4.319,0,0,0-4.031,3.087,4.855,4.855,0,0,1,2.1-.617Z" transform="translate(-0.371 -0.85)" fill="#e1e6e9"/><path d="M54.953,20.256a4.811,4.811,0,0,0,1.257-3.278,4.471,4.471,0,0,0-4.293-4.628,4.107,4.107,0,0,0-1.563.314,1.705,1.705,0,0,0,.02-.314,3.656,3.656,0,0,0-3.507-3.78,3.411,3.411,0,0,0-2.4,1.027,5.174,5.174,0,0,0-4.953-4.241,4.646,4.646,0,0,0-2.351.628,4.945,4.945,0,0,0-9.23.39,4.8,4.8,0,0,1,2.782-.906,5.054,5.054,0,0,1,4.526,2.984,4.646,4.646,0,0,1,2.351-.628,5.174,5.174,0,0,1,4.951,4.241,3.411,3.411,0,0,1,2.4-1.026,3.656,3.656,0,0,1,3.507,3.78,1.7,1.7,0,0,1-.02.314,4.107,4.107,0,0,1,1.563-.314,4.471,4.471,0,0,1,4.293,4.628,4.811,4.811,0,0,1-1.257,3.278c1.983.021,4.083,1.335,3.91,3.845a2.767,2.767,0,0,0,1.924-2.459C59.041,21.594,56.937,20.277,54.953,20.256Z" transform="translate(-1.71 -0.051)" fill="#e1e6e9"/><path d="M27.967,15.48a.449.449,0,0,1-.269-.09,2.043,2.043,0,0,0-2.415,0,.449.449,0,0,1-.539-.718,2.927,2.927,0,0,1,3.5,0,.449.449,0,0,1-.269.808Z" transform="translate(-1.366 -1.188)" fill="#323c6b"/><path d="M37.905,12.029a.449.449,0,0,1-.269-.09,2.044,2.044,0,0,0-2.415,0,.449.449,0,1,1-.539-.718,2.927,2.927,0,0,1,3.5,0,.449.449,0,0,1-.269.808Z" transform="translate(-2.384 -0.834)" fill="#323c6b"/><path d="M47.317,17.064a.449.449,0,0,1-.269-.09,2.059,2.059,0,0,0-2.413,0,.449.449,0,0,1-.539-.718,2.925,2.925,0,0,1,3.5,0,.449.449,0,0,1-.269.808Z" transform="translate(-3.349 -1.35)" fill="#323c6b"/><path d="M36.612,22.174a.449.449,0,0,1-.269-.09,2.059,2.059,0,0,0-2.413,0,.449.449,0,1,1-.539-.718,2.926,2.926,0,0,1,3.5,0,.449.449,0,0,1-.269.808Z" transform="translate(-2.252 -1.874)" fill="#323c6b"/><path d="M25.739,24.059a.449.449,0,0,1-.269-.09,2.064,2.064,0,0,0-2.413,0,.449.449,0,1,1-.539-.718,2.926,2.926,0,0,1,3.5,0,.449.449,0,0,1-.269.808Z" transform="translate(-1.137 -2.067)" fill="#323c6b"/><path d="M50.155,24.059a.449.449,0,0,1-.269-.09,2.043,2.043,0,0,0-2.415,0,.449.449,0,1,1-.539-.718,2.926,2.926,0,0,1,3.5,0,.449.449,0,0,1-.269.808Z" transform="translate(-3.64 -2.067)" fill="#323c6b"/><rect width="22.863" height="10.076" rx="2.313" transform="translate(23.646 39.915)" fill="#eeefee"/><g transform="translate(11.241 2.5)"><path d="M45.8,54.661H27.088a2.527,2.527,0,0,1-2.525-2.526V46.212a2.527,2.527,0,0,1,2.525-2.525H45.8a2.527,2.527,0,0,1,2.525,2.525v5.924A2.527,2.527,0,0,1,45.8,54.661ZM27.088,44.585a1.629,1.629,0,0,0-1.627,1.626v5.924a1.629,1.629,0,0,0,1.627,1.627H45.8a1.629,1.629,0,0,0,1.627-1.627V46.212A1.629,1.629,0,0,0,45.8,44.585Z" transform="translate(-12.606 -6.721)" fill="#323c6b"/><path d="M28.953,69.8a.449.449,0,0,1-.449-.416l-1-13.992a.45.45,0,1,1,.9-.064L29.4,69.319a.449.449,0,0,1-.416.479Z" transform="translate(-12.907 -7.872)" fill="#323c6b"/><path d="M46.42,69.8h-.033a.449.449,0,0,1-.416-.479l1.005-13.992a.45.45,0,0,1,.9.064L46.868,69.384A.449.449,0,0,1,46.42,69.8Z" transform="translate(-14.8 -7.872)" fill="#323c6b"/><path d="M48.349,43.073h-.033a.449.449,0,0,1-.416-.479l.959-13.346a.45.45,0,1,1,.9.064L48.8,42.657a.449.449,0,0,1-.449.416Z" transform="translate(-14.998 -5.199)" fill="#323c6b"/><path d="M37.749,69.8a.449.449,0,0,1-.449-.449V55.359a.449.449,0,1,1,.9,0V69.351A.449.449,0,0,1,37.749,69.8Z" transform="translate(-13.912 -7.872)" fill="#323c6b"/><path d="M37.749,43.064a.449.449,0,0,1-.449-.449V29.279a.449.449,0,1,1,.9,0V42.616A.449.449,0,0,1,37.749,43.064Z" transform="translate(-13.912 -5.199)" fill="#323c6b"/><path d="M47.559,67.127H23.4a4.2,4.2,0,0,1-4.154-3.655L15.163,29.337a.449.449,0,0,1,.449-.5H55.353a.449.449,0,0,1,.449.5L51.719,63.469A4.2,4.2,0,0,1,47.559,67.127Zm-31.445-37.4,4.018,33.626A3.3,3.3,0,0,0,23.4,66.23H47.559a3.3,3.3,0,0,0,3.263-2.872l4.022-33.627Z" transform="translate(-11.642 -5.199)" fill="#323c6b"/><path d="M15.07,27.032a.449.449,0,0,1-.1-.012,4.97,4.97,0,0,1-.277-9.459,5.3,5.3,0,0,1-.9-2.99,4.924,4.924,0,0,1,4.742-5.077,4.371,4.371,0,0,1,1.106.142,4.075,4.075,0,0,1,3.936-3.922,3.711,3.711,0,0,1,2.154.684,5.535,5.535,0,0,1,5.206-3.9,5.428,5.428,0,0,1,4.717,2.828,5.14,5.14,0,0,1,2.159-.472,5.528,5.528,0,0,1,5.206,3.9,3.764,3.764,0,0,1,2.15-.684,4.08,4.08,0,0,1,3.949,3.919,4.471,4.471,0,0,1,1.106-.14,4.924,4.924,0,0,1,4.742,5.077,5.308,5.308,0,0,1-.847,2.91,4.554,4.554,0,0,1,2.524,1.331,3.8,3.8,0,0,1,.974,2.92,3.131,3.131,0,0,1-2.6,2.939Zm.053-.9h39.84a2.26,2.26,0,0,0,1.759-2.076,2.911,2.911,0,0,0-.737-2.281,3.8,3.8,0,0,0-2.728-1.125.449.449,0,0,1-.324-.754,4.346,4.346,0,0,0,1.133-2.973,4.027,4.027,0,0,0-3.844-4.18,3.665,3.665,0,0,0-1.394.281.449.449,0,0,1-.612-.5,1.226,1.226,0,0,0,.013-.233A3.207,3.207,0,0,0,45.17,8.968a2.954,2.954,0,0,0-2.082.9.449.449,0,0,1-.756-.225,4.7,4.7,0,0,0-4.514-3.885,4.218,4.218,0,0,0-2.124.567.442.442,0,0,1-.359.041.449.449,0,0,1-.269-.237A4.577,4.577,0,0,0,30.936,3.4a4.708,4.708,0,0,0-4.524,3.9.449.449,0,0,1-.764.217,2.853,2.853,0,0,0-2.075-.9,3.2,3.2,0,0,0-3.052,3.332,1.338,1.338,0,0,0,.013.243.449.449,0,0,1-.619.493,3.478,3.478,0,0,0-1.386-.288,4.027,4.027,0,0,0-3.844,4.18,4.34,4.34,0,0,0,1.134,2.973.449.449,0,0,1-.275.75,3.884,3.884,0,0,0-3.268,3.963,3.938,3.938,0,0,0,2.847,3.877Z" transform="translate(-11.255 -2.5)" fill="#323c6b"/><path d="M58.918,62.326a.449.449,0,0,1-.449-.5l.817-6.831a.455.455,0,0,1,.5-.392.449.449,0,0,1,.392.5l-.817,6.831A.449.449,0,0,1,58.918,62.326Z" transform="translate(-16.081 -7.84)" fill="#323c6b"/><path d="M60.089,53.246a.449.449,0,0,1-.449-.5l.072-.6a.454.454,0,0,1,.5-.392.449.449,0,0,1,.392.5l-.072.6A.449.449,0,0,1,60.089,53.246Z" transform="translate(-16.201 -7.548)" fill="#323c6b"/><path d="M11.689,14.016a.46.46,0,0,1-.09-.009.449.449,0,0,1-.349-.53,7.709,7.709,0,0,1,4.859-5.711.449.449,0,0,1,.3.845,6.808,6.808,0,0,0-4.284,5.047.449.449,0,0,1-.437.358Z" transform="translate(-11.241 -3.038)" fill="#323c6b"/><path d="M19.532,6.658a.449.449,0,0,1-.359-.718,6.052,6.052,0,0,1,.4-.476.449.449,0,1,1,.655.613q-.18.195-.345.407A.449.449,0,0,1,19.532,6.658Z" transform="translate(-12.045 -2.788)" fill="#323c6b"/></g><path d="M28.786,32.747a.7.7,0,0,1-.685.7h-7.56a.609.609,0,0,1-.258-.057.663.663,0,0,1-.436-.628.618.618,0,0,1,.2-.48.688.688,0,0,1,.48-.218h7.569a.711.711,0,0,1,.694.681Z" transform="translate(-0.882 -3.03)" fill="#fff"/><path d="M32.245,32.756a.687.687,0,0,1-.685.694h-.09a.646.646,0,0,1-.258-.062.673.673,0,0,1-.435-.622.687.687,0,0,1,.676-.7h.09a.718.718,0,0,1,.7.693Z" transform="translate(-2.002 -3.03)" fill="#fff"/><path d="M27.039,43.073a.449.449,0,0,1-.449-.416l-.96-13.346a.45.45,0,1,1,.9-.065l.96,13.346a.449.449,0,0,1-.416.48Z" transform="translate(-1.475 -2.699)" fill="#323c6b"/></g></svg>