<svg xmlns="http://www.w3.org/2000/svg" width="51.503" height="55.845" viewBox="0 0 51.503 55.845"><g transform="translate(-4.976)"><path d="M5.976,24.894V59.048C5.976,64.6,14.012,69.1,23.925,69.1s17.949-4.5,17.949-10.054V24.894Z" transform="translate(-0.564 -14.033)" fill="#ffc943"/><g transform="translate(23.357 13.339)" opacity="0.45"><path d="M48.936,30.574H47.112V70.131a5.41,5.41,0,0,0,.288,2.4c.4.175,1.232-.242,1.662-.085Z" transform="translate(-47.106 -30.574)" fill="#f0f5f9"/></g><g transform="translate(16.41 10.922)" opacity="0.45"><path d="M36.609,27.3V25.034H31.184V68.392a29.392,29.392,0,0,0,4.486.692,5.873,5.873,0,0,1-.448-2.228V27.3Z" transform="translate(-31.184 -25.034)" fill="#f0f5f9"/></g><ellipse cx="17.949" cy="10.053" rx="17.949" ry="10.053" transform="translate(5.412 0.436)" fill="#ffc943"/><g transform="translate(4.976 0)"><path d="M23.362,20.981c-10.138,0-18.386-4.707-18.386-10.49S13.224,0,23.362,0,41.747,4.707,41.747,10.491,33.5,20.981,23.362,20.981Zm0-20.108C13.7.873,5.849,5.188,5.849,10.491s7.856,9.617,17.513,9.617,17.513-4.314,17.513-9.617S33.018.873,23.362.873Z" transform="translate(-4.976 0)" fill="#2f3a5a"/><path d="M41.388,18.133c-2.487,0-4.434-1.175-4.434-2.675s1.948-2.675,4.434-2.675,4.434,1.175,4.434,2.675a.436.436,0,1,1-.873,0c0-.853-1.462-1.8-3.561-1.8s-3.561.95-3.561,1.8,1.462,1.8,3.561,1.8a.436.436,0,1,1,0,.873Z" transform="translate(-23.002 -7.205)" fill="#2f3a5a"/><path d="M41.388,28.4c-2.487,0-4.434-1.175-4.434-2.675a.436.436,0,1,1,.873,0c0,.853,1.462,1.8,3.561,1.8s3.561-.95,3.561-1.8-1.462-1.8-3.561-1.8a.436.436,0,1,1,0-.873c2.487,0,4.434,1.175,4.434,2.675S43.874,28.4,41.388,28.4Z" transform="translate(-23.002 -12.991)" fill="#2f3a5a"/><path d="M46.553,22.459a.436.436,0,0,1-.436-.436V10.679a.436.436,0,1,1,.873,0V22.023A.436.436,0,0,1,46.553,22.459Z" transform="translate(-28.168 -5.774)" fill="#2f3a5a"/></g><path d="M16.857,9.8a9.72,9.72,0,0,0-5.346,4.484c-.1.2.121.414.486.467a1.2,1.2,0,0,0,.175.013.735.735,0,0,0,.66-.285,8.772,8.772,0,0,1,4.818-4.057c.305-.123.379-.361.16-.533a1.065,1.065,0,0,0-.952-.089Z" transform="translate(-3.671 -5.483)" fill="#fff"/><path d="M29.91,7.77a.831.831,0,0,0-.837-.27c-.044.007-.448.069-1.075.228-.344.087-.5.314-.341.506a.826.826,0,0,0,.623.225,1.155,1.155,0,0,0,.281-.034c.528-.134.867-.186.87-.187C29.791,8.184,30.006,7.974,29.91,7.77Z" transform="translate(-12.751 -4.214)" fill="#fff"/><g transform="translate(4.976 10.055)"><path d="M23.362,113.663c-.807,0-1.648-.033-2.5-.1a27.145,27.145,0,0,1-8.669-2.053c-4.587-1.989-7.218-5.029-7.218-8.339h.873c0,2.947,2.44,5.694,6.694,7.539A26.264,26.264,0,0,0,20.93,112.7c.829.063,1.647.1,2.432.1,9.657,0,17.513-4.314,17.513-9.617h.873c0,5.783-8.248,10.489-18.386,10.489Z" transform="translate(-4.976 -68.214)" fill="#2f3a5a"/><path d="M23.362,97.579c-10.138,0-18.386-4.706-18.386-10.49h.873c0,5.3,7.856,9.617,17.513,9.617s17.513-4.314,17.513-9.617h.873c0,5.784-8.248,10.49-18.386,10.49Z" transform="translate(-4.976 -59.148)" fill="#2f3a5a"/><path d="M23.362,81.5c-10.138,0-18.386-4.706-18.386-10.49h.873c0,5.3,7.856,9.617,17.513,9.617s17.513-4.314,17.513-9.617h.873c0,5.784-8.248,10.49-18.386,10.49Z" transform="translate(-4.976 -50.083)" fill="#2f3a5a"/><path d="M23.362,65.418c-10.138,0-18.386-4.706-18.386-10.49h.873c0,5.3,7.856,9.617,17.513,9.617s17.513-4.314,17.513-9.617h.873c0,5.784-8.248,10.49-18.386,10.49Z" transform="translate(-4.976 -41.018)" fill="#2f3a5a"/><path d="M23.362,49.337c-10.138,0-18.386-4.708-18.386-10.49h.873c0,5.3,7.856,9.617,17.513,9.617s17.513-4.315,17.513-9.617h.873c0,5.782-8.248,10.49-18.385,10.49Z" transform="translate(-4.976 -31.953)" fill="#2f3a5a"/><path d="M87.693,58.44A.436.436,0,0,1,87.257,58V23.482a.436.436,0,1,1,.873,0V58A.436.436,0,0,1,87.693,58.44Z" transform="translate(-51.359 -23.046)" fill="#2f3a5a"/><path d="M5.412,58.44A.436.436,0,0,1,4.976,58V23.482a.436.436,0,0,1,.873,0V58A.436.436,0,0,1,5.412,58.44Z" transform="translate(-4.976 -23.046)" fill="#2f3a5a"/></g><circle cx="12.415" cy="12.415" r="12.415" transform="translate(31.214 30.58)" fill="#ffc943"/><path d="M76.965,94.792A12.851,12.851,0,1,1,89.816,81.941,12.851,12.851,0,0,1,76.965,94.792Zm0-24.829A11.978,11.978,0,1,0,88.943,81.941,11.978,11.978,0,0,0,76.965,69.963Z" transform="translate(-33.337 -38.947)" fill="#2f3a5a"/><path d="M89.433,91.273a3.2,3.2,0,1,1,3.2-3.2.436.436,0,0,1-.873,0A2.328,2.328,0,1,0,89.433,90.4a.436.436,0,1,1,0,.873Z" transform="translate(-45.805 -47.843)" fill="#2f3a5a"/><path d="M89.433,103.948a3.2,3.2,0,0,1-3.2-3.2.436.436,0,0,1,.873,0,2.328,2.328,0,1,0,2.328-2.328.436.436,0,0,1,0-.873,3.2,3.2,0,1,1,0,6.4Z" transform="translate(-45.805 -54.988)" fill="#2f3a5a"/><path d="M93.005,96.549a.436.436,0,0,1-.436-.436V82.167a.436.436,0,1,1,.873,0V96.113A.436.436,0,0,1,93.005,96.549Z" transform="translate(-49.377 -46.073)" fill="#2f3a5a"/><path d="M74.978,78.8a9.639,9.639,0,0,0-3.7,5.536.472.472,0,0,0,.913.241,8.707,8.707,0,0,1,3.332-5.009.472.472,0,0,0-.548-.769Z" transform="translate(-37.367 -44.368)" fill="#fff"/><path d="M84.005,76.69a.472.472,0,0,0-.579-.333,5.332,5.332,0,0,0-.742.282.472.472,0,0,0,.386.862,4.643,4.643,0,0,1,.6-.231.472.472,0,0,0,.332-.58Z" transform="translate(-43.648 -43.034)" fill="#fff"/><path d="M63.077,37.519l-1.29-2.359L60.5,37.519l-2.359,1.29L60.5,40.1l1.29,2.359,1.29-2.359,2.359-1.29Z" transform="translate(-29.968 -19.82)" fill="#fff"/><path d="M61.222,42.33a.436.436,0,0,1-.383-.227l-1.229-2.247-2.246-1.229a.436.436,0,0,1,0-.766l2.247-1.229,1.229-2.247a.436.436,0,0,1,.765,0l1.231,2.247,2.247,1.229a.436.436,0,0,1,0,.766l-2.247,1.229L61.608,42.1a.436.436,0,0,1-.386.227Zm-2.74-4.085,1.658.907a.436.436,0,0,1,.175.175l.907,1.658.907-1.658a.436.436,0,0,1,.175-.175l1.658-.907L62.3,37.337a.436.436,0,0,1-.175-.175L61.222,35.5l-.907,1.658a.436.436,0,0,1-.175.175Z" transform="translate(-29.404 -19.256)" fill="#2f3a5a"/><path d="M106.367,70.335l-1.29-2.359-1.291,2.359-2.359,1.291,2.359,1.29,1.291,2.359,1.29-2.359,2.359-1.29Z" transform="translate(-54.371 -38.319)" fill="#fff"/><path d="M104.514,75.165a.436.436,0,0,1-.383-.227L102.9,72.691l-2.247-1.229a.436.436,0,0,1,0-.766l2.247-1.229,1.229-2.247a.454.454,0,0,1,.766,0l1.229,2.247,2.247,1.229a.436.436,0,0,1,0,.766l-2.247,1.229L104.9,74.938a.436.436,0,0,1-.383.227Zm-2.74-4.085,1.658.907a.436.436,0,0,1,.175.175l.907,1.658.907-1.658a.436.436,0,0,1,.175-.175l1.658-.907-1.658-.907a.436.436,0,0,1-.175-.175l-.907-1.658L103.606,70a.436.436,0,0,1-.175.175Z" transform="translate(-53.808 -37.775)" fill="#2f3a5a"/></g></svg>