<svg xmlns="http://www.w3.org/2000/svg" width="63.396" height="69" viewBox="0 0 63.396 69"><g transform="translate(-5.2 0.001)"><path d="M83.078,5.325A7.767,7.767,0,0,0,72.672,1.809c-3.845,1.9-12.1,9.865-10.2,13.712s13.244,2.112,17.089.21A7.767,7.767,0,0,0,83.078,5.325Z" transform="translate(-26.268 -0.462)" fill="#d9e2e9"/><path d="M79.744,15.963c-3.845,1.9-15.187,3.636-17.095-.21a.634.634,0,0,1-.067-.164,27.135,27.135,0,0,0,13.459-1.848A7.781,7.781,0,0,0,78.3,1.5a7.763,7.763,0,0,1,1.444,14.461Z" transform="translate(-26.448 -0.692)" fill="#c1cdd3"/><path d="M68.6,17.893c-3.253,0-6.132-.692-7.074-2.595-1.2-2.419.98-5.78,3.019-8.174A27.715,27.715,0,0,1,71.968.862a8.306,8.306,0,1,1,7.367,14.889A27.977,27.977,0,0,1,68.6,17.893ZM75.645,1.078a7.2,7.2,0,0,0-3.2.755,26.681,26.681,0,0,0-7.084,5.991c-2.546,2.99-3.592,5.54-2.872,7,1.682,3.4,12.681,1.79,16.367-.035A7.23,7.23,0,0,0,75.645,1.078Z" transform="translate(-25.803 0)" fill="#2f3a5a"/><path d="M24.251,5.325A7.767,7.767,0,0,1,34.657,1.81c3.845,1.9,12.1,9.865,10.2,13.712s-13.244,2.112-17.089.21A7.767,7.767,0,0,1,24.251,5.325Z" transform="translate(-8.409 -0.462)" fill="#d9e2e9"/><path d="M27.761,15.963c3.845,1.9,15.187,3.636,17.095-.21a.634.634,0,0,0,.067-.164,27.135,27.135,0,0,1-13.459-1.848A7.781,7.781,0,0,1,29.206,1.5a7.763,7.763,0,0,0-1.444,14.461Z" transform="translate(-8.406 -0.692)" fill="#c1cdd3"/><path d="M37.808,17.9A27.983,27.983,0,0,1,27.07,15.755,8.307,8.307,0,0,1,34.438.865c4.1,2.027,12.533,10.213,10.444,14.436-.942,1.9-3.821,2.6-7.074,2.6ZM24.276,5.1a7.237,7.237,0,0,0,3.273,9.684c3.686,1.824,14.685,3.432,16.367.035S37.646,3.656,33.959,1.832A7.237,7.237,0,0,0,24.275,5.1Z" transform="translate(-7.951 -0.003)" fill="#2f3a5a"/><circle cx="6.754" cy="6.754" r="6.754" transform="translate(30.178 6.23)" fill="#d9e2e9"/><path d="M57.828,25.144a7.293,7.293,0,1,1,7.294-7.293,7.293,7.293,0,0,1-7.294,7.293Zm0-13.509a6.215,6.215,0,1,0,6.216,6.215,6.215,6.215,0,0,0-6.216-6.215Z" transform="translate(-20.896 -4.867)" fill="#2f3a5a"/><path d="M11.719,35.031H68.086V84.607H11.719Z" transform="translate(-3.005 -16.147)" fill="#ef5361"/><path d="M11.719,35.031H68.086V48.218H11.719Z" transform="translate(-3.005 -16.147)" fill="#da2a47"/><path d="M67.626,84.685H11.258a.539.539,0,0,1-.539-.539V34.57a.539.539,0,0,1,.539-.539H67.626a.539.539,0,0,1,.539.539V84.146A.539.539,0,0,1,67.626,84.685ZM11.8,83.607H67.086v-48.5H11.8Z" transform="translate(-2.544 -15.686)" fill="#2f3a5a"/><path d="M6.2,28.931H68.518V40.167H6.2Z" transform="translate(-0.459 -13.335)" fill="#ef5361"/><path d="M68.057,40.245H5.739a.539.539,0,0,1-.539-.539V28.47a.539.539,0,0,1,.539-.539H68.057a.539.539,0,0,1,.539.539V39.706A.539.539,0,0,1,68.057,40.245ZM6.278,39.167h61.24V29.009H6.278Z" transform="translate(0 -12.875)" fill="#2f3a5a"/><g transform="translate(10.874 31.403)"><circle cx="1.865" cy="1.865" r="1.865" fill="#e1e6e9"/><circle cx="1.865" cy="1.865" r="1.865" transform="translate(9.664)" fill="#e1e6e9"/><circle cx="1.865" cy="1.865" r="1.865" transform="translate(19.327)" fill="#e1e6e9"/><circle cx="1.865" cy="1.865" r="1.865" transform="translate(28.991)" fill="#e1e6e9"/><circle cx="1.865" cy="1.865" r="1.865" transform="translate(38.654)" fill="#e1e6e9"/><circle cx="1.865" cy="1.865" r="1.865" transform="translate(48.318)" fill="#e1e6e9"/><circle cx="1.865" cy="1.865" r="1.865" transform="translate(5.933 5.447)" fill="#e1e6e9"/><circle cx="1.865" cy="1.865" r="1.865" transform="translate(15.596 5.447)" fill="#e1e6e9"/><circle cx="1.865" cy="1.865" r="1.865" transform="translate(25.26 5.447)" fill="#e1e6e9"/><circle cx="1.865" cy="1.865" r="1.865" transform="translate(34.924 5.447)" fill="#e1e6e9"/><circle cx="1.865" cy="1.865" r="1.865" transform="translate(44.587 5.447)" fill="#e1e6e9"/><circle cx="1.865" cy="1.865" r="1.865" transform="translate(0 11.105)" fill="#e1e6e9"/><circle cx="1.865" cy="1.865" r="1.865" transform="translate(9.664 11.105)" fill="#e1e6e9"/><circle cx="1.865" cy="1.865" r="1.865" transform="translate(19.327 11.105)" fill="#e1e6e9"/><circle cx="1.865" cy="1.865" r="1.865" transform="translate(28.991 11.105)" fill="#e1e6e9"/><circle cx="1.865" cy="1.865" r="1.865" transform="translate(38.654 11.105)" fill="#e1e6e9"/><circle cx="1.865" cy="1.865" r="1.865" transform="translate(48.318 11.105)" fill="#e1e6e9"/><circle cx="1.865" cy="1.865" r="1.865" transform="translate(5.933 16.552)" fill="#e1e6e9"/><circle cx="1.865" cy="1.865" r="1.865" transform="translate(15.596 16.552)" fill="#e1e6e9"/><circle cx="1.865" cy="1.865" r="1.865" transform="translate(25.26 16.552)" fill="#e1e6e9"/><circle cx="1.865" cy="1.865" r="1.865" transform="translate(34.924 16.552)" fill="#e1e6e9"/><circle cx="1.865" cy="1.865" r="1.865" transform="translate(44.587 16.552)" fill="#e1e6e9"/><circle cx="1.865" cy="1.865" r="1.865" transform="translate(0 22.209)" fill="#e1e6e9"/><circle cx="1.865" cy="1.865" r="1.865" transform="translate(9.664 22.209)" fill="#e1e6e9"/><circle cx="1.865" cy="1.865" r="1.865" transform="translate(19.327 22.209)" fill="#e1e6e9"/><circle cx="1.865" cy="1.865" r="1.865" transform="translate(28.991 22.209)" fill="#e1e6e9"/><circle cx="1.865" cy="1.865" r="1.865" transform="translate(38.654 22.209)" fill="#e1e6e9"/><circle cx="1.865" cy="1.865" r="1.865" transform="translate(48.318 22.209)" fill="#e1e6e9"/><circle cx="1.865" cy="1.865" r="1.865" transform="translate(5.933 27.657)" fill="#e1e6e9"/><circle cx="1.865" cy="1.865" r="1.865" transform="translate(15.596 27.657)" fill="#e1e6e9"/><circle cx="1.865" cy="1.865" r="1.865" transform="translate(25.26 27.657)" fill="#e1e6e9"/><circle cx="1.865" cy="1.865" r="1.865" transform="translate(34.924 27.657)" fill="#e1e6e9"/><circle cx="1.865" cy="1.865" r="1.865" transform="translate(44.587 27.657)" fill="#e1e6e9"/></g><path d="M55.156,28.931h9.535V81.795H55.156Z" transform="translate(-23.026 -13.335)" fill="#d9e2e9"/><path d="M64.691,28.925V81.8H55.16V78.938h6.568V28.925Z" transform="translate(-23.027 -13.333)" fill="#c1cdd3"/><path d="M64.769,81.873H54.156V27.931H64.769Zm-9.535-1.078h8.457V29.009H55.234Z" transform="translate(-22.565 -12.875)" fill="#2f3a5a"/></g></svg>