<svg xmlns="http://www.w3.org/2000/svg" width="56.684" height="69" viewBox="0 0 56.684 69"><g transform="translate(-11.423 -0.002)"><path d="M73.292,106.328h-24.5a.539.539,0,0,1-.22-1.031l10.341-4.629V83.758l-1.32-1.934a.539.539,0,0,1,.445-.843h6a.539.539,0,0,1,.45.844l-1.32,1.925v16.918L73.508,105.3a.539.539,0,0,1-.216,1.031Zm-21.971-1.078H70.766l-8.356-3.741a.539.539,0,0,1-.319-.492V84.025h-2.1v16.991a.539.539,0,0,1-.319.492Zm8.346-22.3h2.745l.609-.888h-3.96Z" transform="translate(-16.977 -37.326)" fill="#2f3a5a"/><circle cx="9.719" cy="9.719" r="9.719" transform="translate(11.963 4.557)" fill="#f0f5f9"/><path d="M21.681,27.968A10.258,10.258,0,1,1,31.939,17.71,10.258,10.258,0,0,1,21.681,27.968Zm0-19.437a9.18,9.18,0,1,0,9.179,9.179A9.18,9.18,0,0,0,21.681,8.531Z" transform="translate(0 -3.434)" fill="#2f3a5a"/><g transform="translate(13.472 6.066)"><path d="M15.922,21.634h6.724l-4.755-4.755a.694.694,0,0,0-1.04.063,8.231,8.231,0,0,0-1.617,3.908.7.7,0,0,0,.689.784Z" transform="translate(-15.226 -13.751)" fill="#ffc943"/><path d="M24.821,11.257a8.231,8.231,0,0,0-3.908,1.617.694.694,0,0,0-.063,1.04L25.6,18.67V11.948a.7.7,0,0,0-.784-.691Z" transform="translate(-17.723 -11.252)" fill="#ffc943"/><path d="M15.92,27.088a.7.7,0,0,0-.691.784,8.232,8.232,0,0,0,1.617,3.908.694.694,0,0,0,1.04.063l4.755-4.755Z" transform="translate(-15.224 -18.551)" fill="#ffc943"/><path d="M35.751,12.878a8.231,8.231,0,0,0-3.908-1.617.7.7,0,0,0-.784.691v6.722l4.756-4.753a.694.694,0,0,0-.064-1.043Z" transform="translate(-22.523 -11.254)" fill="#ffc943"/><path d="M39.334,20.849a8.231,8.231,0,0,0-1.617-3.908.694.694,0,0,0-1.04-.063l-4.755,4.755h6.722a.7.7,0,0,0,.691-.784Z" transform="translate(-22.92 -13.751)" fill="#ffc943"/><path d="M20.912,33.743A8.232,8.232,0,0,0,24.82,35.36a.7.7,0,0,0,.784-.691V27.945L20.849,32.7a.694.694,0,0,0,.063,1.043Z" transform="translate(-17.721 -18.946)" fill="#ffc943"/><path d="M38.219,27.059H31.848l4.5,4.5a.7.7,0,0,0,1.048-.072,7.844,7.844,0,0,0,1.509-3.649.695.695,0,0,0-.689-.784Z" transform="translate(-22.886 -18.538)" fill="#ffc943"/><path d="M31.059,27.945v6.724a.7.7,0,0,0,.784.691,8.232,8.232,0,0,0,3.908-1.617.694.694,0,0,0,.063-1.04Z" transform="translate(-22.523 -18.946)" fill="#ffc943"/></g><path d="M52.993,58.465h.47l.061-.1h.005L54.871,56.4h.005l7.092-10.35,7.76-11.328h.005l5.645-8.24H28.366l.039.056.608.889.154.226.652.95,3.557,5.186.635.933h.005l.182.265,7.578,11.063,7.1,10.35,1.342,1.967h2.314Z" transform="translate(-7.81 -12.205)" fill="#f0f5f9"/><path d="M72.647,58.407l.413-.041h.005L74.413,56.4l7.092-10.35,7.76-11.328h.005l5.645-8.24h-6.76l-4.5,8.24L71.823,56.4l-.414.762-.657,1.2h1.314Z" transform="translate(-27.347 -12.205)" fill="#d9e2e9"/><path d="M74.565,41.767,66.8,53.1l-7.092,10.35L58.36,65.412H55.051L53.7,63.445l-7.1-10.35L39.029,42.032l-.182-.265Z" transform="translate(-12.641 -19.251)" fill="#ffc943"/><path d="M89.271,41.767,81.505,53.1l-7.092,10.35-1.348,1.967H70.752l.657-1.2.414-.762L83.659,41.767Z" transform="translate(-27.347 -19.251)" fill="#f7b521"/><path d="M28.438,26.48v.054l.608.889.155.226.652.95,3.558,5.186.823,1.2a9.714,9.714,0,0,0,5.01-8.505Z" transform="translate(-7.843 -12.204)" fill="#d9e2e9"/><path d="M33.771,34.989a.539.539,0,0,1-.445-.234L27.532,26.3a.539.539,0,0,1-.094-.3v-.143a.539.539,0,0,1,.539-.539h10.8a.539.539,0,0,1,.539.539v.088a10.268,10.268,0,0,1-5.285,8.976A.536.536,0,0,1,33.771,34.989ZM28.9,26.4l5.031,7.335a9.192,9.192,0,0,0,4.3-7.335Z" transform="translate(-7.382 -11.669)" fill="#2f3a5a"/><path d="M38.826,27.384H32.173L36.5,31.713a.7.7,0,0,0,1.048-.072,7.844,7.844,0,0,0,1.509-3.649.681.681,0,0,0-.232-.609Z" transform="translate(-9.564 -12.621)" fill="#ffc943"/><path d="M35.749,33.74a2.718,2.718,0,0,1-.643.443l-4.047-5.9v-.342L35.815,32.7a.691.691,0,0,1-.066,1.039Z" transform="translate(-9.051 -12.88)" fill="#ffc943"/><g transform="translate(20.556 14.276)" opacity="0.25"><path d="M29.167,27.652l.652.95,3.557,5.186.636.933H44.722l-4.5-8.24H28.366l.039.056.608.889Z" transform="translate(-28.366 -26.481)" fill="#fff"/></g><path d="M0,0H2.379V42.261H0Z" transform="translate(56.941 0.525) rotate(22.206)" fill="#d9e2e9"/><path d="M67.918,41.1a.539.539,0,0,1-.2-.04l-2.2-.9a.539.539,0,0,1-.295-.7L81.206.336a.539.539,0,0,1,.7-.295l2.2.9a.539.539,0,0,1,.295.7L68.415,40.763a.539.539,0,0,1-.5.337Zm-1.5-1.735,1.2.492L83.2,1.735,82,1.241Z" transform="translate(-24.778 0)" fill="#2f3a5a"/><path d="M73.181,41.768,66.174,58.911l2.2.9,7.374-18.044Z" transform="translate(-25.236 -19.251)" fill="#d9e2e9"/><path d="M67.918,59.9a.539.539,0,0,1-.2-.04l-2.2-.9a.539.539,0,0,1-.295-.7l7.008-17.142a.539.539,0,0,1,.5-.335H75.3a.539.539,0,0,1,.5.743L68.418,59.56a.539.539,0,0,1-.5.335Zm-1.5-1.735,1.2.492,6.867-16.8H73.085Z" transform="translate(-24.778 -18.795)" fill="#84879c"/><path d="M53,58.543a.539.539,0,0,1-.46-.82l.061-.1a.569.569,0,0,1,.058-.078l1.3-1.911a.539.539,0,0,1,.044-.054L68.822,33.955a.559.559,0,0,1,.044-.054L73.9,26.559H28.927L50.163,57.547a.554.554,0,0,1,.045.059l.066.1a.539.539,0,1,1-.9.6l-.03-.045a.5.5,0,0,1-.039-.05L27.463,26.329a.539.539,0,0,1,.441-.848H74.917a.539.539,0,0,1,.445.844l-5.644,8.241a.557.557,0,0,1-.044.054L54.86,56.243a.538.538,0,0,1-.043.054l-1.3,1.911c-.008.012-.017.024-.026.035l-.025.042a.539.539,0,0,1-.461.259Z" transform="translate(-7.348 -11.744)" fill="#2f3a5a"/><path d="M57.9,65.489H54.59a.539.539,0,0,1-.445-.234L37.941,41.61A.539.539,0,0,1,38.83,41L54.874,64.41h2.74L73.659,41a.539.539,0,1,1,.889.61l-16.2,23.645a.539.539,0,0,1-.445.234Z" transform="translate(-12.179 -18.789)" fill="#2f3a5a"/></g></svg>