<svg xmlns="http://www.w3.org/2000/svg" width="61.034" height="60.546" viewBox="0 0 61.034 60.546"><g transform="translate(-2.549 -0.437)"><path d="M41.85,13.811a.485.485,0,0,1-.071-.006.433.433,0,0,1-.356-.426V2.926a.426.426,0,0,1,.426-.426.463.463,0,0,1,.467.426V13.293a.435.435,0,0,1-.068.232A.414.414,0,0,1,41.85,13.811Z" transform="translate(-5.753 -0.305)" fill="#323c6b"/><path d="M41.89,30.567a.463.463,0,0,1-.467-.426V19.7a.426.426,0,0,1,.826-.147.433.433,0,0,1,.066.229V30.141A.426.426,0,0,1,41.89,30.567Zm.037-10.89-.078.025Z" transform="translate(-5.753 -2.788)" fill="#323c6b"/><path d="M41.85,13.811a.485.485,0,0,1-.071-.006.433.433,0,0,1-.356-.426V2.926a.426.426,0,0,1,.426-.426.463.463,0,0,1,.467.426V13.293a.435.435,0,0,1-.068.232A.414.414,0,0,1,41.85,13.811Z" transform="translate(-5.753 -0.305)" fill="#323c6b"/><path d="M41.89,30.567a.463.463,0,0,1-.467-.426V19.7a.426.426,0,0,1,.826-.147.433.433,0,0,1,.066.229V30.141A.426.426,0,0,1,41.89,30.567Zm.037-10.89-.078.025Z" transform="translate(-5.753 -2.788)" fill="#323c6b"/><path d="M46.22,15.366a4.506,4.506,0,0,1-8.543,2.01.21.21,0,0,1-.041-.085V27.733H27.463a4.516,4.516,0,1,0-4.308,0H12.942V5.751A2.751,2.751,0,0,1,15.694,3h21.94V13.45a.3.3,0,0,1,.041-.085,4.506,4.506,0,0,1,8.545,2Z" transform="translate(-1.538 -0.379)" fill="#fcd462"/><path d="M37.631,3V6.11H15.692A2.751,2.751,0,0,0,12.94,8.862V5.752A2.751,2.751,0,0,1,15.692,3Z" transform="translate(-1.538 -0.379)" fill="#f7be56"/><path d="M66.663,27.733H56.347a4.516,4.516,0,1,1-4.1,0H41.971V17.376a4.509,4.509,0,1,0,0-4.009V3h21.94a2.758,2.758,0,0,1,2.752,2.751Z" transform="translate(-5.834 -0.379)" fill="#27ccbc"/><path d="M66.661,5.752V27.734h-3.8V8.632A2.756,2.756,0,0,0,60.109,5.88H41.97V3H63.909a2.756,2.756,0,0,1,2.752,2.752Z" transform="translate(-5.834 -0.379)" fill="#21b3a9"/><path d="M19.31,52.864a4.507,4.507,0,0,0,8.43,2.227V65.23H5.8a2.745,2.745,0,0,1-2.752-2.752V40.5H13.261a4.516,4.516,0,1,1,4.308,0H27.74V50.635a4.507,4.507,0,0,0-8.43,2.226Z" transform="translate(-0.074 -4.673)" fill="#05afd6"/><path d="M27.666,65.582H5.725A3.181,3.181,0,0,1,2.549,62.4V40.423A.426.426,0,0,1,2.975,40H11.9a4.942,4.942,0,1,1,6.888,0h8.881a.426.426,0,0,1,.426.426V50.562a.426.426,0,0,1-.8.21,4.09,4.09,0,1,0,0,4.033.426.426,0,0,1,.8.209V65.156a.426.426,0,0,1-.426.426ZM3.4,40.849V62.4A2.328,2.328,0,0,0,5.725,64.73H27.24V56.277a4.942,4.942,0,1,1,0-6.975V40.849H17.495a.426.426,0,0,1-.2-.8,4.09,4.09,0,1,0-3.9,0,.426.426,0,0,1-.2.8Z" transform="translate(0 -4.599)" fill="#323c6b"/><path d="M65.189,32.029V54.011a2.752,2.752,0,0,1-2.752,2.752H40.5V46.549a.17.17,0,0,1-.041.072,4.516,4.516,0,1,1,0-4.452.164.164,0,0,1,.041.072V32.029H50.771a4.516,4.516,0,1,0,4.1,0Z" transform="translate(-4.36 -4.675)" fill="#fe7058"/><path d="M69.806,32.03V54.012a2.751,2.751,0,0,1-2.752,2.752H63.22a2.751,2.751,0,0,0,2.752-2.752V32.03Z" transform="translate(-8.979 -4.676)" fill="#ea6453"/><g transform="translate(8.422 0.437)"><path d="M9.868,12.9a.426.426,0,0,1-.426-.426v-.355a.426.426,0,0,1,.852,0v.355A.426.426,0,0,1,9.868,12.9Z" transform="translate(-9.442 -2.103)" fill="#323c6b"/><path d="M9.868,8.909a.426.426,0,0,1-.426-.426V5.372A5.7,5.7,0,0,1,12.179.5a.426.426,0,0,1,.448.725,4.848,4.848,0,0,0-2.333,4.146V8.483A.426.426,0,0,1,9.868,8.909Z" transform="translate(-9.442 -0.437)" fill="#323c6b"/><path d="M67.189,63.754H64.548a.426.426,0,0,1,0-.852h2.641a4.916,4.916,0,0,0,4.672-3.474.426.426,0,1,1,.815.247A5.773,5.773,0,0,1,67.189,63.754Z" transform="translate(-17.534 -9.123)" fill="#323c6b"/><path d="M61.216,64.41h-.852a.426.426,0,0,1,0-.852h.852a.426.426,0,0,1,0,.852Z" transform="translate(-16.915 -9.779)" fill="#323c6b"/><path d="M54.223,36.617a4.942,4.942,0,0,1-3.4-8.532H41.9a.426.426,0,0,1-.426-.426V17.3a.426.426,0,0,1,.808-.188,4.083,4.083,0,1,0,0-3.632.426.426,0,0,1-.808-.188V2.926A.426.426,0,0,1,41.9,2.5h21.94a3.181,3.181,0,0,1,3.177,3.177V27.659a.426.426,0,0,1-.426.426H57.617a4.942,4.942,0,0,1-3.394,8.532Zm-11.9-9.384h9.848a.426.426,0,0,1,.193.806,4.09,4.09,0,1,0,3.716,0,.426.426,0,0,1,.193-.806h9.889V5.677a2.328,2.328,0,0,0-2.325-2.325H42.323v8.576a4.935,4.935,0,1,1,0,6.739Z" transform="translate(-14.182 -0.742)" fill="#323c6b"/><path d="M62.363,57.114H40.423A.426.426,0,0,1,40,56.688V47.767a4.942,4.942,0,1,1,0-6.891v-8.92a.426.426,0,0,1,.426-.426H50.7a.426.426,0,0,1,.193.806,4.09,4.09,0,1,0,3.716,0,.426.426,0,0,1,.193-.806H65.114a.426.426,0,0,1,.426.426V53.937A3.181,3.181,0,0,1,62.363,57.114Zm-21.514-.852H62.363a2.329,2.329,0,0,0,2.325-2.326V32.38H56.143a4.942,4.942,0,1,1-6.789,0h-8.5v9.787a.426.426,0,0,1-.36.421.42.42,0,0,1-.456-.248.319.319,0,0,1-.023-.036,4.09,4.09,0,1,0,0,4.033.355.355,0,0,1,.025-.037.426.426,0,0,1,.814.17Z" transform="translate(-12.708 -5.039)" fill="#323c6b"/><path d="M37.56,28.085H27.388a.426.426,0,0,1-.2-.8,4.09,4.09,0,1,0-3.9,0,.426.426,0,0,1-.2.8H12.868a.426.426,0,0,1-.426-.426V5.677A3.181,3.181,0,0,1,15.62,2.5H37.56a.426.426,0,0,1,.426.426v9.041a4.942,4.942,0,1,1,0,6.655v9.037A.426.426,0,0,1,37.56,28.085Zm-8.88-.852h8.454V17.219a.426.426,0,0,1,.826-.147c.008.014.015.026.022.041a4.083,4.083,0,1,0,0-3.632.442.442,0,0,1-.481.3.421.421,0,0,1-.368-.408V3.352H15.62a2.329,2.329,0,0,0-2.326,2.325V27.233h8.5a4.942,4.942,0,1,1,6.889,0Z" transform="translate(-9.886 -0.742)" fill="#323c6b"/></g><path d="M6.276,51.4a.638.638,0,0,1,.637.64v6.578a.639.639,0,1,1-1.278,0V52.036a.639.639,0,0,1,.641-.636Z" transform="translate(-0.457 -7.542)" fill="#fff"/><path d="M6.28,48.256a.639.639,0,0,1,.638.64v.329a.639.639,0,1,1-1.278,0V48.89a.638.638,0,0,1,.64-.634Z" transform="translate(-0.457 -7.077)" fill="#fff"/></g></svg>