<svg xmlns="http://www.w3.org/2000/svg" width="52.648" height="68.996" viewBox="0 0 52.648 68.996"><g transform="translate(-10.678 -2.504)"><path d="M56.759,14.561a15.966,15.966,0,0,0-9.631-2.421,71.515,71.515,0,0,0-19.156,3.631s-8.894,3.421-13.683,10.262a15.556,15.556,0,0,1,1.473-11.42,20.836,20.836,0,0,1,12.841-10c4.684-1.368,11.262-2.473,17.578-.684,9.631,2.686,10.526,8.685,10.578,10.632Z" fill="#fe7058"/><path d="M56.76,14.56a13.768,13.768,0,0,0-2.5-1.3c-1.24-2.36-3.89-5.05-9.5-6.61-6.31-1.79-12.89-.68-17.57.68A21.165,21.165,0,0,0,15.06,16.1c.21-.51.45-1.01.7-1.49a20.836,20.836,0,0,1,12.84-10c4.69-1.36,11.27-2.47,17.58-.68,9.63,2.68,10.53,8.68,10.58,10.63Z" fill="#ea6453"/><path d="M62.5,30.823a6.034,6.034,0,0,1-.1.631L61.706,34.3a15.754,15.754,0,0,0-14.841-8.578,26.163,26.163,0,0,0-12.736,4.21h-.053a38.772,38.772,0,0,0-9.1,7.857A18.255,18.255,0,0,0,20.71,49.6v1.22c-2.579-.368-9.1-1.842-9.525-15.157a15.1,15.1,0,0,1,3.1-9.631C19.079,19.191,27.973,15.77,27.973,15.77a71.515,71.515,0,0,1,19.156-3.63,15.966,15.966,0,0,1,9.631,2.421C61.338,17.508,63.759,23.192,62.5,30.823Z" fill="#fe7058"/><path d="M62.5,30.82c-.06.42-.11.63-.11.63l-.68,2.85A14.716,14.716,0,0,0,59,30.5c.01-.1.04-.25.06-.43,1.26-7.63-1.16-13.31-5.74-16.26a13.864,13.864,0,0,0-3.21-1.57,14.763,14.763,0,0,1,6.65,2.32C61.34,17.51,63.76,23.19,62.5,30.82Z" fill="#ea6453"/><path d="M20.711,51.321a.5.5,0,0,1-.071,0c-6.306-.9-9.655-6.161-9.955-15.636a.5.5,0,0,1,.484-.515.49.49,0,0,1,.516.484c.281,8.917,3.342,13.855,9.1,14.677a.5.5,0,0,1-.069,1Z" fill="#323c6b"/><path d="M54.075,50.821c2.449.517,8.744-.783,7.631-16.525a15.754,15.754,0,0,0-14.841-8.578,26.163,26.163,0,0,0-12.736,4.21Z" fill="#fe7058"/><path d="M61.71,34.3a13.351,13.351,0,0,0-1.72-2.67c.6,12.658-3.929,15.169-6.665,15.265a7.051,7.051,0,0,1-.523,2.587L54.08,50.82c2.44.52,8.74-.78,7.63-16.52Z" fill="#ea6453"/><path d="M62.8,26.534a.5.5,0,0,1-.367-.16A22.076,22.076,0,0,0,50.469,19.6a.5.5,0,1,1,.193-.981,23.076,23.076,0,0,1,12.509,7.075.5.5,0,0,1-.367.84Z" fill="#323c6b"/><path d="M12.371,43.743a.5.5,0,0,1-.492-.591A29.192,29.192,0,0,1,20.37,28.385a.5.5,0,1,1,.678.736,28.732,28.732,0,0,0-8.187,14.213.5.5,0,0,1-.49.409Z" fill="#323c6b"/><path d="M46.19,12.692a.5.5,0,0,1-.33-.124c-5.545-4.863-14.749-2.45-14.842-2.425a.5.5,0,1,1-.262-.966c.4-.107,9.817-2.573,15.764,2.639a.5.5,0,0,1-.33.876Z" fill="#323c6b"/><path d="M13.635,12.813a.5.5,0,0,1-.435-.747c.063-.11.126-.22.192-.328a.5.5,0,1,1,.852.524c-.061.1-.118.2-.175.3a.5.5,0,0,1-.434.251Z" fill="#323c6b"/><path d="M15.2,10.5a.5.5,0,0,1-.394-.809,23.817,23.817,0,0,1,7.848-6.426.5.5,0,1,1,.461.888,22.825,22.825,0,0,0-7.521,6.156.5.5,0,0,1-.394.191Z" fill="#323c6b"/><path d="M33.125,18.526a.65.65,0,0,1-.3-1.225c.114-.06.227-.12.343-.175a.65.65,0,1,1,.564,1.171c-.1.049-.2.1-.3.154A.649.649,0,0,1,33.125,18.526Z" fill="#fff"/><path d="M35.687,17.415a.65.65,0,0,1-.217-1.263A23.976,23.976,0,0,1,45.6,14.929a.65.65,0,0,1,.591.7.643.643,0,0,1-.7.591A22.627,22.627,0,0,0,35.9,17.377a.65.65,0,0,1-.213.038Z" fill="#fff"/><path d="M54.536,64.438a.5.5,0,0,1-.437-.744,18.858,18.858,0,0,0,2.3-7.269.5.5,0,0,1,.994.1,19.828,19.828,0,0,1-2.417,7.652A.5.5,0,0,1,54.536,64.438Z" fill="#323c6b"/><path d="M53.015,66.706a.482.482,0,0,1-.3-.1.488.488,0,0,1-.089-.691l.019-.022c.063-.081.129-.162.189-.245a.5.5,0,1,1,.807.59c-.068.094-.142.186-.214.277a.525.525,0,0,1-.412.191Z" fill="#323c6b"/><path d="M14.289,26.534a.486.486,0,0,1-.088-.008.5.5,0,0,1-.4-.366A15.978,15.978,0,0,1,15.32,14.382,21.2,21.2,0,0,1,28.464,4.135C33.017,2.8,39.81,1.605,46.318,3.45,56,6.15,57.193,12.11,57.259,14.55a.5.5,0,0,1-.775.431A15.418,15.418,0,0,0,47.15,12.64a71.654,71.654,0,0,0-19.006,3.6c-.08.031-8.8,3.447-13.446,10.08a.5.5,0,0,1-.409.214ZM39.148,3.5a37.754,37.754,0,0,0-10.4,1.59,20.207,20.207,0,0,0-12.539,9.752,15.126,15.126,0,0,0-1.668,10.011c4.915-6.292,12.9-9.418,13.256-9.554A72.726,72.726,0,0,1,47.11,11.635a16.752,16.752,0,0,1,9.07,1.979c-.372-2.556-2.207-7-10.129-9.208a25.318,25.318,0,0,0-6.9-.906Z" fill="#323c6b"/><path d="M20.71,51.321a.487.487,0,0,1-.07,0c-6.306-.9-9.655-6.161-9.955-15.636a15.558,15.558,0,0,1,3.2-9.94C18.7,18.86,27.424,15.447,27.793,15.3a72.725,72.725,0,0,1,19.313-3.664,16.377,16.377,0,0,1,9.929,2.5c5.009,3.224,7.181,9.331,5.955,16.75a6.223,6.223,0,0,1-.114.682L62.192,34.4a.5.5,0,0,1-.44.38.49.49,0,0,1-.5-.294A15.011,15.011,0,0,0,46.88,26.218a25.62,25.62,0,0,0-12.488,4.136.508.508,0,0,1-.153.062,38.278,38.278,0,0,0-8.883,7.692A17.761,17.761,0,0,0,21.21,49.6v1.22a.5.5,0,0,1-.5.5Zm27.311-38.7q-.431,0-.87.019a71.655,71.655,0,0,0-19.006,3.6c-.08.031-8.8,3.447-13.446,10.08a14.6,14.6,0,0,0-3.014,9.323c.272,8.623,3.14,13.525,8.525,14.585V49.6a18.771,18.771,0,0,1,4.382-12.139A39.271,39.271,0,0,1,33.814,29.5a.5.5,0,0,1,.156-.062,26.539,26.539,0,0,1,12.883-4.222,16.3,16.3,0,0,1,14.665,7.721l.386-1.6a5.531,5.531,0,0,0,.1-.575v-.021c1.161-7.013-.848-12.757-5.513-15.76a15.075,15.075,0,0,0-8.466-2.359Z" fill="#323c6b"/><path d="M54.951,51.406a4.827,4.827,0,0,1-.979-.1.5.5,0,0,1-.258-.144L33.769,30.273a.5.5,0,0,1,.1-.771,26.617,26.617,0,0,1,12.985-4.284,16.339,16.339,0,0,1,15.31,8.875.5.5,0,0,1,.042.167c.7,9.833-1.534,13.967-3.526,15.7a5.607,5.607,0,0,1-3.729,1.446Zm-.626-1.047a4.529,4.529,0,0,0,3.7-1.149c1.815-1.582,3.839-5.431,3.192-14.787a15.048,15.048,0,0,0-14.334-8.2,25.237,25.237,0,0,0-11.957,3.816Z" fill="#323c6b"/><path d="M34.13,29.929c.061-.006.166-.015.31-.024a18.443,18.443,0,0,1,19.6,18.53l-.017,5.988a16.657,16.657,0,1,1-33.313-.105V49.6a18.255,18.255,0,0,1,4.264-11.816,38.772,38.772,0,0,1,9.1-7.857Z" fill="#fcd462"/><path d="M54.04,48.43l-.02,5.99a16.662,16.662,0,0,1-28.24,11.9,16.658,16.658,0,0,0,25.4-14.11l.01-5.99a18.42,18.42,0,0,0-5.81-13.55,18.5,18.5,0,0,1,8.66,15.76Z" fill="#f7be56"/><path d="M33.038,46.834a4.451,4.451,0,0,1-2.263-.7c-2.9-1.722-4.571-.933-4.64-.9a.5.5,0,0,1-.458-.889c.09-.045,2.2-1.1,5.609.929a3.338,3.338,0,0,0,1.859.556.5.5,0,0,1,.047,1c-.05,0-.1,0-.154,0Z" fill="#323c6b"/><path d="M27.071,47.036a.5.5,0,0,1-.464-.687,3.114,3.114,0,0,1,2.923-1.808h.063a.5.5,0,1,1-.008,1h-.052a2.125,2.125,0,0,0-2,1.183A.5.5,0,0,1,27.071,47.036Z" fill="#323c6b"/><path d="M37.226,63.777a9.061,9.061,0,0,1-6.708-3,.5.5,0,0,1,.74-.673,8.122,8.122,0,0,0,6.368,2.662,6.682,6.682,0,0,0,5.085-2.624.5.5,0,0,1,.8.6,7.674,7.674,0,0,1-5.838,3.026c-.148.005-.3.009-.447.009Z" fill="#323c6b"/><path d="M37.091,56.977a3.962,3.962,0,0,1-2.934-1.311.5.5,0,1,1,.74-.673,2.954,2.954,0,0,0,2.341.98,2.376,2.376,0,0,0,1.833-.941.5.5,0,1,1,.8.6,3.4,3.4,0,0,1-2.585,1.344h-.195Z" fill="#323c6b"/><path d="M46.929,47.036a.5.5,0,0,1-.462-.309,2.1,2.1,0,0,0-2.044-1.186h-.008a.5.5,0,0,1-.008-1h.063a3.114,3.114,0,0,1,2.923,1.808.5.5,0,0,1-.464.688Z" fill="#323c6b"/><path d="M40.962,46.834h-.155a.5.5,0,1,1,.047-1,3.329,3.329,0,0,0,1.859-.556c3.413-2.03,5.52-.975,5.609-.929a.5.5,0,0,1-.458.889c-.079-.038-1.749-.819-4.64.9a4.451,4.451,0,0,1-2.262.7Z" fill="#323c6b"/><path d="M37.393,71.5A17.112,17.112,0,0,1,25.17,66.431a16.931,16.931,0,0,1-4.96-12.117V49.6a18.771,18.771,0,0,1,4.382-12.139A39.271,39.271,0,0,1,33.814,29.5a.481.481,0,0,1,.268-.074l.048.5-.048-.5.323-.026a18.643,18.643,0,0,1,14.127,5.066,19.107,19.107,0,0,1,6.008,13.97l-.018,5.988A17.119,17.119,0,0,1,37.393,71.5ZM34.229,30.422a38.27,38.27,0,0,0-8.873,7.686A17.761,17.761,0,0,0,21.21,49.6v4.716a15.942,15.942,0,0,0,4.669,11.409,16.156,16.156,0,0,0,27.644-11.3l.018-5.99A18.106,18.106,0,0,0,47.848,35.2a17.634,17.634,0,0,0-13.375-4.8Z" fill="#323c6b"/></g></svg>