<svg xmlns="http://www.w3.org/2000/svg" width="69.002" height="68.785" viewBox="0 0 69.002 68.785"><g transform="translate(-2.499 -3.607)"><path d="M11.125,66.729V34.351L37,10.631l25.875,23.72V66.729Z" fill="#eeefee"/><path d="M62.88,34.35V66.73H60.16V34.35L35.64,11.88,37,10.63Z" fill="#e1e6e9"/><path d="M37.433,42.7H53.208V63.729H37.433Z" fill="#9297ab"/><path d="M53.208,64.229H37.434a.5.5,0,0,1-.5-.5V42.7a.5.5,0,0,1,.5-.5H53.208a.5.5,0,0,1,.5.5V63.729A.5.5,0,0,1,53.208,64.229Zm-15.274-1H52.708V43.2H37.934Z" fill="#323c6b"/><path d="M50,55.637a.5.5,0,0,1-.5-.5V53.093a.5.5,0,0,1,1,0v2.043a.5.5,0,0,1-.5.5Z" fill="#323c6b"/><path d="M19.836,42.7H31.271V54.132H19.836Z" fill="#89c5cd"/><path d="M31.271,54.632H19.836a.5.5,0,0,1-.5-.5V42.7a.5.5,0,0,1,.5-.5H31.271a.5.5,0,0,1,.5.5V54.132A.5.5,0,0,1,31.271,54.632Zm-10.936-1H30.771V43.2H20.336Z" fill="#323c6b"/><path d="M25.554,54.632a.5.5,0,0,1-.5-.5V42.7a.5.5,0,0,1,1,0V54.132A.5.5,0,0,1,25.554,54.632Z" fill="#323c6b"/><path d="M31.271,48.915H19.836a.5.5,0,0,1,0-1H31.271a.5.5,0,1,1,0,1Z" fill="#323c6b"/><path d="M20,15.868A.5.5,0,0,1,19.666,15L26.02,9.283a.5.5,0,1,1,.668.743l-6.354,5.717A.5.5,0,0,1,20,15.868Z" fill="#323c6b"/><path d="M28.178,8.51a.5.5,0,0,1-.334-.872l.428-.385A.5.5,0,0,1,28.939,8l-.428.385A.5.5,0,0,1,28.178,8.51Z" fill="#323c6b"/><path d="M68.711,72.392h-4.4a.5.5,0,0,1,0-1h3.9V65.75a.5.5,0,0,1,1,0v6.142A.5.5,0,0,1,68.711,72.392Z" fill="#323c6b"/><path d="M61.25,72.392h-1a.5.5,0,0,1,0-1h1a.5.5,0,0,1,0,1Z" fill="#323c6b"/><path d="M62.875,67.229H11.125a.5.5,0,0,1-.5-.5V34.351a.5.5,0,0,1,.162-.369l25.875-23.72a.5.5,0,0,1,.676,0l25.875,23.72a.5.5,0,0,1,.162.369V66.729a.5.5,0,0,1-.5.5Zm-51.25-1h50.75V34.57L37,11.309,11.625,34.57Z" fill="#323c6b"/><path d="M8.289,63.728H65.711v5.163H8.289Z" fill="#e7aa6c"/><path d="M65.711,69.392H8.289a.5.5,0,0,1-.5-.5V63.729a.5.5,0,0,1,.5-.5H65.711a.5.5,0,0,1,.5.5v5.163A.5.5,0,0,1,65.711,69.392Zm-56.922-1H65.211V64.229H8.789Z" fill="#323c6b"/><path d="M57.619,27.491a.65.65,0,1,1-.863.971l-7.332-6.525a.65.65,0,1,1,.863-.971" fill="#fff"/><path d="M71,34.7,66.017,40.48,60.648,35.7,37,14.647,13.352,35.7,7.983,40.48,3,34.7,37,4.108Z" fill="#e7aa6c"/><path d="M71,34.7l-4.98,5.78-2.09-1.86,3.38-3.92L35.16,5.77,37,4.11Z" fill="#d09865"/><path d="M57.187,28.626a.644.644,0,0,1-.432-.165l-7.332-6.525a.65.65,0,1,1,.863-.971l7.332,6.525a.65.65,0,0,1-.432,1.135Z" fill="#fff"/><path d="M59.45,30.64a.648.648,0,0,1-.432-.164l-.431-.383a.65.65,0,1,1,.863-.972l.431.383a.65.65,0,0,1-.432,1.136Z" fill="#fff"/><path d="M66.018,40.98a.5.5,0,0,1-.333-.126L37,15.316,8.315,40.854a.491.491,0,0,1-.366.125.5.5,0,0,1-.346-.173L2.621,35.024a.5.5,0,0,1,.045-.7l34-30.589a.5.5,0,0,1,.668,0l34,30.589a.5.5,0,0,1,.045.7L66.4,40.806a.5.5,0,0,1-.346.173ZM37,14.147a.5.5,0,0,1,.332.126l28.639,25.5L70.3,34.742,37,4.781,3.7,34.742l4.331,5.026,28.639-25.5a.5.5,0,0,1,.33-.121Z" fill="#323c6b"/></g></svg>