<svg xmlns="http://www.w3.org/2000/svg" width="22.959" height="22.959" viewBox="0 0 22.959 22.959">
  <g id="Icon_ionic-ios-arrow-dropdown" data-name="Icon ionic-ios-arrow-dropdown" transform="translate(22.959) rotate(90)">
    <path id="Path_975" data-name="Path 975" d="M.31.315a1.069,1.069,0,0,0,0,1.507L5.592,7.087A1.064,1.064,0,0,0,7.06,7.12l5.2-5.188a1.063,1.063,0,1,0-1.5-1.507l-4.47,4.4L1.817.31A1.064,1.064,0,0,0,.31.315Z" transform="translate(5.187 8.664)" fill="#171144"/>
    <path id="Path_976" data-name="Path 976" d="M0,11.48A11.48,11.48,0,1,0,11.48,0,11.478,11.478,0,0,0,0,11.48ZM18.345,4.614A9.71,9.71,0,1,1,4.614,18.345,9.71,9.71,0,1,1,18.345,4.614Z" fill="#171144"/>
  </g>
</svg>
