<svg xmlns="http://www.w3.org/2000/svg" width="22.959" height="22.959" viewBox="0 0 22.959 22.959">
  <g id="icon-slider-right" transform="translate(22.959) rotate(90)">
    <path id="Path_975" data-name="Path 975" d="M.31,7.083a1.069,1.069,0,0,1,0-1.507L5.592.311A1.064,1.064,0,0,1,7.06.278l5.2,5.188a1.063,1.063,0,1,1-1.5,1.507l-4.47-4.4L1.817,7.088A1.064,1.064,0,0,1,.31,7.083Z" transform="translate(5.187 6.897)" fill="#8a87a1"/>
    <path id="Path_976" data-name="Path 976" d="M0,11.48a11.48,11.48,0,1,1,11.48,11.48A11.478,11.478,0,0,1,0,11.48Zm18.345,6.866A9.71,9.71,0,1,0,4.614,4.614,9.71,9.71,0,1,0,18.345,18.345Z" transform="translate(0 0)" fill="#8a87a1"/>
  </g>
</svg>
