<svg xmlns="http://www.w3.org/2000/svg" width="59.01" height="59.01" viewBox="0 0 59.01 59.01"><g transform="translate(-2.5 -2.5)"><circle cx="29.077" cy="29.077" r="29.077" transform="translate(2.928 2.928)" fill="#89c5cd"/><path d="M62.28,32.076a29,29,0,0,1-9.732,21.705A29.077,29.077,0,0,0,10.77,13.569,29.077,29.077,0,0,1,62.28,32.076Z" transform="translate(-1.197 -0.071)" fill="#6eaaad"/><g transform="translate(4.249 6.579)"><path d="M49.691,63.325a.413.413,0,0,1-.091-.009.428.428,0,0,1-.328-.508c.236-1.1.436-2.27.593-3.48a43.274,43.274,0,0,0,.257-8.467A42.742,42.742,0,0,0,44.5,32.411a.428.428,0,1,1,.74-.428A43.625,43.625,0,0,1,50.975,50.8a44.187,44.187,0,0,1-.257,8.638c-.16,1.235-.363,2.429-.6,3.551a.428.428,0,0,1-.422.334Z" transform="translate(-10.321 -10.814)" fill="#323c6b"/><path d="M37.3,24.084a.428.428,0,0,1-.336-.163A42.784,42.784,0,0,0,16.891,9.759a.428.428,0,1,1,.273-.811A43.642,43.642,0,0,1,37.631,23.392a.428.428,0,0,1-.335.692Z" transform="translate(-6.291 -7.509)" fill="#323c6b"/><path d="M44.567,48.524a.428.428,0,0,1-.3-.729A36.311,36.311,0,0,0,48.9,42.039a35.883,35.883,0,0,0,5.5-15.633.428.428,0,0,1,.85.086A36.744,36.744,0,0,1,49.622,42.5,37.268,37.268,0,0,1,44.875,48.4a.428.428,0,0,1-.308.127Z" transform="translate(-10.278 -9.987)" fill="#323c6b"/><path d="M16.666,63.536a.428.428,0,0,1-.021-.855,35.431,35.431,0,0,0,18.835-6.523.428.428,0,1,1,.5.7,36.291,36.291,0,0,1-19.289,6.682Z" transform="translate(-6.237 -14.335)" fill="#323c6b"/><path d="M56.341,17.84a.428.428,0,0,1-.428-.4,35.834,35.834,0,0,0-2.017-9.6.428.428,0,0,1,.806-.289,36.7,36.7,0,0,1,2.067,9.834.428.428,0,0,1-.4.456Z" transform="translate(-11.687 -7.269)" fill="#323c6b"/><path d="M45.758,53.773a.428.428,0,0,1,0-.855,34.369,34.369,0,0,0,4.857-.4,35.6,35.6,0,0,0,15.178-6.093.428.428,0,1,1,.493.7A36.46,36.46,0,0,1,50.743,53.37a35.149,35.149,0,0,1-4.976.406Z" transform="translate(-10.45 -12.928)" fill="#323c6b"/><path d="M13.632,39.89a.428.428,0,0,1-.3-.127A36.577,36.577,0,0,1,4.57,25.4a.428.428,0,1,1,.813-.263,35.728,35.728,0,0,0,8.552,14.026.428.428,0,0,1-.3.729Z" transform="translate(-4.545 -9.811)" fill="#323c6b"/><path d="M35.84,53.3a.471.471,0,0,1-.069-.005,36.432,36.432,0,0,1-15.292-6.292.428.428,0,1,1,.5-.7,35.553,35.553,0,0,0,14.931,6.143.428.428,0,0,1-.068.85Z" transform="translate(-6.826 -12.91)" fill="#323c6b"/><path d="M59.738,20.352a.428.428,0,0,1-.272-.758A34.48,34.48,0,0,0,63.1,16.131a.428.428,0,0,1,.635.574,35.184,35.184,0,0,1-3.724,3.549.422.422,0,0,1-.271.1Z" transform="translate(-12.474 -8.532)" fill="#323c6b"/><path d="M29.009,29.366A36.17,36.17,0,0,1,6.484,21.6a.428.428,0,0,1,.528-.673,35.32,35.32,0,0,0,22,7.581,36.463,36.463,0,0,0,5.621-.44.428.428,0,0,1,.132.845,37.3,37.3,0,0,1-5.753.45Z" transform="translate(-4.802 -9.234)" fill="#323c6b"/></g><path d="M31.277,33.955a37.02,37.02,0,0,1-7.327-.73.556.556,0,0,1,.221-1.09,35.833,35.833,0,0,0,7.107.709.556.556,0,1,1,0,1.112Z" transform="translate(-3.041 -4.289)" fill="#fff"/><path d="M21.726,32.705a.552.552,0,0,1-.153-.014c-.229-.054-.46-.109-.684-.171a.556.556,0,0,1,.275-1.077q.333.086.665.162a.556.556,0,0,1-.1,1.1Z" transform="translate(-2.604 -4.189)" fill="#fff"/><path d="M46.608,27.892a.428.428,0,0,1-.141-.831,36.184,36.184,0,0,0,5.959-2.705.429.429,0,1,1,.428.743,37.056,37.056,0,0,1-6.1,2.769A.433.433,0,0,1,46.608,27.892Z" transform="translate(-6.324 -3.156)" fill="#323c6b"/><path d="M44.757,54a3.17,3.17,0,1,1-.929-2.244A3.169,3.169,0,0,1,44.757,54Z" transform="translate(-5.201 -6.998)" fill="#eeefee"/><path d="M41.512,57.522a3.592,3.592,0,1,1,2.545-1.049,3.6,3.6,0,0,1-2.545,1.049Zm0-6.337a2.744,2.744,0,1,0,1.942.8,2.741,2.741,0,0,0-1.942-.8Z" transform="translate(-5.128 -6.925)" fill="#323c6b"/><path d="M59.5,22.293a3.164,3.164,0,1,1-.927-2.246,3.169,3.169,0,0,1,.927,2.246Z" transform="translate(-7.335 -2.406)" fill="#eeefee"/><path d="M56.252,25.812A3.592,3.592,0,1,1,58.8,24.763,3.6,3.6,0,0,1,56.252,25.812Zm0-6.337A2.741,2.741,0,1,0,59,22.22a2.741,2.741,0,0,0-2.745-2.745Z" transform="translate(-7.262 -2.334)" fill="#323c6b"/><path d="M45.757,28.5a3.169,3.169,0,1,1-3.173-3.164A3.169,3.169,0,0,1,45.757,28.5Z" transform="translate(-5.345 -3.307)" fill="#eeefee"/><path d="M42.512,32.032a3.6,3.6,0,1,1,3.6-3.6A3.6,3.6,0,0,1,42.512,32.032Zm0-6.337a2.737,2.737,0,1,0,1.941.8A2.741,2.741,0,0,0,42.512,25.7Z" transform="translate(-5.273 -3.235)" fill="#323c6b"/><path d="M20.507,43.914a3.169,3.169,0,1,1-3.164-3.164,3.169,3.169,0,0,1,3.164,3.164Z" transform="translate(-1.69 -5.538)" fill="#eeefee"/><path d="M17.27,47.442a3.6,3.6,0,1,1,3.592-3.6,3.6,3.6,0,0,1-3.592,3.6Zm0-6.337a2.741,2.741,0,1,0,2.737,2.737A2.741,2.741,0,0,0,17.27,41.105Z" transform="translate(-1.617 -5.466)" fill="#323c6b"/><path d="M62.711,62.767a.428.428,0,0,1-.3-.734A31.464,31.464,0,0,0,67.434,55.7a.428.428,0,1,1,.733.44,32.242,32.242,0,0,1-5.158,6.5.428.428,0,0,1-.3.123Z" transform="translate(-8.656 -7.671)" fill="#323c6b"/><path d="M58.866,67a.428.428,0,0,1-.257-.77c.281-.208.56-.416.833-.633a.428.428,0,1,1,.531.67c-.281.222-.568.436-.855.65A.428.428,0,0,1,58.866,67Z" transform="translate(-8.099 -9.122)" fill="#323c6b"/><path d="M7.833,13.542A.428.428,0,0,1,7.5,12.85a32.21,32.21,0,0,1,6.585-6.356.428.428,0,1,1,.5.694,31.442,31.442,0,0,0-6.409,6.188.428.428,0,0,1-.338.164Z" transform="translate(-0.71 -0.565)" fill="#323c6b"/><path d="M18.3,5.319a.428.428,0,0,1-.216-.8c.224-.131.452-.252.684-.374l.291-.155a.428.428,0,0,1,.405.752l-.3.159c-.219.116-.438.232-.652.357a.42.42,0,0,1-.216.058Z" transform="translate(-2.226 -0.21)" fill="#323c6b"/><path d="M32,61.51A29.5,29.5,0,1,1,61.51,32,29.5,29.5,0,0,1,32,61.51ZM32,3.355A28.65,28.65,0,1,0,60.655,32,28.65,28.65,0,0,0,32,3.355Z" fill="#323c6b"/></g></svg>