<svg xmlns="http://www.w3.org/2000/svg" width="67.662" height="65.38" viewBox="0 0 67.662 65.38"><g transform="translate(-1.271 -2.513)"><path d="M30.619,46.385V32.729L17.744,24.156,4.868,32.729V46.385l12.876,8.572Z" transform="translate(-0.188 -1.131)" fill="#fcd462"/><path d="M30.624,33.1V46.756l-12.88,8.577L4.865,46.756V46.32l10.15,6.757,12.88-8.567V31.28Z" transform="translate(-0.188 -1.504)" fill="#f7be56"/><path d="M17.718,55.4a.474.474,0,0,1-.263-.08L4.579,46.752a.474.474,0,0,1-.211-.394V32.7a.474.474,0,0,1,.211-.394l12.876-8.571a.474.474,0,0,1,.526,0l12.876,8.572a.474.474,0,0,1,.211.394V46.358a.474.474,0,0,1-.211.394L17.98,55.325a.474.474,0,0,1-.263.08Zm-12.4-9.3,12.4,8.257,12.4-8.257V32.956L17.718,24.7l-12.4,8.257Z" transform="translate(-0.162 -1.105)" fill="#323c6b"/><path d="M1.745,35.5a.474.474,0,0,1-.474-.474v-4a.474.474,0,0,1,.211-.394l2.773-1.847a.474.474,0,1,1,.526.789L2.223,31.277v3.749a.474.474,0,0,1-.478.474Z" transform="translate(0 -1.369)" fill="#323c6b"/><path d="M6.465,28.438A.474.474,0,0,1,6.2,27.57l.474-.318a.474.474,0,1,1,.526.789l-.474.318A.474.474,0,0,1,6.465,28.438Z" transform="translate(-0.247 -1.289)" fill="#323c6b"/><path d="M8.537,58.839a.474.474,0,0,1-.474-.474V50.133a.474.474,0,0,1,.948,0v8.232A.474.474,0,0,1,8.537,58.839Z" transform="translate(-0.355 -2.465)" fill="#323c6b"/><path d="M28.252,58.839a.474.474,0,0,1-.474-.474V50.133a.474.474,0,0,1,.948,0v8.232A.474.474,0,0,1,28.252,58.839Z" transform="translate(-1.386 -2.465)" fill="#323c6b"/><path d="M18.395,65.086a.474.474,0,0,1-.474-.474V56.63a.474.474,0,1,1,.948,0v7.983A.474.474,0,0,1,18.395,65.086Z" transform="translate(-0.87 -2.804)" fill="#323c6b"/><path d="M21.068,67.879a2.8,2.8,0,1,1-2.8-2.8,2.8,2.8,0,0,1,2.8,2.8Z" transform="translate(-0.742 -3.271)" fill="#fcd462"/><path d="M18.242,71.138a3.279,3.279,0,1,1,3.273-3.286,3.279,3.279,0,0,1-3.273,3.286Zm0-5.611a2.331,2.331,0,1,0,2.326,2.326A2.331,2.331,0,0,0,18.242,65.527Z" transform="translate(-0.715 -3.245)" fill="#323c6b"/><path d="M30.927,61.651a2.806,2.806,0,1,1-2.8-2.8,2.806,2.806,0,0,1,2.8,2.8Z" transform="translate(-1.257 -2.945)" fill="#fcd462"/><path d="M28.1,64.9a3.273,3.273,0,1,1,3.273-3.273A3.273,3.273,0,0,1,28.1,64.9Zm0-5.6a2.326,2.326,0,1,0,2.326,2.326A2.326,2.326,0,0,0,28.1,59.3Z" transform="translate(-1.232 -2.919)" fill="#323c6b"/><path d="M11.208,61.651a2.8,2.8,0,1,1-2.8-2.8A2.8,2.8,0,0,1,11.208,61.651Z" transform="translate(-0.227 -2.945)" fill="#fcd462"/><path d="M8.382,64.9a3.273,3.273,0,1,1,3.273-3.273A3.273,3.273,0,0,1,8.382,64.9Zm0-5.6a2.326,2.326,0,1,0,2.326,2.326A2.326,2.326,0,0,0,8.382,59.3Z" transform="translate(-0.201 -2.919)" fill="#323c6b"/><path d="M20.949,18.736a2.674,2.674,0,1,1-2.674-2.674A2.674,2.674,0,0,1,20.949,18.736Z" transform="translate(-0.749 -0.708)" fill="#fcd462"/><path d="M18.249,21.853A3.147,3.147,0,1,1,21.4,18.705a3.147,3.147,0,0,1-3.147,3.147Zm0-5.348a2.2,2.2,0,1,0,2.2,2.2,2.2,2.2,0,0,0-2.2-2.2Z" transform="translate(-0.723 -0.682)" fill="#323c6b"/><path d="M18.2,15.828a.474.474,0,0,1-.474-.474V10a.474.474,0,0,1,.474-.474A3.033,3.033,0,1,0,15.166,6.49a.474.474,0,0,1-.948,0,3.98,3.98,0,1,1,4.459,3.956v4.912A.474.474,0,0,1,18.2,15.828Z" transform="translate(-0.677)" fill="#323c6b"/><path d="M18.395,24.475A.474.474,0,0,1,17.921,24V21.674a.474.474,0,0,1,.948,0V24a.474.474,0,0,1-.474.478Z" transform="translate(-0.87 -0.977)" fill="#323c6b"/><path d="M67.744,46.385V32.729L54.869,24.156,41.993,32.729V46.385l12.876,8.572Z" transform="translate(-2.129 -1.131)" fill="#fcd462"/><path d="M67.749,33.1V46.756L54.87,55.333,41.99,46.756V46.32l10.15,6.757L65.02,44.51V31.28Z" transform="translate(-2.129 -1.504)" fill="#f7be56"/><path d="M62.95,43.761V36.053l-7.8-5.194-7.8,5.194v7.708l7.8,5.194Z" transform="translate(-2.409 -1.482)" fill="#eeefee"/><path d="M62.949,36.257v7.7l-7.8,5.194-7.8-5.194V43.8l5.544,3.7L60.7,42.3V34.76Z" transform="translate(-2.409 -1.686)" fill="#e1e6e9"/><path d="M45.7,58.839a.474.474,0,0,1-.474-.474V50.133a.474.474,0,0,1,.948,0v8.232A.474.474,0,0,1,45.7,58.839Z" transform="translate(-2.298 -2.465)" fill="#323c6b"/><path d="M65.411,58.839a.474.474,0,0,1-.474-.474V50.133a.474.474,0,1,1,.948,0v8.232A.474.474,0,0,1,65.411,58.839Z" transform="translate(-3.328 -2.465)" fill="#323c6b"/><path d="M55.553,65.086a.474.474,0,0,1-.474-.474V56.63a.474.474,0,1,1,.948,0v7.983A.474.474,0,0,1,55.553,65.086Z" transform="translate(-2.813 -2.804)" fill="#323c6b"/><path d="M58.226,67.879a2.8,2.8,0,1,1-2.8-2.8,2.8,2.8,0,0,1,2.8,2.8Z" transform="translate(-2.685 -3.271)" fill="#fcd462"/><path d="M55.4,71.138a3.279,3.279,0,1,1,3.273-3.286A3.279,3.279,0,0,1,55.4,71.138Zm0-5.611a2.331,2.331,0,1,0,2.326,2.326A2.331,2.331,0,0,0,55.4,65.527Z" transform="translate(-2.658 -3.245)" fill="#323c6b"/><path d="M68.09,61.651a2.806,2.806,0,1,1-2.8-2.8,2.806,2.806,0,0,1,2.8,2.8Z" transform="translate(-3.2 -2.945)" fill="#fcd462"/><path d="M65.261,64.9a3.273,3.273,0,1,1,3.278-3.273A3.273,3.273,0,0,1,65.261,64.9Zm0-5.6a2.326,2.326,0,1,0,2.33,2.326A2.326,2.326,0,0,0,65.261,59.3Z" transform="translate(-3.174 -2.919)" fill="#323c6b"/><path d="M48.366,61.651a2.8,2.8,0,1,1-2.8-2.8,2.8,2.8,0,0,1,2.8,2.8Z" transform="translate(-2.169 -2.945)" fill="#fcd462"/><path d="M45.541,64.9a3.273,3.273,0,1,1,3.273-3.273A3.273,3.273,0,0,1,45.541,64.9Zm0-5.6a2.326,2.326,0,1,0,2.326,2.326A2.326,2.326,0,0,0,45.541,59.3Z" transform="translate(-2.143 -2.919)" fill="#323c6b"/><path d="M58.105,18.736a2.674,2.674,0,1,1-2.674-2.674,2.674,2.674,0,0,1,2.674,2.674Z" transform="translate(-2.692 -0.708)" fill="#fcd462"/><g transform="translate(39.39 2.513)"><path d="M55.407,21.853a3.147,3.147,0,1,1,3.145-3.144,3.147,3.147,0,0,1-3.145,3.144Zm0-5.348a2.2,2.2,0,1,0,2.2,2.2,2.2,2.2,0,0,0-2.2-2.2Z" transform="translate(-42.056 -3.195)" fill="#323c6b"/><path d="M55.361,15.828a.474.474,0,0,1-.474-.474V10a.474.474,0,0,1,.474-.474A3.033,3.033,0,1,0,52.324,6.49a.474.474,0,1,1-.948,0,3.98,3.98,0,1,1,4.459,3.956v4.912A.474.474,0,0,1,55.361,15.828Z" transform="translate(-42.01 -2.513)" fill="#323c6b"/><path d="M55.553,24.475A.474.474,0,0,1,55.079,24V21.674a.474.474,0,0,1,.948,0V24a.474.474,0,0,1-.474.478Z" transform="translate(-42.203 -3.49)" fill="#323c6b"/><path d="M72.139,42.612a.474.474,0,0,1-.474-.474v-.789a.474.474,0,0,1,.948,0v.789A.474.474,0,0,1,72.139,42.612Z" transform="translate(-43.07 -4.519)" fill="#323c6b"/><path d="M69.674,51.178a.474.474,0,0,1-.275-.861L71.533,48.8V44.318a.474.474,0,0,1,.948,0v4.729a.474.474,0,0,1-.2.387l-2.333,1.659A.474.474,0,0,1,69.674,51.178Z" transform="translate(-42.941 -4.674)" fill="#323c6b"/><path d="M54.843,55.4a.474.474,0,0,1-.263-.08L41.7,46.752a.474.474,0,0,1-.211-.394V32.7a.474.474,0,0,1,.211-.394l12.874-8.571a.474.474,0,0,1,.526,0L67.98,32.308a.474.474,0,0,1,.211.394V46.358a.474.474,0,0,1-.211.394L55.105,55.325a.474.474,0,0,1-.263.08Zm-12.4-9.3,12.4,8.257,12.4-8.257V32.956L54.843,24.7l-12.4,8.257Z" transform="translate(-41.493 -3.619)" fill="#323c6b"/><path d="M55.123,49.4a.474.474,0,0,1-.263-.08l-7.8-5.194a.474.474,0,0,1-.211-.394V36.027a.474.474,0,0,1,.211-.394l7.8-5.2a.474.474,0,0,1,.526,0l7.8,5.194a.474.474,0,0,1,.211.394v7.708a.474.474,0,0,1-.211.394l-7.8,5.2A.474.474,0,0,1,55.123,49.4Zm-7.328-5.922,7.328,4.879,7.328-4.879v-7.2L55.123,31.4l-7.328,4.879Z" transform="translate(-41.773 -3.969)" fill="#323c6b"/></g><path d="M25.825,43.761V36.053l-7.8-5.194-7.8,5.194v7.708l7.8,5.194Z" transform="translate(-0.468 -1.482)" fill="#eeefee"/><path d="M25.824,36.257v7.7l-7.8,5.194-7.8-5.194V43.8l5.544,3.7L23.578,42.3V34.76Z" transform="translate(-0.468 -1.686)" fill="#e1e6e9"/><path d="M18,49.4a.474.474,0,0,1-.263-.08l-7.8-5.194a.474.474,0,0,1-.211-.394V36.027a.474.474,0,0,1,.211-.394l7.8-5.194a.474.474,0,0,1,.526,0l7.8,5.194a.474.474,0,0,1,.211.394v7.708a.474.474,0,0,1-.211.394l-7.8,5.194A.474.474,0,0,1,18,49.4ZM10.67,43.481,18,48.36l7.328-4.879v-7.2L18,31.4,10.67,36.278Z" transform="translate(-0.442 -1.456)" fill="#323c6b"/></g></svg>