<svg xmlns="http://www.w3.org/2000/svg" width="60.004" height="59.712" viewBox="0 0 60.004 59.712"><g transform="translate(-5.171 -2.499)"><path d="M51.9,52.667h6.354a3.826,3.826,0,0,0,3.821-3.83V29.819A3.823,3.823,0,0,0,58.252,26H9.493a3.823,3.823,0,0,0-3.821,3.821V48.837a3.826,3.826,0,0,0,3.821,3.83h6.354" transform="translate(-0.05 -2.346)" fill="#9297ab"/><path d="M62.091,29.817V48.837A3.808,3.808,0,0,1,59.354,52.5a3.472,3.472,0,0,0,.144-1.017V32.463a3.819,3.819,0,0,0-3.817-3.817H6.919a3.625,3.625,0,0,0-1.089.162A3.8,3.8,0,0,1,9.512,26H58.265A3.82,3.82,0,0,1,62.091,29.817Z" transform="translate(-0.066 -2.346)" fill="#84879c"/><path d="M13.972,19.02H19.83V25.3H13.972Z" transform="translate(-0.879 -1.649)" fill="#9297ab"/><path d="M19.78,25.7H13.922a.45.45,0,0,1-.45-.45V18.97a.45.45,0,0,1,.45-.45H19.78a.45.45,0,0,1,.45.45v6.283A.45.45,0,0,1,19.78,25.7Zm-5.408-.9H19.33V19.42H14.372Z" transform="translate(-0.829 -1.599)" fill="#323c6b"/><path d="M53.52,19.02h5.858V25.3H53.52Z" transform="translate(-4.826 -1.649)" fill="#9297ab"/><path d="M59.328,25.7H53.47a.45.45,0,0,1-.45-.45V18.97a.45.45,0,0,1,.45-.45h5.858a.45.45,0,0,1,.45.45v6.283A.45.45,0,0,1,59.328,25.7Zm-5.408-.9h4.958V19.42H53.92Z" transform="translate(-4.777 -1.599)" fill="#323c6b"/><path d="M42.561,3H20.48V23.7H50.222V10.66Z" transform="translate(-1.528 -0.05)" fill="#eeefee"/><path d="M13.555,40.88h42.21v5.453H13.555Z" transform="translate(-0.837 -3.831)" fill="#eeefee"/><g transform="translate(12.268 3.85)"><path d="M55.714,46.733H13.505a.45.45,0,0,1-.45-.45V40.83a.45.45,0,0,1,.45-.45H55.714a.45.45,0,0,1,.45.45v5.453A.45.45,0,0,1,55.714,46.733Zm-41.76-.9h41.31V41.28H13.955Z" transform="translate(-13.055 -7.632)" fill="#323c6b"/><path d="M64.407,58.418a.45.45,0,0,1-.023-.9,6.045,6.045,0,0,0,5.635-4.942.45.45,0,0,1,.884.167,6.942,6.942,0,0,1-6.472,5.671Z" transform="translate(-18.135 -8.814)" fill="#323c6b"/><path d="M71.279,51.037a.45.45,0,0,1-.45-.45V49.95a.45.45,0,0,1,.9,0v.637A.45.45,0,0,1,71.279,51.037Z" transform="translate(-18.822 -8.542)" fill="#323c6b"/><path d="M17.43,12.977a.45.45,0,0,1-.45-.45V7.2a.45.45,0,0,1,.9,0v5.326A.45.45,0,0,1,17.43,12.977Z" transform="translate(-13.447 -4.275)" fill="#323c6b"/><path d="M17.43,5.388a.45.45,0,0,1-.45-.45V4.45a.45.45,0,0,1,.9,0v.488A.45.45,0,0,1,17.43,5.388Z" transform="translate(-13.447 -4)" fill="#323c6b"/></g><path d="M53.027,44.271v21.66H16.975V44.271" transform="translate(-1.178 -4.17)" fill="#eeefee"/><path d="M50.135,11.125l.347.347V24.515h2.7V11.472l-.347-.347Z" transform="translate(-4.489 -0.861)" fill="#e1e6e9"/><path d="M54.02,44.27h2.7V65.928h-2.7Z" transform="translate(-4.876 -4.17)" fill="#e1e6e9"/><path d="M48.269,52.171H22.808a.45.45,0,1,1,0-.9H48.269a.45.45,0,0,1,0,.9Z" transform="translate(-1.716 -4.869)" fill="#323c6b"/><path d="M48.269,61.609H22.808a.45.45,0,1,1,0-.9H48.269a.45.45,0,0,1,0,.9Z" transform="translate(-1.716 -5.811)" fill="#323c6b"/><path d="M45.01,10.66h7.66L45.01,3Z" transform="translate(-3.977 -0.05)" fill="#d5d6db"/><path d="M52.621,11.061H44.96a.45.45,0,0,1-.45-.45V2.95a.45.45,0,0,1,.769-.319l7.66,7.66a.45.45,0,0,1-.319.769Zm-7.21-.9h6.121L45.41,4.039Z" transform="translate(-3.927 0)" fill="#323c6b"/><circle cx="1.563" cy="1.563" r="1.563" transform="translate(55.04 27.252)" fill="#fe7058"/><path d="M62.083,33.523a2.013,2.013,0,1,1,2.012-2.012A2.013,2.013,0,0,1,62.083,33.523Zm0-3.125a1.113,1.113,0,1,0,1.112,1.112A1.113,1.113,0,0,0,62.083,30.4Z" transform="translate(-5.48 -2.695)" fill="#323c6b"/><circle cx="1.563" cy="1.563" r="1.563" transform="translate(48.694 27.252)" fill="#27ccbc"/><path d="M55.033,33.523a2.013,2.013,0,1,1,2.013-2.013,2.013,2.013,0,0,1-2.013,2.013Zm0-3.125a1.113,1.113,0,1,0,1.113,1.112A1.113,1.113,0,0,0,55.033,30.4Z" transform="translate(-4.777 -2.695)" fill="#323c6b"/><path d="M58.2,53.068H51.848a.45.45,0,0,1,0-.9H58.2a3.38,3.38,0,0,0,3.372-3.38V29.77A3.376,3.376,0,0,0,58.2,26.4H9.443a3.376,3.376,0,0,0-3.372,3.371V48.787a3.38,3.38,0,0,0,3.372,3.38H15.8a.45.45,0,0,1,0,.9H9.443a4.281,4.281,0,0,1-4.272-4.28V29.77A4.277,4.277,0,0,1,9.443,25.5H58.2a4.277,4.277,0,0,1,4.272,4.271V48.787A4.281,4.281,0,0,1,58.2,53.068Z" transform="translate(0 -2.296)" fill="#323c6b"/><path d="M50.172,24.1H20.43a.45.45,0,0,1-.45-.45V2.95a.45.45,0,0,1,.45-.45H42.511a.45.45,0,0,1,.319.131l7.66,7.66a.45.45,0,0,1,.131.319V23.654A.45.45,0,0,1,50.172,24.1ZM20.88,23.2H49.722V10.8l-7.4-7.4H20.88Z" transform="translate(-1.478 0)" fill="#323c6b"/><path d="M52.976,66.331H16.926a.45.45,0,0,1-.45-.45V44.221a.45.45,0,0,1,.9,0v21.21h35.15V44.221a.45.45,0,0,1,.9,0v21.66A.45.45,0,0,1,52.976,66.331Z" transform="translate(-1.129 -4.12)" fill="#323c6b"/><path d="M27.683,38.522l-6.364.01a.54.54,0,0,1,0-1.08l6.364-.01a.54.54,0,0,1,0,1.08Z" transform="translate(-1.558 -3.488)" fill="#fff"/><path d="M30.894,38.558h-.209a.54.54,0,1,1,0-1.08h.209a.54.54,0,0,1,0,1.08Z" transform="translate(-2.493 -3.492)" fill="#fff"/></g></svg>