<svg xmlns="http://www.w3.org/2000/svg" width="73.631" height="58.338" viewBox="0 0 73.631 58.338"><g transform="translate(0.631 -9.781)"><path d="M14.548,31.577a11.442,11.442,0,0,0-7.36,3.713,8.632,8.632,0,0,0-1.526,2.578A5.8,5.8,0,0,1,.728,41.237a.89.89,0,0,0-.834,1.087A.88.88,0,0,0,.674,43c4.4.322,6.794-1.6,7.588-4.013a4.025,4.025,0,0,1,2.785-2.434" fill="#b98c6c"/><path d="M1.574,43.531q-.458,0-.937-.035A1.388,1.388,0,0,1-.592,42.442a1.359,1.359,0,0,1,.225-1.127A1.43,1.43,0,0,1,.7,40.738a5.31,5.31,0,0,0,4.5-3.071,9.185,9.185,0,0,1,1.606-2.7A12.044,12.044,0,0,1,14.5,31.08a.5.5,0,0,1,.088,1,11,11,0,0,0-7.025,3.542A8.16,8.16,0,0,0,6.12,38.07,6.321,6.321,0,0,1,.761,41.736a.432.432,0,0,0-.323.17.352.352,0,0,0-.059.3A.379.379,0,0,0,.71,42.5c3.644.263,6.22-1.072,7.076-3.671a4.51,4.51,0,0,1,3.129-2.76.5.5,0,0,1,.263.965,3.55,3.55,0,0,0-2.443,2.112c-.918,2.784-3.562,4.385-7.161,4.385Z" fill="#323c6b"/><path d="M30.321,47.029c-1.335,2.466-4,7-6.5,8.973-2.633,2.073-3.882,2.073-3.882,2.073l.874,5.957a3.017,3.017,0,0,1,2.785.906,1.075,1.075,0,0,1,.245.691v.022a1.078,1.078,0,0,1-1.078,1.078h-3.7a1.078,1.078,0,0,1-1.04-.792l-2.4-8.732c1.735-13.861,6.009-19.321,14.7-10.176Z" fill="#b98c6c"/><path d="M22.763,67.23h-3.7a1.581,1.581,0,0,1-1.521-1.16l-2.4-8.731a.5.5,0,0,1-.014-.195c1.123-8.969,3.235-13.845,6.459-14.9,2.5-.822,5.475.632,9.1,4.445a.5.5,0,0,1,.077.583c-1.376,2.542-4.068,7.109-6.632,9.128A10.879,10.879,0,0,1,20.5,58.478l.734,5.005a3.339,3.339,0,0,1,2.743,1.133,1.6,1.6,0,0,1-1.216,2.614Zm-6.63-10.061L18.509,65.8a.58.58,0,0,0,.558.425h3.7a.579.579,0,0,0,.578-.579.592.592,0,0,0-.128-.392,2.492,2.492,0,0,0-2.3-.739.5.5,0,0,1-.6-.416l-.874-5.957a.5.5,0,0,1,.5-.573s1.17-.074,3.573-1.966c2.322-1.828,4.814-5.978,6.2-8.5-3.17-3.264-5.8-4.586-7.808-3.921-2.773.918-4.713,5.618-5.77,13.987Z" fill="#323c6b"/><path d="M72.5,19.4c-.028,1.656-2.169,5.217-8.859,4.49a34.733,34.733,0,0,0-2.521,3.69c-1.914,3.248-3.4,6.344-3.555,10.116a11.483,11.483,0,0,1-3.027,7.6l.92,17.391s2.441.011,3.486,1.289a1.007,1.007,0,0,1-.8,1.628h-4.6a1,1,0,0,1-1-.9c-.256-2.558-1.189-9.919-3.738-13.875L47.43,62.556s2.574-.012,3.309,1.688a1,1,0,0,1-.945,1.358H45.231a1.008,1.008,0,0,1-1.008-1.045c.119-3.113.246-12.346-2.176-16.217-1.6-.2-4.592-.626-8.364-1.334a7.151,7.151,0,0,0-1.776-.083c-.847.083-2.622.184-6.257.248,0,0-4.656,6.4-8.926,9.321-3.2,2.181-4.444,2.181-4.444,2.181l-.745,6.266a3.678,3.678,0,0,1,2.849.845,1.059,1.059,0,0,1,.3.756,1.078,1.078,0,0,1-1.126,1.077l-4.045-.094a1.078,1.078,0,0,1-1.03-1.044l-.255-8.3a2.008,2.008,0,0,1,.7-1.518,10.252,10.252,0,0,0,3.313-9.211c-.709-3.984-3.681-9.551.966-14.576,4.8-5.208,9.745-4.518,20.934-3.009,0,0,10.6,1.739,12.763-5.052S49.16,9.849,56.945,10.3a7.234,7.234,0,0,1,6.294,5,1.78,1.78,0,0,0,1.2,1.1l7.27,1.966A1.064,1.064,0,0,1,72.5,19.4Z" fill="#b98c6c"/><path d="M45.176,27.577C43,34.343,32.421,32.609,32.421,32.609c-11.19-1.509-16.129-2.2-20.927,3.008-.075.075-.141.159-.206.234a9.4,9.4,0,0,1,1.921-2.98c4.808-5.211,9.747-4.517,20.937-3.008,0,0,7.31,1.2,11.03-2.286Z" fill="#9b715b"/><path d="M50.556,65.251c-.066-.506-.15-1.068-.253-1.659a2.18,2.18,0,0,1,.441.656.934.934,0,0,1-.188,1Z" fill="#9b715b"/><path d="M72.492,19.4a4.136,4.136,0,0,1-1.781,3.486,4.432,4.432,0,0,0,.066-.75,1.064,1.064,0,0,0-.787-1.04l-7.27-1.965a1.8,1.8,0,0,1-1.2-1.1,7.235,7.235,0,0,0-6.3-5,6.467,6.467,0,0,0-5.48,1.959c1.275-2.924,3.243-4.92,7.207-4.7a7.228,7.228,0,0,1,6.288,5,1.764,1.764,0,0,0,1.2,1.087l7.27,1.975a1.048,1.048,0,0,1,.787,1.048Z" fill="#9b715b"/><path d="M50.556,65.251c-.066-.506-.15-1.068-.253-1.659a2.18,2.18,0,0,1,.441.656.934.934,0,0,1-.188,1Z" fill="#9b715b"/><path d="M35.1,34.615H35.05c-.629-.056-1.006-.118-1.006-.118l-.1-.013c-3.264-.441-6.083-.821-8.445-.984a.609.609,0,0,1-.566-.65.6.6,0,0,1,.65-.566c2.4.166,5.238.549,8.524.992l.115.016c.028,0,.37.059.934.109a.609.609,0,0,1-.053,1.216Z" fill="#fff"/><path d="M22.6,33.436a.609.609,0,1,1-.03-1.218c.2-.01.415-.018.627-.022a.594.594,0,0,1,.623.6.609.609,0,0,1-.6.623q-.3.007-.593.022Z" fill="#fff"/><path d="M48.8,51.324a.5.5,0,0,1-.42-.229,7.548,7.548,0,0,0-.982-1.234,9.727,9.727,0,0,1-1.849-2.409,8.172,8.172,0,0,1-1.085-3.4c0-1.79.347-5.268.361-5.415a.5.5,0,1,1,1,.1c0,.036-.356,3.575-.356,5.315A7.407,7.407,0,0,0,46.44,47a8.573,8.573,0,0,0,1.666,2.156,8.546,8.546,0,0,1,1.115,1.4.5.5,0,0,1-.419.771Z" fill="#323c6b"/><path d="M54.907,24.065a1.653,1.653,0,0,1-.808-.211c-2.532-1.413-3.872-2.645-3.982-3.663-.193-1.777,3.222-5.6,3.908-6.348a.5.5,0,1,1,.737.676c-1.58,1.723-3.757,4.588-3.651,5.565.054.493.995,1.513,3.476,2.9a.657.657,0,0,0,.587.028.634.634,0,0,0,.368-.428,18.372,18.372,0,0,0,.353-6.217.5.5,0,1,1,1-.092,19.347,19.347,0,0,1-.379,6.553,1.626,1.626,0,0,1-.941,1.1,1.672,1.672,0,0,1-.668.137Z" fill="#323c6b"/><circle cx="0.963" cy="0.963" r="0.963" transform="translate(58.564 14.52)" fill="#323c6b"/><path d="M42.146,48.84h-.107a.5.5,0,0,1-.492-.508.508.508,0,0,1,.508-.492A15.581,15.581,0,0,0,45.76,47.4a.5.5,0,1,1,.259.966,16.351,16.351,0,0,1-3.873.471Z" fill="#323c6b"/><path d="M13.611,68.119h-.073l-4.038-.1A1.59,1.59,0,0,1,7.985,66.5l-.254-8.3a2.53,2.53,0,0,1,.87-1.91,9.836,9.836,0,0,0,3.149-8.748c-.136-.765-.361-1.6-.6-2.485-.992-3.69-2.227-8.282,1.69-12.517,4.96-5.379,10.059-4.691,21.234-3.184l.134.018c.114.02,10.214,1.59,12.219-4.708.421-1.323.768-2.718,1.1-4.067C48.9,15.1,50.306,9.408,56.974,9.8c4.354.25,6.159,3.8,6.733,5.318a1.28,1.28,0,0,0,.857.789l7.271,1.967A1.564,1.564,0,0,1,73,19.406a4.608,4.608,0,0,1-1.7,3.176c-1.188,1.049-3.432,2.2-7.442,1.83a34.688,34.688,0,0,0-2.316,3.42c-1.985,3.369-3.338,6.34-3.485,9.881a12.074,12.074,0,0,1-3.016,7.767l.885,16.73a5.139,5.139,0,0,1,3.4,1.446,1.47,1.47,0,0,1,.187,1.573,1.507,1.507,0,0,1-1.371.871h-4.6a1.5,1.5,0,0,1-1.5-1.354c-.2-1.983-.957-8.231-2.924-12.324l-1.13,9.668a3.846,3.846,0,0,1,3.21,1.953,1.44,1.44,0,0,1-.126,1.364,1.527,1.527,0,0,1-1.278.692H45.231a1.507,1.507,0,0,1-1.508-1.564c.1-2.733.262-11.828-1.98-15.733-1.525-.2-4.427-.609-8.152-1.309a6.573,6.573,0,0,0-1.646-.075c-.766.075-2.443.178-6.04.245C25.062,48.8,20.921,54.227,17,56.9a13.955,13.955,0,0,1-4.274,2.2L12.1,64.416a3.869,3.869,0,0,1,2.635,1.013,1.581,1.581,0,0,1-1.124,2.69Zm9.525-38.857c-4.1,0-6.828.987-9.559,3.949-3.543,3.83-2.436,7.947-1.459,11.579.244.907.474,1.763.618,2.571A10.706,10.706,0,0,1,9.26,57.034a1.5,1.5,0,0,0-.529,1.142l.254,8.288a.581.581,0,0,0,.552.56l4.035.093a.578.578,0,0,0,.614-.577.561.561,0,0,0-.154-.4,3.166,3.166,0,0,0-2.425-.706.51.51,0,0,1-.422-.136.5.5,0,0,1-.148-.417l.746-6.267a.5.5,0,0,1,.5-.441s1.206-.08,4.163-2.094c4.149-2.835,8.756-9.139,8.8-9.2a.5.5,0,0,1,.4-.206c3.735-.066,5.442-.17,6.217-.246a7.623,7.623,0,0,1,1.911.087c3.913.735,6.9,1.149,8.341,1.331a.5.5,0,0,1,.361.231c2.451,3.917,2.391,12.845,2.251,16.5a.5.5,0,0,0,.141.37.507.507,0,0,0,.368.156H49.8a.529.529,0,0,0,.442-.241.433.433,0,0,0,.044-.418c-.592-1.371-2.821-1.386-2.848-1.386a.5.5,0,0,1-.5-.558L48.3,50.766a.5.5,0,0,1,.917-.213c2.57,3.987,3.524,11.186,3.815,14.1a.5.5,0,0,0,.5.453h4.6a.514.514,0,0,0,.467-.3.47.47,0,0,0-.058-.512c-.881-1.078-3.08-1.1-3.1-1.1a.5.5,0,0,1-.5-.474l-.92-17.391a.5.5,0,0,1,.139-.373,11.035,11.035,0,0,0,2.888-7.274c.155-3.75,1.561-6.849,3.624-10.35a35.447,35.447,0,0,1,2.559-3.745.494.494,0,0,1,.447-.188c3.817.416,5.886-.618,6.951-1.557A3.648,3.648,0,0,0,72,19.389a.565.565,0,0,0-.424-.548L64.3,16.874a2.282,2.282,0,0,1-1.533-1.4A6.68,6.68,0,0,0,56.916,10.8c-5.842-.342-7.031,4.468-8.413,10.033-.339,1.365-.689,2.776-1.121,4.13-2.267,7.121-12.869,5.469-13.32,5.393l-.12-.016a88.492,88.492,0,0,0-10.806-1.078Z" fill="#323c6b"/></g></svg>