<svg xmlns="http://www.w3.org/2000/svg" width="60.074" height="48.209" viewBox="0 0 60.074 48.209"><g transform="translate(0 -12.668)"><path d="M56.318,23.6H43.323l-1.8-6.776a4.248,4.248,0,0,0-4.105-3.158H23.865a4.248,4.248,0,0,0-4.105,3.158l-1.8,6.776h-13A3.893,3.893,0,0,0,1.073,27.5v29.55a3.893,3.893,0,0,0,3.893,3.893H56.318a3.893,3.893,0,0,0,3.893-3.893V27.5A3.893,3.893,0,0,0,56.318,23.6Z" transform="translate(-0.569 -0.531)" fill="#b0b3c1"/><path d="M60.179,38.712V68.264a3.9,3.9,0,0,1-3.89,3.9H4.932a3.891,3.891,0,0,1-3.856-3.387H52.189a3.891,3.891,0,0,0,3.89-3.889V35.332a4.071,4.071,0,0,0-.035-.51h.245a3.9,3.9,0,0,1,3.89,3.89Z" transform="translate(-0.571 -11.75)" fill="#9297ab"/><path d="M55.715,60.877H4.362A4.367,4.367,0,0,1,0,56.515V26.965A4.367,4.367,0,0,1,4.362,22.6H17L18.7,16.176a4.723,4.723,0,0,1,4.56-3.508H36.818a4.722,4.722,0,0,1,4.555,3.508L43.079,22.6H55.711a4.367,4.367,0,0,1,4.362,4.362v29.55A4.367,4.367,0,0,1,55.715,60.877ZM4.362,23.542A3.428,3.428,0,0,0,.939,26.965v29.55a3.428,3.428,0,0,0,3.423,3.423H55.715a3.428,3.428,0,0,0,3.423-3.423V26.965a3.428,3.428,0,0,0-3.423-3.423h-13a.47.47,0,0,1-.454-.349l-1.8-6.776a3.781,3.781,0,0,0-3.649-2.809H23.261a3.783,3.783,0,0,0-3.652,2.809l-1.8,6.777a.47.47,0,0,1-.454.349Z" fill="#2f3a5a"/><circle cx="13.432" cy="13.432" r="13.432" transform="translate(16.606 27.674)" fill="#d9e2e9"/><path d="M48.264,71.429a13.9,13.9,0,1,1,13.9-13.9A13.9,13.9,0,0,1,48.264,71.429Zm0-26.865A12.961,12.961,0,1,0,61.225,57.526,12.961,12.961,0,0,0,48.264,44.564Z" transform="translate(-18.226 -16.421)" fill="#2f3a5a"/><circle cx="9.349" cy="9.349" r="9.349" transform="translate(20.689 31.758)" fill="#5fc4f8"/><path d="M64.255,64.507a9.345,9.345,0,0,1-17.371,4.8,9.345,9.345,0,0,0,13.29-12.516A9.325,9.325,0,0,1,64.255,64.507Z" transform="translate(-24.866 -23.401)" fill="#3dbce9"/><path d="M52.874,71.955a9.819,9.819,0,1,1,9.819-9.819,9.819,9.819,0,0,1-9.819,9.819Zm0-18.7a8.88,8.88,0,1,0,8.88,8.88A8.88,8.88,0,0,0,52.874,53.256Z" transform="translate(-22.836 -21.029)" fill="#2f3a5a"/><path d="M50.055,21.78H63.187v5.2H50.055Z" transform="translate(-26.548 -4.833)" fill="#f0f5f9"/><path d="M63.183,21.779v5.2H50.052v-2.04H60.878V21.779Z" transform="translate(-26.547 -4.832)" fill="#c1cdd3"/><path d="M62.657,26.919H49.525a.47.47,0,0,1-.47-.47v-5.2a.47.47,0,0,1,.47-.47H62.657a.47.47,0,0,1,.47.47v5.2A.47.47,0,0,1,62.657,26.919ZM49.995,25.98H62.187v-4.26H49.994Z" transform="translate(-26.018 -4.302)" fill="#2f3a5a"/><path d="M10.109,45.673H17.8v3.408H10.109Z" transform="translate(-5.362 -17.505)" fill="#ffa245"/><path d="M17.265,49.02H9.579a.47.47,0,0,1-.47-.47V45.143a.47.47,0,0,1,.47-.47h7.686a.47.47,0,0,1,.47.47v3.408A.47.47,0,0,1,17.265,49.02Zm-7.217-.939H16.8V45.612H10.048Z" transform="translate(-4.831 -16.975)" fill="#2f3a5a"/><path d="M13.778,29.859h6.817V32.19H13.778Z" transform="translate(-7.308 -9.118)" fill="#84879c"/><path d="M20.064,32.129H13.248a.47.47,0,0,1-.47-.47V29.329a.47.47,0,0,1,.47-.47h6.816a.47.47,0,0,1,.47.47v2.331A.47.47,0,0,1,20.064,32.129Zm-6.347-.939h5.877V29.8H13.717Z" transform="translate(-6.777 -8.587)" fill="#2f3a5a"/></g></svg>