<svg id="Layer_1" data-name="Layer 1" xmlns="http://www.w3.org/2000/svg" viewBox="0 0 313 58.46"><defs><style>.cls-1{fill:#ffc107;}</style></defs><title>rating</title><path class="cls-1" d="M159.84,248.36a3.24,3.24,0,0,0-2.79-2.23l-17.61-1.6-7-16.29a3.24,3.24,0,0,0-6,0l-7,16.29L102,246.13a3.25,3.25,0,0,0-1.84,5.68l13.31,11.67-3.93,17.28a3.24,3.24,0,0,0,4.82,3.51l15.19-9.08,15.18,9.08a3.25,3.25,0,0,0,4.83-3.51l-3.93-17.28,13.31-11.67A3.25,3.25,0,0,0,159.84,248.36Z" transform="translate(-99 -226.27)"/><path class="cls-1" d="M222.84,248.36a3.24,3.24,0,0,0-2.79-2.23l-17.61-1.6-7-16.29a3.24,3.24,0,0,0-6,0l-7,16.29L165,246.13a3.25,3.25,0,0,0-1.84,5.68l13.31,11.67-3.93,17.28a3.24,3.24,0,0,0,4.82,3.51l15.19-9.08,15.18,9.08a3.25,3.25,0,0,0,4.83-3.51l-3.93-17.28,13.31-11.67A3.25,3.25,0,0,0,222.84,248.36Z" transform="translate(-99 -226.27)"/><path class="cls-1" d="M285.84,248.36a3.24,3.24,0,0,0-2.79-2.23l-17.61-1.6-7-16.29a3.24,3.24,0,0,0-6,0l-7,16.29L228,246.13a3.25,3.25,0,0,0-1.84,5.68l13.31,11.67-3.93,17.28a3.24,3.24,0,0,0,4.82,3.51l15.19-9.08,15.18,9.08a3.25,3.25,0,0,0,4.83-3.51l-3.93-17.28,13.31-11.67A3.25,3.25,0,0,0,285.84,248.36Z" transform="translate(-99 -226.27)"/><path class="cls-1" d="M348.84,248.36a3.24,3.24,0,0,0-2.79-2.23l-17.61-1.6-7-16.29a3.24,3.24,0,0,0-6,0l-7,16.29L291,246.13a3.25,3.25,0,0,0-1.84,5.68l13.31,11.67-3.93,17.28a3.24,3.24,0,0,0,4.82,3.51l15.19-9.08,15.18,9.08a3.25,3.25,0,0,0,4.83-3.51l-3.93-17.28,13.31-11.67A3.25,3.25,0,0,0,348.84,248.36Z" transform="translate(-99 -226.27)"/><path class="cls-1" d="M411.84,248.36a3.24,3.24,0,0,0-2.79-2.23l-17.61-1.6-7-16.29a3.24,3.24,0,0,0-6,0l-7,16.29L354,246.13a3.25,3.25,0,0,0-1.84,5.68l13.31,11.67-3.93,17.28a3.24,3.24,0,0,0,4.82,3.51l15.19-9.08,15.18,9.08a3.25,3.25,0,0,0,4.83-3.51l-3.93-17.28,13.31-11.67A3.25,3.25,0,0,0,411.84,248.36Z" transform="translate(-99 -226.27)"/></svg>