<?xml version="1.0" encoding="utf-8"?>
<!-- Generator: Adobe Illustrator 22.0.1, SVG Export Plug-In . SVG Version: 6.00 Build 0)  -->
<svg version="1.1" id="Layer_1" xmlns="http://www.w3.org/2000/svg" xmlns:xlink="http://www.w3.org/1999/xlink" x="0px" y="0px"
	 viewBox="0 0 136 136" style="enable-background:new 0 0 136 136;" xml:space="preserve">
<style type="text/css">
	.st0{fill:#FFFFFF;}
</style>
<g id="surface1">
	<path class="st0" d="M94.1,80.7c16.3-23.1,10.9-55-12.2-71.3s-55-10.9-71.3,12.2c-16.3,23.1-10.9,55,12.2,71.3
		c16.5,11.6,38.2,12.5,55.6,2.3l37.7,37.5c4.1,4.3,10.8,4.5,15.1,0.4c4.3-4.1,4.5-10.8,0.4-15.1c-0.1-0.1-0.3-0.3-0.4-0.4L94.1,80.7
		z M52.3,84.2c-18.2,0-33-14.8-33-33c0-18.2,14.8-33,33-33c18.2,0,33,14.7,33,32.9C85.3,69.4,70.6,84.2,52.3,84.2
		C52.3,84.2,52.3,84.2,52.3,84.2z"/>
</g>
</svg>
