<svg xmlns="http://www.w3.org/2000/svg" width="51.842" height="54.096" viewBox="0 0 51.842 54.096"><g transform="translate(-0.557 -1.542)"><path d="M52.147,33.8V27.373l-6.812-1.062a19.1,19.1,0,0,0-2.464-5.946L46.938,14.8l-4.546-4.546-5.569,4.066a19.1,19.1,0,0,0-5.946-2.464L29.816,5.042H23.388l-1.062,6.812a19.1,19.1,0,0,0-5.946,2.464l-5.569-4.066L6.265,14.8l4.065,5.568a19.1,19.1,0,0,0-2.464,5.946l-6.81,1.062V33.8l6.812,1.062a19.1,19.1,0,0,0,2.461,5.945L6.267,46.378l4.546,4.546L16.38,46.86a19.1,19.1,0,0,0,5.946,2.464l1.062,6.812h6.428l1.062-6.812a19.1,19.1,0,0,0,5.945-2.464l5.569,4.066,4.546-4.546-4.066-5.569a19.1,19.1,0,0,0,2.464-5.946Z" transform="translate(-0.124 -0.87)" fill="#9297ab"/><path d="M38.235,11.857a28.041,28.041,0,0,1,6.181,2.765l-1.465,1.067a26.759,26.759,0,0,0-6.97-3.223L34.922,5.651H30.647l.1-.609h6.431Z" transform="translate(-7.482 -0.87)" fill="#84879c"/><path d="M55.961,50.547l4.072,5.575-4.546,4.546-.954-.7,3.246-3.246-4.072-5.567a23.223,23.223,0,0,0,2.681-6.6l2.186-.338A23.155,23.155,0,0,1,55.961,50.547Z" transform="translate(-13.217 -10.612)" fill="#84879c"/><path d="M65.24,29.095v6.431l-2.254.353V29.7l-6.815-1.059a18.994,18.994,0,0,0-2.464-5.951l4.072-5.567-3.944-3.944,1.653-1.21,4.546,4.546-4.072,5.575a18.879,18.879,0,0,1,2.464,5.943Z" transform="translate(-13.217 -2.594)" fill="#84879c"/><circle cx="11.47" cy="11.47" r="11.47" transform="translate(15.008 18.247)" fill="#fff"/><path d="M31.137,46.967A11.845,11.845,0,1,1,42.983,35.121,11.845,11.845,0,0,1,31.137,46.967Zm0-22.94A11.094,11.094,0,1,0,42.232,35.121,11.094,11.094,0,0,0,31.137,24.027Z" transform="translate(-4.659 -5.405)" fill="#323c6b"/><circle cx="11.47" cy="11.47" r="11.47" transform="translate(15.008 18.247)" fill="#fff"/><path d="M31.137,46.967A11.845,11.845,0,1,1,42.983,35.121,11.845,11.845,0,0,1,31.137,46.967Zm0-22.94A11.094,11.094,0,1,0,42.232,35.121,11.094,11.094,0,0,0,31.137,24.027Z" transform="translate(-4.659 -5.405)" fill="#323c6b"/><path d="M40.968,44.008l-4.233-6.2a6.537,6.537,0,0,0-6.687-9.789l2.5,3.657-.391,2.083L30.041,35.2l-2.076-.391-2.5-3.657a6.537,6.537,0,0,0,6.687,9.782l4.182,6.125a11.989,11.989,0,0,0,4.631-3.051Z" transform="translate(-5.968 -6.563)" fill="#e1e6e9"/><path d="M42.787,44.012a11.284,11.284,0,0,1-1.165,1.082l-4.568-6.6a6.537,6.537,0,0,0-4.733-9.812l-.451-.661a6.541,6.541,0,0,1,6.687,9.79Z" transform="translate(-7.787 -6.564)" fill="#eeefee"/><g transform="translate(0.557 1.542)"><path d="M62.12,64.184a.376.376,0,0,1-.266-.642l.423-.422a.376.376,0,1,1,.531.531l-.422.423a.376.376,0,0,1-.266.11Z" transform="translate(-15.772 -16.827)" fill="#323c6b"/><path d="M55.389,69.18a.376.376,0,0,1-.222-.075l-2.618-1.913a.376.376,0,1,1,.443-.607l2.362,1.724L58.5,65.164a.376.376,0,1,1,.531.531l-3.374,3.373A.376.376,0,0,1,55.389,69.18Z" transform="translate(-13.447 -17.335)" fill="#323c6b"/><path d="M26.762,10.025a.389.389,0,0,1-.058,0,.376.376,0,0,1-.313-.429l.089-.576a.376.376,0,1,1,.742.115l-.089.576A.376.376,0,0,1,26.762,10.025Z" transform="translate(-6.98 -3.321)" fill="#323c6b"/><path d="M27.242,5.933a.394.394,0,0,1-.065-.005.376.376,0,0,1-.306-.435l.635-3.639a.376.376,0,0,1,.37-.311h2.7a.376.376,0,0,1,0,.751H28.192l-.581,3.328a.376.376,0,0,1-.37.311Z" transform="translate(-7.099 -1.542)" fill="#323c6b"/><path d="M29.692,56.384H23.264a.376.376,0,0,1-.371-.318L21.87,49.5a19.428,19.428,0,0,1-5.6-2.318L10.909,51.1a.376.376,0,0,1-.487-.038L5.876,46.52a.376.376,0,0,1-.038-.487l3.917-5.364a19.427,19.427,0,0,1-2.319-5.6L.875,34.048a.376.376,0,0,1-.318-.371V27.249a.376.376,0,0,1,.318-.371l6.562-1.023a19.427,19.427,0,0,1,2.319-5.6L5.839,14.894a.376.376,0,0,1,.038-.487l4.546-4.546a.376.376,0,0,1,.487-.038l5.364,3.917a19.438,19.438,0,0,1,5.6-2.319l1.023-6.562a.376.376,0,0,1,.371-.318h6.428a.376.376,0,0,1,.371.318l1.023,6.562a19.423,19.423,0,0,1,5.6,2.319l5.364-3.917a.376.376,0,0,1,.487.038l4.546,4.546a.376.376,0,0,1,.038.487L43.2,20.259a19.427,19.427,0,0,1,2.319,5.6l6.562,1.023a.376.376,0,0,1,.318.371v6.428a.376.376,0,0,1-.318.371l-6.562,1.023a19.427,19.427,0,0,1-2.319,5.6l3.917,5.364a.376.376,0,0,1-.038.487l-4.546,4.546a.376.376,0,0,1-.487.038l-5.365-3.915a19.434,19.434,0,0,1-5.6,2.319l-1.023,6.561a.376.376,0,0,1-.372.318Zm-6.107-.751h5.785l1.013-6.493a.376.376,0,0,1,.288-.309A18.685,18.685,0,0,0,36.5,46.415a.376.376,0,0,1,.422.015l5.309,3.877,4.09-4.09-3.877-5.309a.376.376,0,0,1-.014-.422,18.682,18.682,0,0,0,2.41-5.829.376.376,0,0,1,.309-.288l6.5-1.013V27.571l-6.5-1.013a.376.376,0,0,1-.309-.288,18.682,18.682,0,0,0-2.413-5.831.376.376,0,0,1,.014-.422l3.877-5.309-4.09-4.09-5.309,3.877a.376.376,0,0,1-.422.014,18.681,18.681,0,0,0-5.829-2.41.376.376,0,0,1-.288-.309l-1.013-6.5H23.585l-1.012,6.495a.376.376,0,0,1-.288.308,18.7,18.7,0,0,0-5.828,2.416.376.376,0,0,1-.422-.014l-5.309-3.877-4.091,4.09,3.877,5.309a.376.376,0,0,1,.015.422,18.674,18.674,0,0,0-2.415,5.829.376.376,0,0,1-.309.288L1.309,27.571v5.785L7.8,34.368a.376.376,0,0,1,.309.288,18.674,18.674,0,0,0,2.415,5.829.376.376,0,0,1-.015.422L6.634,46.216l4.09,4.09,5.309-3.877a.376.376,0,0,1,.422-.015,18.674,18.674,0,0,0,5.828,2.415.376.376,0,0,1,.288.309Z" transform="translate(-0.557 -2.288)" fill="#323c6b"/><path d="M36.21,47.31a.376.376,0,0,1-.31-.164L31.85,41.216a6.912,6.912,0,0,1-6.832-10.378.376.376,0,0,1,.311-.185.363.363,0,0,1,.323.164l2.41,3.531,1.771.334L31.7,33.415l.334-1.777-2.416-3.531a.376.376,0,0,1,.249-.583,6.912,6.912,0,0,1,7.19,10.143l4.1,6.005a.376.376,0,0,1-.037.469,12.42,12.42,0,0,1-4.775,3.147.38.38,0,0,1-.132.023Zm-4.181-6.876a.376.376,0,0,1,.31.164l4.014,5.879a11.65,11.65,0,0,0,4.007-2.634L36.3,37.9a.376.376,0,0,1-.013-.4,6.161,6.161,0,0,0-5.7-9.295L32.74,31.34a.376.376,0,0,1,.059.282l-.391,2.083a.376.376,0,0,1-.158.241l-2.12,1.44a.376.376,0,0,1-.281.059l-2.079-.391a.376.376,0,0,1-.24-.157l-2.144-3.141a6.161,6.161,0,0,0,6.583,8.683.344.344,0,0,1,.059-.006Z" transform="translate(-6.4 -7.98)" fill="#323c6b"/></g><path d="M16.67,43.345a.489.489,0,0,1-.451-.3A14.911,14.911,0,0,1,15.935,32.3a.489.489,0,1,1,.922.325,13.937,13.937,0,0,0,.264,10.044.489.489,0,0,1-.451.676Z" transform="translate(-3.609 -7.568)" fill="#fff"/><path d="M17.833,29.912a.482.482,0,0,1-.225-.058.488.488,0,0,1-.2-.66c.194-.364.417-.734.7-1.165a.488.488,0,1,1,.816.537c-.266.406-.475.751-.655,1.089a.488.488,0,0,1-.435.258Z" transform="translate(-4.176 -6.532)" fill="#fff"/></g></svg>