<svg xmlns="http://www.w3.org/2000/svg" width="41.855" height="43.409" viewBox="0 0 41.855 43.409"><g transform="translate(-2.499 -2.345)"><path d="M11.745,11.745C18.655,4.835,29.251,3.221,36.388,3a7.617,7.617,0,0,1,7.856,7.856C44.026,18,42.413,28.593,35.5,35.5S18,44.026,10.859,44.244A7.617,7.617,0,0,1,3,36.388c.218-7.137,1.831-17.733,8.741-24.643Z" transform="translate(-0.197 -0.257)" fill="#b98c6c"/><path d="M43.831,13.287c-.024.843-.073,1.735-.14,2.663-.091,1.189-.224,2.445-.419,3.73-.055.364-.109.728-.176,1.092-.018.121-.042.249-.067.37-.085.473-.182.952-.285,1.438-1.14,5.4-3.391,11.082-7.655,15.347s-9.942,6.515-15.347,7.655c-.291.061-.576.121-.861.176-.158.036-.315.061-.467.091s-.321.061-.479.085c-1.674.291-3.3.479-4.822.594-.928.067-1.82.115-2.663.14A7.611,7.611,0,0,1,2.662,40.1a7.618,7.618,0,0,0,7.1,4.307c.382-.012.776-.03,1.183-.049a51.844,51.844,0,0,0,6.8-.776c5.781-1.043,12.047-3.3,16.663-7.916a29.567,29.567,0,0,0,7.37-14.055,48.875,48.875,0,0,0,1.1-6.478c.152-1.456.237-2.839.273-4.113a8.916,8.916,0,0,0-.061-1.28,7.6,7.6,0,0,1,.74,3.542Z" transform="translate(-0.064 -2.911)" fill="#9b715b"/><path d="M12.674,31.122a.364.364,0,0,1-.334-.507,27.982,27.982,0,0,1,3.688-6.308.364.364,0,1,1,.572.45A27.244,27.244,0,0,0,13.009,30.9a.364.364,0,0,1-.335.218Z" transform="translate(-3.86 -8.585)" fill="#fff"/><path d="M10.975,39.221a.364.364,0,0,1-.345-.479q.115-.347.237-.693a.364.364,0,0,1,.687.243q-.121.339-.232.679A.364.364,0,0,1,10.975,39.221Z" transform="translate(-3.191 -13.951)" fill="#fff"/><g transform="translate(15.273 2.345)"><path d="M25.673,39.479a.3.3,0,0,1-.215-.518l13.5-13.5a.3.3,0,1,1,.429.429l-13.5,13.5A.3.3,0,0,1,25.673,39.479Z" transform="translate(-24.27 -11.403)" fill="#323c6b"/><path d="M44.931,30a.3.3,0,0,1-.215-.089L41.81,27a.3.3,0,1,1,.429-.429l2.907,2.907a.3.3,0,0,1-.215.518Z" transform="translate(-30.703 -11.843)" fill="#323c6b"/><path d="M39.853,35.078a.3.3,0,0,1-.215-.089l-2.906-2.907a.3.3,0,1,1,.429-.429l2.907,2.9a.3.3,0,0,1-.215.518Z" transform="translate(-28.706 -13.84)" fill="#323c6b"/><path d="M34.775,40.158a.3.3,0,0,1-.215-.089l-2.907-2.9a.3.3,0,1,1,.429-.429l2.907,2.907a.3.3,0,0,1-.215.518Z" transform="translate(-26.707 -15.84)" fill="#323c6b"/><path d="M29.7,45.235a.3.3,0,0,1-.215-.089l-2.907-2.907A.3.3,0,1,1,27,41.81l2.907,2.907a.3.3,0,0,1-.215.518Z" transform="translate(-24.71 -17.836)" fill="#323c6b"/><path d="M27.8,71.913a.3.3,0,0,1-.048-.6,44.611,44.611,0,0,0,6.775-1.62.3.3,0,1,1,.189.576,45.184,45.184,0,0,1-6.868,1.643.3.3,0,0,1-.049,0Z" transform="translate(-25.108 -28.834)" fill="#323c6b"/><path d="M23.878,73.47a.3.3,0,0,1-.034-.607l.551-.065a.306.306,0,0,1,.338.264.3.3,0,0,1-.264.338c-.187.024-.372.045-.557.066Z" transform="translate(-23.557 -30.062)" fill="#323c6b"/><path d="M27.054,5.874a.3.3,0,0,1-.143-.571,27.616,27.616,0,0,1,4.584-1.976.3.3,0,1,1,.182.578A27.054,27.054,0,0,0,27.2,5.839a.3.3,0,0,1-.142.035Z" transform="translate(-24.814 -2.724)" fill="#323c6b"/><path d="M37.053,3.078a.3.3,0,0,1-.082-.6c.16-.045.32-.088.48-.129a.3.3,0,1,1,.151.588c-.155.04-.31.081-.465.125a.3.3,0,0,1-.084.011Z" transform="translate(-28.748 -2.345)" fill="#323c6b"/></g><path d="M58.78,20.254,42.713,4.19a47.859,47.859,0,0,1,6.642-.94L59.728,13.623A49.164,49.164,0,0,1,58.78,20.254Z" transform="translate(-15.821 -0.356)" fill="#eeefee"/><path d="M20.254,58.78,4.19,42.713a47.86,47.86,0,0,0-.94,6.642L13.623,59.728a49.165,49.165,0,0,0,6.632-.948Z" transform="translate(-0.295 -15.881)" fill="#e1e6e9"/><path d="M69.061,19.448c-.091,1.189-.224,2.445-.419,3.73-.055.364-.109.728-.176,1.092-.018.121-.042.249-.067.37-.085.473-.182.952-.285,1.438l-.964-.964a48.874,48.874,0,0,0,1.1-6.478Z" transform="translate(-25.435 -6.409)" fill="#e1e6e9"/><path d="M25.117,67.531c-.291.061-.576.121-.861.176-.158.036-.315.061-.467.091s-.321.061-.479.085c-1.674.291-3.3.479-4.822.594l-2.166-2.166a51.844,51.844,0,0,0,6.8-.776Z" transform="translate(-5.438 -24.86)" fill="#e1e6e9"/><path d="M10.42,44.354A7.92,7.92,0,0,1,2.5,36.182c.231-7.538,1.95-17.968,8.83-24.848s17.31-8.6,24.848-8.83a7.921,7.921,0,0,1,8.169,8.169C44.12,18.21,42.4,28.64,35.52,35.52s-17.31,8.6-24.848,8.83c-.084,0-.169,0-.252,0ZM36.434,3.106c-.078,0-.155,0-.234,0-7.428.227-17.7,1.913-24.438,8.652S3.337,28.772,3.11,36.2a7.313,7.313,0,0,0,7.543,7.543c7.428-.227,17.7-1.913,24.438-8.652s8.425-17.01,8.652-24.438a7.313,7.313,0,0,0-7.311-7.547Z" transform="translate(0 -0.061)" fill="#323c6b"/><path d="M58.583,20.359a.3.3,0,0,1-.215-.089L42.3,4.2a.3.3,0,0,1,.15-.511,48.2,48.2,0,0,1,6.685-.946.3.3,0,0,1,.237.088L59.746,13.207a.3.3,0,0,1,.088.238,49.466,49.466,0,0,1-.954,6.675.3.3,0,0,1-.3.239ZM43.126,4.171,58.4,19.446a49.385,49.385,0,0,0,.816-5.908L49.042,3.361a47.981,47.981,0,0,0-5.915.809Z" transform="translate(-15.624 -0.157)" fill="#323c6b"/><path d="M20.254,58.78,4.19,42.713a47.86,47.86,0,0,0-.94,6.642L13.623,59.728a49.165,49.165,0,0,0,6.632-.948Z" transform="translate(-0.295 -15.881)" fill="#eeefee"/><path d="M13.422,59.834a.3.3,0,0,1-.215-.089L2.834,49.373a.3.3,0,0,1-.088-.237,48.2,48.2,0,0,1,.946-6.685A.3.3,0,0,1,4.2,42.3L20.271,58.369a.3.3,0,0,1-.15.511,49.464,49.464,0,0,1-6.675.954ZM3.362,49.042,13.538,59.217a49.386,49.386,0,0,0,5.908-.816L4.171,43.126a47.981,47.981,0,0,0-.809,5.915Z" transform="translate(-0.097 -15.685)" fill="#323c6b"/></g></svg>