<svg xmlns="http://www.w3.org/2000/svg" width="35.124" height="52.027" viewBox="0 0 35.124 52.027"><g transform="translate(-13.954 -2.476)"><path d="M43.473,45.49c-4.935-5.037-6.425-12.726-6.307-21.646V21.132a1.2,1.2,0,0,0-1.195-1.195H32.152a1.2,1.2,0,0,0-1.195,1.195v2.711c.118,8.923-1.372,16.612-6.307,21.646Z" transform="translate(-2.545 -4.155)" fill="#eeefee"/><path d="M46.1,62.8H19.639V57.048A3.451,3.451,0,0,1,23.09,53.6H42.648A3.451,3.451,0,0,1,46.1,57.051Z" transform="translate(-1.353 -12.166)" fill="#eeefee"/><path d="M27.5,15a.381.381,0,0,1-.27-.113,2.367,2.367,0,0,1,.016-3.348.381.381,0,1,1,.533.541,1.6,1.6,0,0,0-.011,2.27A.381.381,0,0,1,27.5,15Z" transform="translate(-2.996 -2.126)" fill="#323c6b"/><path d="M18.775,19.626a.381.381,0,0,1-.27-.113,11.969,11.969,0,0,1,.083-16.908.381.381,0,1,1,.533.542,11.207,11.207,0,0,0-.076,15.831.381.381,0,0,1-.271.649Z" transform="translate(-0.261 0)" fill="#323c6b"/><path d="M23.257,17.526a.381.381,0,0,1-.27-.113A7.58,7.58,0,0,1,23.039,6.7a.381.381,0,0,1,.533.542,6.817,6.817,0,0,0-.047,9.631.381.381,0,0,1-.271.649Z" transform="translate(-1.629 -0.984)" fill="#323c6b"/><path d="M46.07,15a.381.381,0,0,1-.271-.649,1.6,1.6,0,0,0-.011-2.27.381.381,0,1,1,.533-.541,2.367,2.367,0,0,1,.016,3.348A.381.381,0,0,1,46.07,15Z" transform="translate(-7.543 -2.126)" fill="#323c6b"/><path d="M53.913,19.626a.381.381,0,0,1-.271-.649,11.207,11.207,0,0,0-.076-15.831A.381.381,0,1,1,54.1,2.6a11.969,11.969,0,0,1,.083,16.908.381.381,0,0,1-.27.114Z" transform="translate(-9.395)" fill="#323c6b"/><path d="M49.834,17.514a.381.381,0,0,1-.271-.649,6.817,6.817,0,0,0-.047-9.631.381.381,0,1,1,.533-.542A7.58,7.58,0,0,1,50.1,17.4.381.381,0,0,1,49.834,17.514Z" transform="translate(-8.431 -0.973)" fill="#323c6b"/><circle cx="2.544" cy="2.544" r="2.544" transform="translate(28.972 8.516)" fill="#eeefee"/><path d="M46.28,45.491H43.948c-4.93-5.037-6.424-12.726-6.3-21.649V21.136a1.193,1.193,0,0,0-1.2-1.2h2.332a1.192,1.192,0,0,1,1.189,1.2v2.705C39.856,32.765,41.342,40.454,46.28,45.491Z" transform="translate(-5.353 -4.156)" fill="#e1e6e9"/><path d="M52.556,57.052v5.753H50.232V57.052A3.449,3.449,0,0,0,46.78,53.6H49.1a3.449,3.449,0,0,1,3.452,3.452Z" transform="translate(-7.811 -12.166)" fill="#e1e6e9"/><path d="M38.962,12.945a2.547,2.547,0,0,1-2.126,2.507,2.515,2.515,0,0,0,.678-1.722,2.55,2.55,0,0,0-2.545-2.545,2.523,2.523,0,0,0-.419.038,2.541,2.541,0,0,1,4.412,1.722Z" transform="translate(-4.901 -1.886)" fill="#e1e6e9"/><path d="M28.735,38.47a.373.373,0,0,1-.094-.012.381.381,0,0,1-.275-.463,19.362,19.362,0,0,0,.6-4.776v-1a.381.381,0,0,1,.762,0v1a20.129,20.129,0,0,1-.626,4.964.381.381,0,0,1-.37.287Z" transform="translate(-3.427 -6.986)" fill="#323c6b"/><path d="M29.54,29.951a.381.381,0,0,1-.381-.381v-.73a.381.381,0,0,1,.762,0v.73A.381.381,0,0,1,29.54,29.951Z" transform="translate(-3.618 -6.183)" fill="#323c6b"/><path d="M56.7,58.959a.381.381,0,0,1-.381-.381V56.72a5.311,5.311,0,0,0-1.635-3.844.382.382,0,1,1,.533-.548A6.064,6.064,0,0,1,57.08,56.72v1.858a.381.381,0,0,1-.385.381Z" transform="translate(-9.663 -11.837)" fill="#323c6b"/><path d="M57.242,63.272a.381.381,0,0,1-.381-.381v-.572a.381.381,0,1,1,.762,0v.572A.381.381,0,0,1,57.242,63.272Z" transform="translate(-10.21 -14.15)" fill="#323c6b"/><path d="M48.816,69.162v-.748a2.735,2.735,0,0,0-2.735-2.735H17.189a2.735,2.735,0,0,0-2.735,2.735v.748Z" transform="translate(-0.119 -15.04)" fill="#84879c"/><g transform="translate(13.954 8.134)"><path d="M48.7,69.425H14.335a.381.381,0,0,1-.381-.381V68.3A3.119,3.119,0,0,1,17.07,65.18H45.962A3.119,3.119,0,0,1,49.078,68.3v.748A.381.381,0,0,1,48.7,69.425Zm-33.981-.762h33.6V68.3a2.356,2.356,0,0,0-2.354-2.354H17.07A2.356,2.356,0,0,0,14.716,68.3Z" transform="translate(-13.954 -23.055)" fill="#323c6b"/><path d="M45.979,63.067H19.52a.381.381,0,0,1-.381-.381V56.929A3.836,3.836,0,0,1,22.971,53.1H42.529a3.836,3.836,0,0,1,3.832,3.832v5.756A.381.381,0,0,1,45.979,63.067ZM19.9,62.3H45.6V56.929a3.073,3.073,0,0,0-3.069-3.067H22.971A3.073,3.073,0,0,0,19.9,56.932Z" transform="translate(-15.188 -20.181)" fill="#323c6b"/><path d="M39.03,29.069H32.781a.381.381,0,1,1,0-.762H39.03a.381.381,0,1,1,0,.762Z" transform="translate(-18.343 -14.281)" fill="#323c6b"/><path d="M39.156,36.08H32.54a.381.381,0,1,1,0-.762h6.616a.381.381,0,1,1,0,.762Z" transform="translate(-18.286 -15.949)" fill="#323c6b"/><path d="M39.886,43.092H31.147a.381.381,0,1,1,0-.762h8.739a.381.381,0,1,1,0,.762Z" transform="translate(-17.955 -17.618)" fill="#323c6b"/><path d="M43.354,45.752H24.532a.381.381,0,0,1-.272-.648c4.364-4.453,6.334-11.245,6.2-21.374V21.013a1.577,1.577,0,0,1,1.575-1.576h3.819a1.577,1.577,0,0,1,1.575,1.576v2.711c-.135,10.135,1.835,16.926,6.2,21.379a.381.381,0,0,1-.272.648ZM25.408,44.99h17.07c-4.092-4.6-5.944-11.4-5.812-21.27V21.013a.815.815,0,0,0-.813-.814H32.033a.815.815,0,0,0-.813.814v2.711C31.352,33.592,29.5,40.385,25.408,44.99Z" transform="translate(-16.381 -12.17)" fill="#323c6b"/><path d="M36.086,15.752a2.925,2.925,0,1,1,2.925-2.925A2.925,2.925,0,0,1,36.086,15.752Zm0-5.09a2.163,2.163,0,1,0,2.163,2.163,2.163,2.163,0,0,0-2.163-2.163Z" transform="translate(-18.525 -9.901)" fill="#323c6b"/></g></g></svg>