<svg xmlns="http://www.w3.org/2000/svg" width="60.005" height="55.376" viewBox="0 0 60.005 55.376"><g transform="translate(0 -10.123)"><path d="M85.269,49.6V53a2.171,2.171,0,1,0,4.343,0V49.6Z" transform="translate(-45.296 -20.971)" fill="#d9e2e9"/><path d="M86.908,55.112a2.643,2.643,0,0,1-2.64-2.64v-3.4a.469.469,0,0,1,.469-.469h4.342a.469.469,0,0,1,.469.469v3.4A2.643,2.643,0,0,1,86.908,55.112Zm-1.7-5.575v2.935a1.7,1.7,0,1,0,3.405,0V49.538Z" transform="translate(-44.764 -20.44)" fill="#2f3a5a"/><path d="M106.611,58.935v3.4a2.171,2.171,0,1,0,4.343,0v-3.4Z" transform="translate(-56.633 -25.93)" fill="#d9e2e9"/><path d="M108.251,64.445a2.643,2.643,0,0,1-2.64-2.64V58.4a.469.469,0,0,1,.469-.469h4.343a.469.469,0,0,1,.469.469v3.4A2.643,2.643,0,0,1,108.251,64.445Zm-1.7-5.573v2.933a1.7,1.7,0,1,0,3.405,0V58.873Z" transform="translate(-56.102 -25.398)" fill="#2f3a5a"/><path d="M37.81,49.6V53a2.171,2.171,0,1,1-4.343,0V49.6Z" transform="translate(-17.778 -20.971)" fill="#d9e2e9"/><path d="M35.109,55.112a2.643,2.643,0,0,1-2.64-2.64v-3.4a.469.469,0,0,1,.469-.469H37.28a.469.469,0,0,1,.469.469v3.4A2.643,2.643,0,0,1,35.109,55.112Zm-1.7-5.575v2.935a1.7,1.7,0,1,0,3.405,0V49.538Z" transform="translate(-17.248 -20.44)" fill="#2f3a5a"/><path d="M16.468,58.935v3.4a2.171,2.171,0,1,1-4.343,0v-3.4Z" transform="translate(-6.441 -25.93)" fill="#d9e2e9"/><path d="M13.765,64.445a2.643,2.643,0,0,1-2.64-2.64V58.4a.469.469,0,0,1,.469-.469h4.343a.469.469,0,0,1,.469.469v3.4A2.643,2.643,0,0,1,13.765,64.445Zm-1.7-5.573v2.933a1.7,1.7,0,1,0,3.405,0V58.873Z" transform="translate(-5.91 -25.398)" fill="#2f3a5a"/><path d="M71.99,46.642,97.778,59.167V63.74l-25-4.045Z" transform="translate(-38.242 -19.399)" fill="#81dafc"/><path d="M97.247,63.677a.485.485,0,0,1-.075-.006L72.167,59.627a.469.469,0,0,1-.393-.435l-.783-13.055a.469.469,0,0,1,.673-.45L97.452,58.213a.469.469,0,0,1,.264.422v4.573a.469.469,0,0,1-.469.469ZM72.688,58.761l24.09,3.9V58.929l-24.8-12.048Z" transform="translate(-37.711 -18.867)" fill="#2f3a5a"/><path d="M26.788,46.642,1,59.167V63.74L26,59.7Z" transform="translate(-0.531 -19.399)" fill="#81dafc"/><path d="M.469,63.678A.469.469,0,0,1,0,63.209V58.636a.469.469,0,0,1,.264-.422L26.052,45.689a.469.469,0,0,1,.673.45l-.784,13.054a.469.469,0,0,1-.393.435l-25,4.044a.486.486,0,0,1-.075.007Zm.469-4.748v3.729l24.09-3.9.713-11.879Z" transform="translate(0 -18.868)" fill="#2f3a5a"/><path d="M67.625,93.9l11.7,5.684v2.075L67.981,99.819Z" transform="translate(-35.923 -44.501)" fill="#81dafc"/><path d="M78.8,101.594a.485.485,0,0,1-.075-.006L67.377,99.752a.469.469,0,0,1-.393-.435l-.356-5.923a.469.469,0,0,1,.672-.448L79,98.631a.469.469,0,0,1,.264.422v2.075a.469.469,0,0,1-.469.469ZM67.9,98.887l10.431,1.688V99.344l-10.716-5.2Z" transform="translate(-35.394 -43.972)" fill="#2f3a5a"/><path d="M47.115,93.9l-11.7,5.684v2.075L46.76,99.819Z" transform="translate(-18.812 -44.501)" fill="#81dafc"/><path d="M34.883,101.594a.469.469,0,0,1-.469-.469V99.05a.469.469,0,0,1,.264-.422l11.7-5.682a.469.469,0,0,1,.673.45L46.7,99.319a.469.469,0,0,1-.393.435L34.959,101.59a.483.483,0,0,1-.076,0Zm.469-2.25v1.231l10.431-1.688.285-4.748Z" transform="translate(-18.281 -43.972)" fill="#2f3a5a"/><path d="M63.212,32.211c0,13.917-2.649,29.312-5.917,29.312S51.379,46.13,51.379,32.211,54.028,11.123,57.3,11.123,63.212,18.293,63.212,32.211Z" transform="translate(-27.293 -0.531)" fill="#f0f5f9"/><path d="M68.2,32.211c0,13.919-2.649,29.313-5.915,29.313-.524,0-1.031-.4-1.512-1.117,2.531-3.782,4.4-16.507,4.4-28.2s-1.867-18.614-4.4-20.536a2.457,2.457,0,0,1,1.512-.552c3.266,0,5.915,7.169,5.915,21.088Z" transform="translate(-32.285 -0.531)" fill="#d9e2e9"/><path d="M56.764,61.461c-4.111,0-6.385-17.609-6.385-29.781,0-13.3,2.448-21.557,6.385-21.557s6.385,8.26,6.385,21.557C63.15,43.852,60.876,61.461,56.764,61.461Zm0-50.4c-2.711,0-5.448,6.375-5.448,20.619,0,15.534,3,28.843,5.448,28.843s5.448-13.31,5.448-28.843C62.212,17.436,59.476,11.061,56.764,11.061Z" transform="translate(-26.762)" fill="#2f3a5a"/><ellipse cx="1.161" cy="6.698" rx="1.161" ry="6.698" transform="translate(28.841 51.633)" fill="#81dafc"/><path d="M62.153,112c-1.512,0-1.63-5.485-1.63-7.168s.118-7.167,1.63-7.167,1.63,5.485,1.63,7.167S63.665,112,62.153,112Zm0-13.215a19,19,0,0,0-.692,6.047,19,19,0,0,0,.692,6.047,19,19,0,0,0,.692-6.047,19,19,0,0,0-.692-6.048Z" transform="translate(-32.151 -46.506)" fill="#2f3a5a"/><path d="M63.7,21.07c0,.109,0,.214-.008.323a2.346,2.346,0,0,0-4.594,0c0-.109-.008-.214-.008-.323,0-2.145,1.031-3.883,2.306-3.883S63.7,18.925,63.7,21.07Z" transform="translate(-31.387 -3.753)" fill="#81dafc"/><path d="M58.559,21.33a.477.477,0,0,1-.084-.008.469.469,0,0,1-.385-.444c0-.131-.008-.234-.008-.339,0-2.44,1.219-4.352,2.775-4.352s2.775,1.912,2.775,4.352c0,.106,0,.208-.008.314a.483.483,0,0,1-.385.457.46.46,0,0,1-.516-.268,1.891,1.891,0,0,0-3.732,0,.469.469,0,0,1-.433.288Zm2.3-2.808a2.576,2.576,0,0,1,1.681.663c-.288-1.2-.942-2.063-1.681-2.063s-1.393.86-1.681,2.063a2.576,2.576,0,0,1,1.681-.663Z" transform="translate(-30.854 -3.221)" fill="#2f3a5a"/></g></svg>