<?xml version="1.0" encoding="utf-8"?>
<!-- Generator: Adobe Illustrator 22.1.0, SVG Export Plug-In . SVG Version: 6.00 Build 0)  -->
<svg version="1.1" id="Layer_1" xmlns="http://www.w3.org/2000/svg" xmlns:xlink="http://www.w3.org/1999/xlink" x="0px" y="0px"
	 viewBox="0 0 430.3 427.3" style="enable-background:new 0 0 430.3 427.3;" xml:space="preserve">
<g id="rD2xGH.tif">
	<g>
		<path d="M214.6,427.6c-42.2,0-84.3,0.1-126.5,0c-41.9-0.2-75.6-27.3-84.5-67.7c-1.4-6.2-1.8-12.5-1.8-18.9
			c0-84.5-0.1-169,0.1-253.5C2,43.3,31.7,8.8,75.3,1.8c3.8-0.6,7.6-0.7,11.5-0.7c35.3-0.1,70.7-0.1,106,0c12.2,0,21.2,8,22.3,19.2
			c1.2,12.7-8.4,23.2-21.7,23.2c-28.8,0.1-57.7,0.1-86.5,0.1c-6,0-12-0.1-18,0C62.8,43.8,44.5,61.9,44.4,88c-0.1,33.5,0,67,0,100.5
			c0,50.5,0,101,0,151.5c0,22,12.8,38.9,33,43.8c4.1,1,8.2,1.3,12.4,1.3c83.5,0,167,0,250.5,0c27.6,0,45.6-18.1,45.6-45.8
			c0-34.3-0.1-68.7,0.1-103c0.1-15.2,13.4-25.2,27.5-20.9c8.6,2.6,14.8,10.2,14.9,19.2c0.1,38.5,0.8,77-0.4,115.5
			c-1.3,40-38.1,76.1-78.3,77.2c-37,1-74,0.3-111,0.4C230.6,427.6,222.6,427.6,214.6,427.6C214.6,427.6,214.6,427.6,214.6,427.6z"/>
		<path d="M384,74.1c-1.1,1.7-2,3.5-3.4,4.9c-49.4,49.5-99,99-148.4,148.5c-6.7,6.7-14.2,9.9-23.5,7c-14.2-4.4-19.5-21.5-10.4-33.2
			c1.4-1.8,3.1-3.5,4.8-5.1c49.1-49.1,98.2-98.3,147.4-147.4c1.4-1.4,3.3-2.2,5.3-3.5c-3.1-2.4-5-1.8-6.7-1.8
			c-23.3-0.1-46.7,0.1-70-0.1c-16.3-0.2-26.3-16.7-18.9-30.8c4.1-8,11-11.6,20-11.6c22.7,0.1,45.3,0,68,0c19,0,38,0,57,0
			c14.9,0,23.2,8.4,23.2,23.2c0,41.8,0.1,83.6,0,125.5c0,10.5-6.2,18.6-15.8,21.1c-9.1,2.4-18.8-1.6-23.7-9.7c-2.4-4-3-8.4-3-13
			c0-22.5,0-45,0-67.5c0-1.8,0-3.6,0-5.4C385.3,75,384.6,74.5,384,74.1z"/>
	</g>
</g>
</svg>
